<svg width="217" height="79" viewBox="0 0 217 79" fill="none" xmlns="http://www.w3.org/2000/svg">
<path d="M23.7885 9.75269H0V66.6436L23.7885 9.75269Z" fill="white"/>
<path d="M40.5261 9.75269H64.2836V66.6436L40.5261 9.75269Z" fill="white"/>
<path d="M32.1575 30.7207L47.2984 66.6437H37.3646L32.8394 55.2066H21.7587L32.1575 30.7207Z" fill="white"/>
<path d="M103.092 45.9316L105.897 53.9747C105.99 54.1762 106.13 54.2692 106.378 54.2692H111.771C112.065 54.2692 112.112 54.1297 112.065 53.8353L100.923 22.887C100.876 22.639 100.83 22.5925 100.582 22.5925H93.8867C93.7008 22.5925 93.5923 22.732 93.5923 22.9335C93.4993 24.5607 93.3598 25.0566 93.1583 25.537L83.2245 53.7888C83.178 54.1297 83.2865 54.2692 83.5655 54.2692H88.3852C88.6796 54.2692 88.8191 54.1762 88.9276 53.8818L91.5776 45.9316H103.092ZM93.1119 40.678C94.5686 36.2767 96.4903 30.6357 97.2652 27.4122H97.3117C98.2725 30.7906 100.535 37.4855 101.558 40.678H93.1119Z" fill="white"/>
<path d="M126.39 54.7498C129.288 54.7498 132.372 54.2229 135.502 52.8746C135.75 52.7816 135.797 52.6731 135.797 52.4407C135.704 51.5728 135.595 50.3175 135.595 49.3567V20.2216C135.595 20.0356 135.595 19.9426 135.363 19.9426H130.109C129.908 19.9426 129.815 20.0356 129.815 20.2836V30.1554C128.994 30.0624 128.42 30.0159 127.738 30.0159C119.261 30.0159 114.054 35.6105 114.054 42.5998C114.054 50.7049 119.401 54.7498 126.39 54.7498V54.7498ZM129.815 49.3567C128.947 49.6356 127.986 49.7441 127.01 49.7441C123.167 49.7441 120.021 47.5745 120.021 42.3054C120.021 37.6407 123.26 34.8821 127.552 34.8821C128.42 34.8821 129.18 34.9751 129.815 35.2231V49.3567Z" fill="white"/>
<path d="M152.557 30.0159C145.32 30.0159 140.841 35.5639 140.841 42.4138C140.841 48.5353 144.405 54.7497 152.448 54.7497C159.252 54.7497 164.025 49.744 164.025 42.2588C164.025 35.6569 159.98 30.0159 152.557 30.0159ZM152.262 34.882C156.354 34.882 158.089 38.4 158.089 42.4138C158.089 47.373 155.532 49.837 152.557 49.837C148.884 49.837 146.714 46.7531 146.714 42.3053C146.714 37.7336 149.023 34.882 152.262 34.882V34.882Z" fill="white"/>
<path d="M169.456 19.9426C169.255 19.9426 169.115 20.0356 169.115 20.2836V53.262C169.115 53.4015 169.255 53.6495 169.456 53.6959C171.766 54.4088 174.183 54.7498 176.678 54.7498C183.822 54.7498 190.765 50.3175 190.765 41.391C190.765 34.9286 186.333 30.0159 179.39 30.0159C177.794 30.0159 176.306 30.2639 175.004 30.6978L174.942 20.3301C174.942 19.9891 174.849 19.9426 174.509 19.9426H169.456ZM184.83 41.9799C184.83 47.3265 181.172 49.8371 177.221 49.8371C176.399 49.8371 175.671 49.7906 175.004 49.5891V35.5175C175.764 35.2231 176.678 34.9751 178.367 34.9751C182.18 34.9751 184.83 37.3927 184.83 41.9799Z" fill="white"/>
<path d="M210.372 43.7156C212.727 43.7156 214.665 43.6691 215.331 43.5141C215.579 43.4676 215.672 43.3746 215.718 43.1732C215.858 42.6462 215.92 41.5459 215.92 40.1977C215.92 35.6104 213.161 30.0159 206.032 30.0159C198.749 30.0159 194.704 35.9514 194.704 42.6462C194.704 48.5817 197.834 54.7497 206.606 54.7497C209.891 54.7497 212.014 54.2228 213.843 53.3549C214.029 53.2619 214.122 53.107 214.122 52.828V48.8142C214.122 48.5817 213.983 48.5353 213.843 48.6282C212.014 49.4031 210.031 49.7905 207.861 49.7905C202.949 49.7905 200.717 47.0785 200.577 43.7156H210.372ZM200.577 39.5623C200.965 37.2067 202.453 34.6496 205.785 34.6496C209.457 34.6496 210.418 37.7336 210.418 39.1283C210.418 39.1748 210.418 39.3763 210.418 39.5158C210.217 39.5623 209.597 39.5623 207.768 39.5623H200.577Z" fill="white"/>
</svg>
