<svg width="255" height="79" viewBox="0 0 255 79" fill="none" xmlns="http://www.w3.org/2000/svg">
<g clip-path="url(#clip0_27_31)">
<path d="M21.7528 42.5724C21.7528 38.3357 18.5663 35.3581 14.6521 35.3581C10.7378 35.3581 7.55128 38.3859 7.55128 42.5724C7.55128 46.7087 10.7378 49.7868 14.6521 49.7868C18.5702 49.7829 21.7528 46.809 21.7528 42.5724ZM21.8088 55.1822V51.9032C19.8777 54.1742 17.003 55.5837 13.5606 55.5837C6.4078 55.5837 0.978271 50.0339 0.978271 42.5724C0.978271 35.1572 6.61571 29.5109 13.7205 29.5109C17.063 29.5109 19.8818 30.9244 21.8127 33.1412V29.9627H28.2339V55.1822H21.8088Z" fill="white"/>
<path d="M59.4234 49.5821C57.1765 49.5821 56.5527 48.7748 56.5527 46.6585V35.4623H60.6788V29.9627H56.5527V23.8104H49.9718V29.9627H41.4956V28.4295C41.4956 26.3092 42.3313 25.502 44.6302 25.502H46.0736V20.6088H42.907C37.4774 20.6088 34.9186 22.3235 34.9186 27.5682V29.9589H31.2643V35.4585H34.9186V55.1782H41.4997V35.4585H49.9757V47.817C49.9757 52.9613 52.0109 55.1821 57.3364 55.1821H60.7308V49.5821H59.4234Z" fill="white"/>
<path d="M83.0251 40.3015C82.5572 37.0225 79.7865 35.0566 76.5519 35.0566C73.3134 35.0566 70.6507 36.9723 69.9749 40.3015H83.0251ZM69.919 44.2369C70.3908 47.9676 73.1575 50.088 76.6559 50.088C79.4226 50.088 81.5657 48.8249 82.817 46.809H89.554C87.9867 52.1541 83.025 55.5837 76.5001 55.5837C68.6155 55.5837 63.0821 50.2385 63.0821 42.6225C63.0821 35.0065 68.9315 29.5069 76.6599 29.5069C84.4404 29.5069 90.0778 35.0568 90.0778 42.6225C90.0778 43.1787 90.0258 43.731 89.9218 44.2369H69.919Z" fill="white"/>
<path d="M131.919 42.5724C131.919 38.4863 128.732 35.3581 124.818 35.3581C120.904 35.3581 117.717 38.3859 117.717 42.5724C117.717 46.7087 120.904 49.7868 124.818 49.7868C128.732 49.7829 131.919 46.6585 131.919 42.5724ZM111.24 29.9627H117.661V33.2416C119.592 30.9205 122.463 29.5109 125.909 29.5109C132.958 29.5109 138.492 35.1109 138.492 42.5222C138.492 49.9374 132.854 55.5875 125.754 55.5875C122.463 55.5875 119.748 54.3247 117.869 52.2083V65.5596H111.24V29.9627Z" fill="white"/>
<path d="M161.637 42.5724C161.637 38.3357 158.455 35.3581 154.536 35.3581C150.622 35.3581 147.436 38.3859 147.436 42.5724C147.436 46.7087 150.622 49.7868 154.536 49.7868C158.455 49.7829 161.637 46.809 161.637 42.5724ZM161.694 55.1822V51.9032C159.762 54.1742 156.887 55.5837 153.444 55.5837C146.292 55.5837 140.863 50.0339 140.863 42.5724C140.863 35.1572 146.5 29.5109 153.601 29.5109C156.943 29.5109 159.762 30.9244 161.694 33.1412V29.9627H168.115V55.1822H161.694Z" fill="white"/>
<path d="M99.6653 32.4345C99.6653 32.4345 101.301 29.5109 105.303 29.5109C107.014 29.5109 108.122 30.0786 108.122 30.0786V36.5129C108.122 36.5129 105.707 35.0723 103.488 35.3619C101.269 35.6516 99.8652 37.6212 99.8733 40.2552V55.186H93.2443V29.9666H99.6653V32.4345Z" fill="white"/>
<path d="M198.104 29.9627L181.891 65.4783H175.055L181.42 51.7486L170.657 29.9627H178.406L184.703 44.5189L191.164 29.9627H198.104Z" fill="white"/>
<path d="M249.858 29.3911L233.785 20.4311C229.067 17.801 223.17 21.0877 223.17 26.3517V27.2709C223.17 28.1012 223.629 28.8697 224.373 29.283L227.408 30.9746C228.299 31.4728 229.41 30.851 229.41 29.8584V27.5721C229.41 26.4289 230.691 25.7144 231.714 26.286L245.635 34.0488C246.66 34.6204 246.66 36.0494 245.635 36.6171L231.714 44.3799C230.691 44.9515 229.41 44.2369 229.41 43.0938V41.8772C229.41 36.6132 223.513 33.3227 218.792 35.9566L202.719 44.9167C198.001 47.5468 198.001 54.1278 202.719 56.7578L218.792 65.7178C223.509 68.3478 229.41 65.0612 229.41 59.7973V58.8781C229.41 58.0477 228.951 57.283 228.208 56.8659L225.172 55.1704C224.281 54.6723 223.17 55.294 223.17 56.2867V58.573C223.17 59.7162 221.891 60.4306 220.866 59.859L206.945 52.0963C205.922 51.5247 205.922 50.0958 206.945 49.5242L220.866 41.7613C221.891 41.1897 223.17 41.9042 223.17 43.0474V44.264C223.17 49.528 229.067 52.8185 233.785 50.1846L249.858 41.2245C254.576 38.6021 254.576 32.0212 249.858 29.3911Z" fill="white"/>
</g>
<defs>
<clipPath id="clip0_27_31">
<rect width="253.571" height="78.0218" fill="white" transform="translate(0.978271)"/>
</clipPath>
</defs>
</svg>
