<svg width="324" height="324" viewBox="0 0 324 324" fill="none" xmlns="http://www.w3.org/2000/svg">
<rect width="324" height="324" fill="#FF6B00"/>
<path d="M103.86 173.986C96.077 173.986 89.0725 172.299 82.8462 168.924C76.7497 165.42 71.8854 160.618 68.2534 154.518C64.7511 148.418 63 141.41 63 133.493C63 125.576 64.7511 118.568 68.2534 112.468C71.8854 106.368 76.7497 101.631 82.8462 98.2563C89.0725 94.7521 96.077 93 103.86 93C111.643 93 118.582 94.7521 124.679 98.2563C130.905 101.631 135.769 106.368 139.272 112.468C142.904 118.568 144.72 125.576 144.72 133.493C144.72 141.41 142.904 148.418 139.272 154.518C135.769 160.618 130.905 165.42 124.679 168.924C118.582 172.299 111.643 173.986 103.86 173.986ZM103.86 165.81C113.588 165.81 121.371 162.889 127.208 157.049C133.175 151.079 136.159 143.227 136.159 133.493C136.159 123.759 133.175 115.972 127.208 110.132C121.371 104.162 113.588 101.176 103.86 101.176C94.1313 101.176 86.2836 104.162 80.3168 110.132C74.4797 115.972 71.5611 123.759 71.5611 133.493C71.5611 143.227 74.4797 151.079 80.3168 157.049C86.2836 162.889 94.1313 165.81 103.86 165.81ZM89.8508 154.713V111.494H106.389C111.189 111.494 114.821 112.662 117.285 114.999C119.75 117.335 120.982 120.06 120.982 123.175C120.982 125.641 120.333 127.847 119.036 129.794C117.869 131.611 115.923 133.039 113.199 134.077V136.024C115.404 136.154 116.961 136.867 117.869 138.165C118.907 139.463 119.426 141.215 119.426 143.422V154.713H111.254V143.032C111.254 140.307 109.892 138.944 107.168 138.944H98.0227V154.713H89.8508ZM98.0227 131.546H106.389C108.594 131.546 110.216 130.897 111.254 129.599C112.291 128.302 112.81 126.809 112.81 125.122C112.81 123.305 112.291 121.812 111.254 120.644C110.216 119.476 108.594 118.892 106.389 118.892H98.0227V131.546Z" fill="white"/>
<path d="M167.606 232V95.7255H192.122V171.066H195.624L227.534 135.44H259.443L214.887 182.162L261 232H229.48L195.624 193.648H192.122V232H167.606Z" fill="white"/>
</svg>
