<svg width="153" height="79" viewBox="0 0 153 79" fill="none" xmlns="http://www.w3.org/2000/svg">
<g clip-path="url(#clip0_27_47)">
<path d="M0.185547 13.0037V56.1291L5.70306 56.1504V35.6145H18.9663V30.1811H5.68184V18.4157H22.9771V13.0037H0.185547ZM32.8662 21.7742C33.823 21.7742 34.7406 21.3911 35.4172 20.7091C36.0937 20.0271 36.4738 19.1021 36.4738 18.1376C36.4738 17.1732 36.0937 16.2482 35.4172 15.5662C34.7406 14.8842 33.823 14.5011 32.8662 14.5011C31.9094 14.5011 30.9918 14.8842 30.3153 15.5662C29.6387 16.2482 29.2586 17.1732 29.2586 18.1376C29.2586 19.1021 29.6387 20.0271 30.3153 20.7091C30.9918 21.3911 31.9094 21.7742 32.8662 21.7742ZM30.0862 27.1863V56.1504H35.6038V27.1863H30.0862Z" fill="white"/>
<path fill-rule="evenodd" clip-rule="evenodd" d="M55.9973 26.352C48.6972 26.352 43.6041 32.5769 43.6041 39.9784C43.6041 47.3799 48.6972 53.6048 55.9973 53.6048C59.3502 53.6048 62.109 52.3213 64.125 50.1822V54.0327C64.139 55.1832 63.9267 56.3251 63.5002 57.3923C63.0738 58.4596 62.4417 59.4311 61.6406 60.2507C60.8394 61.0702 59.885 61.7215 58.8326 62.167C57.7802 62.6125 56.6506 62.8432 55.5092 62.846C53.7478 62.846 52.0077 62.1615 50.6283 61.1774L47.8695 65.9905C50.0027 67.3805 52.4686 68.1643 55.0069 68.2593C57.5452 68.3543 60.0619 67.757 62.2914 66.5303C64.521 65.3036 66.3808 63.493 67.6746 61.2897C68.9684 59.0863 69.6483 56.5717 69.6425 54.0113V27.2076H64.125V29.796C62.109 27.6569 59.3502 26.3734 55.9973 26.3734V26.352ZM49.1004 39.9784C49.1004 35.3792 52.5807 31.764 56.6127 31.764C60.6447 31.764 64.1038 35.4006 64.1038 39.9784C64.1038 44.5776 60.6235 48.1714 56.6127 48.1714C52.5807 48.1714 49.1004 44.5776 49.1004 39.9784Z" fill="white"/>
<path d="M89.4631 31.7642C87.8851 31.7923 86.3815 32.4454 85.2775 33.5823C84.1734 34.7192 83.5578 36.2485 83.5636 37.8394V56.1506H78.0461V27.1864H83.5636V29.8389C84.3891 28.7361 85.4614 27.8454 86.6931 27.2395C87.9248 26.6335 89.2811 26.3295 90.6515 26.3521C94.5138 26.3521 97.4847 28.2773 99.1824 31.2294C100.13 29.7495 101.426 28.5294 102.955 27.6783C104.485 26.8271 106.2 26.3715 107.947 26.3521C114.207 26.3521 118.133 31.4433 118.133 37.7538V56.1506H112.658V37.818C112.664 36.2271 112.048 34.6978 110.944 33.5609C109.84 32.424 108.336 31.7709 106.758 31.7428C105.18 31.7709 103.677 32.424 102.573 33.5609C101.469 34.6978 100.853 36.2271 100.859 37.818V56.1292H95.3414V37.818C95.3473 36.2307 94.7345 34.7046 93.6351 33.5683C92.5356 32.432 91.0374 31.7764 89.4631 31.7428V31.7642Z" fill="white"/>
<path fill-rule="evenodd" clip-rule="evenodd" d="M147.482 30.4806C146.229 29.1637 144.723 28.1183 143.055 27.4084C141.388 26.6985 139.594 26.3391 137.784 26.3521C129.593 26.3521 123.778 33.3257 123.778 41.6684C123.778 50.0111 129.593 56.9848 137.784 56.9848C139.593 56.994 141.386 56.6329 143.053 55.9232C144.72 55.2136 146.227 54.1701 147.482 52.8562V56.1505H152.978V27.1863H147.461V30.4806H147.482ZM129.274 41.6684C129.274 36.1494 133.476 31.7641 138.378 31.7641C143.259 31.7641 147.482 36.1494 147.482 41.6684C147.482 47.1874 143.28 51.5513 138.378 51.5513C133.497 51.5513 129.274 47.1874 129.274 41.6684Z" fill="white"/>
</g>
<defs>
<clipPath id="clip0_27_47">
<rect width="152.793" height="78.0218" fill="white" transform="translate(0.185547)"/>
</clipPath>
</defs>
</svg>
