<svg width="217" height="79" fill="none" xmlns="http://www.w3.org/2000/svg"><path d="M23.788 9.753H0v56.89l23.788-56.89ZM40.526 9.753h23.758v56.89L40.526 9.754ZM32.157 30.72l15.141 35.924h-9.933l-4.526-11.437H21.76L32.157 30.72ZM103.092 45.932l2.805 8.043c.093.201.233.294.481.294h5.393c.294 0 .341-.14.294-.434l-11.142-30.948c-.047-.248-.093-.294-.341-.294h-6.695c-.186 0-.295.139-.295.34-.093 1.628-.232 2.124-.434 2.604l-9.933 28.252c-.047.34.062.48.34.48h4.82c.295 0 .434-.093.543-.387l2.65-7.95h11.514Zm-9.98-5.254c1.457-4.401 3.378-10.042 4.153-13.266h.047c.96 3.379 3.223 10.074 4.246 13.266h-8.446ZM126.39 54.75a22.85 22.85 0 0 0 9.112-1.875c.248-.093.295-.202.295-.434-.093-.868-.202-2.123-.202-3.084V20.222c0-.186 0-.28-.232-.28h-5.254c-.201 0-.294.094-.294.342v9.871c-.821-.093-1.395-.14-2.077-.14-8.477 0-13.684 5.596-13.684 12.585 0 8.105 5.347 12.15 12.336 12.15Zm3.425-5.393c-.868.279-1.829.387-2.805.387-3.843 0-6.989-2.17-6.989-7.439 0-4.664 3.239-7.423 7.531-7.423.868 0 1.628.093 2.263.341v14.134ZM152.557 30.016c-7.237 0-11.716 5.548-11.716 12.398 0 6.121 3.564 12.336 11.607 12.336 6.804 0 11.577-5.006 11.577-12.491 0-6.602-4.045-12.243-11.468-12.243Zm-.295 4.866c4.092 0 5.827 3.518 5.827 7.532 0 4.959-2.557 7.423-5.532 7.423-3.673 0-5.843-3.084-5.843-7.532 0-4.571 2.309-7.423 5.548-7.423ZM169.456 19.943c-.201 0-.341.093-.341.34v32.979c0 .14.14.388.341.434 2.31.713 4.727 1.054 7.222 1.054 7.144 0 14.087-4.432 14.087-13.359 0-6.462-4.432-11.375-11.375-11.375-1.596 0-3.084.248-4.386.682l-.062-10.368c0-.34-.093-.387-.433-.387h-5.053ZM184.83 41.98c0 5.347-3.658 7.857-7.609 7.857-.822 0-1.55-.046-2.217-.248V35.517c.76-.294 1.674-.542 3.363-.542 3.813 0 6.463 2.418 6.463 7.005ZM210.372 43.716c2.355 0 4.293-.047 4.959-.202.248-.046.341-.14.387-.34.14-.528.202-1.628.202-2.976 0-4.588-2.759-10.182-9.888-10.182-7.283 0-11.328 5.935-11.328 12.63 0 5.936 3.13 12.104 11.902 12.104 3.285 0 5.408-.527 7.237-1.395.186-.093.279-.248.279-.527v-4.014c0-.232-.139-.279-.279-.186-1.829.775-3.812 1.163-5.982 1.163-4.912 0-7.144-2.712-7.284-6.075h9.795Zm-9.795-4.154c.388-2.355 1.876-4.912 5.208-4.912 3.672 0 4.633 3.084 4.633 4.478v.388c-.201.046-.821.046-2.65.046h-7.191Z" fill="#fff"/></svg>