<svg width="255" height="79" fill="none" xmlns="http://www.w3.org/2000/svg"><g clip-path="url('#clip0_27_31')" fill="#fff"><path d="M21.753 42.572c0-4.236-3.187-7.214-7.1-7.214-3.915 0-7.102 3.028-7.102 7.214 0 4.137 3.187 7.215 7.101 7.215 3.918-.004 7.1-2.978 7.1-7.215Zm.056 12.61v-3.279c-1.931 2.271-4.806 3.68-8.248 3.68-7.153 0-12.583-5.55-12.583-13.01 0-7.416 5.638-13.062 12.742-13.062 3.343 0 6.162 1.413 8.093 3.63v-3.178h6.42v25.22H21.81ZM59.423 49.582c-2.247 0-2.87-.807-2.87-2.924V35.462h4.126v-5.5h-4.126V23.81h-6.581v6.153h-8.476v-1.534c0-2.12.835-2.927 3.134-2.927h1.444v-4.893h-3.167c-5.43 0-7.988 1.714-7.988 6.96v2.39h-3.655v5.5h3.655v19.72h6.58v-19.72h8.477v12.358c0 5.144 2.035 7.365 7.36 7.365h3.395v-5.6h-1.308ZM83.025 40.301c-.468-3.279-3.239-5.244-6.473-5.244-3.239 0-5.901 1.915-6.577 5.244h13.05ZM69.92 44.237c.472 3.73 3.239 5.851 6.737 5.851 2.767 0 4.91-1.263 6.161-3.279h6.737c-1.567 5.345-6.529 8.775-13.054 8.775-7.885 0-13.418-5.346-13.418-12.962 0-7.615 5.85-13.115 13.578-13.115 7.78 0 13.418 5.55 13.418 13.116a8.11 8.11 0 0 1-.156 1.614H69.919ZM131.919 42.572c0-4.086-3.187-7.214-7.101-7.214s-7.101 3.028-7.101 7.214c0 4.137 3.187 7.215 7.101 7.215 3.914-.004 7.101-3.129 7.101-7.215Zm-20.679-12.61h6.421v3.28c1.931-2.321 4.802-3.731 8.248-3.731 7.049 0 12.583 5.6 12.583 13.011 0 7.415-5.638 13.066-12.738 13.066-3.291 0-6.006-1.263-7.885-3.38V65.56h-6.629V29.963ZM161.637 42.572c0-4.236-3.182-7.214-7.101-7.214-3.914 0-7.1 3.028-7.1 7.214 0 4.137 3.186 7.215 7.1 7.215 3.919-.004 7.101-2.978 7.101-7.215Zm.057 12.61v-3.279c-1.932 2.271-4.807 3.68-8.25 3.68-7.152 0-12.581-5.55-12.581-13.01 0-7.416 5.637-13.062 12.738-13.062 3.342 0 6.161 1.413 8.093 3.63v-3.178h6.421v25.22h-6.421ZM99.665 32.434s1.636-2.923 5.638-2.923c1.711 0 2.819.568 2.819.568v6.434s-2.415-1.44-4.634-1.151c-2.219.29-3.623 2.26-3.615 4.893v14.931h-6.629v-25.22h6.421v2.468ZM198.104 29.963l-16.213 35.515h-6.836l6.365-13.73-10.763-21.785h7.749l6.297 14.556 6.461-14.556h6.94ZM249.858 29.391l-16.073-8.96c-4.718-2.63-10.615.657-10.615 5.92v.92c0 .83.459 1.599 1.203 2.012l3.035 1.692c.891.498 2.002-.124 2.002-1.117v-2.286c0-1.143 1.281-1.858 2.304-1.286l13.921 7.763c1.025.571 1.025 2 0 2.568l-13.921 7.763c-1.023.572-2.304-.143-2.304-1.286v-1.217c0-5.264-5.897-8.554-10.618-5.92l-16.073 8.96a6.722 6.722 0 0 0 0 11.84l16.073 8.96c4.717 2.63 10.618-.656 10.618-5.92v-.919c0-.83-.459-1.595-1.202-2.012l-3.036-1.696c-.891-.498-2.002.124-2.002 1.117v2.286c0 1.143-1.279 1.858-2.304 1.286l-13.921-7.763a1.461 1.461 0 0 1 0-2.572l13.921-7.763c1.025-.571 2.304.143 2.304 1.286v1.217c0 5.264 5.897 8.554 10.615 5.92l16.073-8.96a6.716 6.716 0 0 0 0-11.833Z"/></g><defs><clipPath id="clip0_27_31"><path fill="#fff" transform="translate(.978)" d="M0 0h253.571v78.022H0z"/></clipPath></defs></svg>