<svg width="180" height="79" viewBox="0 0 180 79" fill="none" xmlns="http://www.w3.org/2000/svg">
<g clip-path="url('#clip0_27_33')">
<path fill-rule="evenodd" clip-rule="evenodd" d="M110.974 61.4533C100.631 69.0774 85.6382 73.1451 72.7299 73.1451C54.6304 73.1451 38.3361 66.4508 26.0089 55.3168C25.0404 54.4413 25.9082 53.2481 27.0704 53.9299C40.3739 61.6702 56.8231 66.3268 73.8146 66.3268C85.274 66.3268 97.8802 63.9559 109.471 59.0359C111.222 58.2921 112.687 60.1826 110.974 61.4533Z" fill="white"></path>
<path fill-rule="evenodd" clip-rule="evenodd" d="M115.275 56.5333C113.958 54.8442 106.535 55.7353 103.203 56.1304C102.188 56.2544 102.033 55.3711 102.948 54.7358C108.859 50.575 118.56 51.776 119.691 53.1706C120.822 54.5731 119.397 64.2969 113.841 68.938C112.989 69.6508 112.176 69.2712 112.555 68.3259C113.803 65.2112 116.6 58.2301 115.275 56.5333Z" fill="white"></path>
<path fill-rule="evenodd" clip-rule="evenodd" d="M103.436 25.3629V21.3184C103.436 20.7063 103.901 20.2957 104.459 20.2957H122.566C123.147 20.2957 123.612 20.7141 123.612 21.3184V24.7818C123.605 25.3629 123.116 26.1222 122.249 27.3232L112.866 40.7196C116.352 40.6344 120.033 41.1535 123.194 42.9356C123.907 43.3385 124.1 43.9273 124.155 44.5084V48.8241C124.155 49.413 123.504 50.1025 122.822 49.7461C117.251 46.8251 109.852 46.5074 103.692 49.7771C103.064 50.118 102.406 49.4362 102.406 48.8474V44.7486C102.406 44.09 102.413 42.9666 103.072 41.9671L113.943 26.3779H104.482C103.901 26.3779 103.436 25.9673 103.436 25.3629Z" fill="white"></path>
<path fill-rule="evenodd" clip-rule="evenodd" d="M37.3838 50.5985H31.8749C31.348 50.5597 30.9296 50.1646 30.8909 49.661V21.3882C30.8909 20.8226 31.3635 20.3732 31.9524 20.3732H37.0893C37.624 20.3964 38.0501 20.8071 38.0889 21.3185V25.0143H38.1896C39.53 21.4424 42.0481 19.7766 45.4418 19.7766C48.8897 19.7766 51.0436 21.4424 52.5933 25.0143C53.9259 21.4424 56.9554 19.7766 60.2019 19.7766C62.5108 19.7766 65.0367 20.7296 66.5786 22.8681C68.3219 25.2468 67.9655 28.7024 67.9655 31.7319L67.9577 49.5757C67.9577 50.1413 67.4851 50.5985 66.8962 50.5985H61.3951C60.845 50.5597 60.4033 50.1181 60.4033 49.5757V34.5909C60.4033 33.3977 60.5118 30.4225 60.2484 29.2913C59.8377 27.393 58.6058 26.8584 57.0097 26.8584C55.677 26.8584 54.2823 27.7494 53.7167 29.175C53.1511 30.6007 53.2054 32.9871 53.2054 34.5909V49.5757C53.2054 50.1413 52.7327 50.5985 52.1439 50.5985H46.6427C46.0849 50.5597 45.651 50.1181 45.651 49.5757L45.6432 34.5909C45.6432 31.4375 46.1624 26.7964 42.2496 26.7964C38.2903 26.7964 38.4453 31.3212 38.4453 34.5909V49.5757C38.4453 50.1413 37.9726 50.5985 37.3838 50.5985Z" fill="white"></path>
<path fill-rule="evenodd" clip-rule="evenodd" d="M139.201 19.7766C147.375 19.7766 151.8 26.7964 151.8 35.7222C151.8 44.3458 146.911 51.1873 139.201 51.1873C131.174 51.1873 126.804 44.1676 126.804 35.42C126.804 26.6182 131.228 19.7766 139.201 19.7766ZM139.248 25.5489C135.188 25.5489 134.932 31.0811 134.932 34.529C134.932 37.9846 134.878 45.3608 139.201 45.3608C143.47 45.3608 143.672 39.4102 143.672 35.7841C143.672 33.3977 143.571 30.5464 142.851 28.284C142.231 26.316 140.999 25.5489 139.248 25.5489Z" fill="white"></path>
<path fill-rule="evenodd" clip-rule="evenodd" d="M162.399 50.5985H156.914C156.363 50.5597 155.922 50.1181 155.922 49.5757L155.914 21.2952C155.961 20.7761 156.418 20.3732 156.976 20.3732H162.081C162.562 20.3964 162.957 20.7219 163.065 21.1635V25.4869H163.166C164.708 21.6207 166.87 19.7766 170.674 19.7766C173.146 19.7766 175.555 20.6676 177.105 23.1083C178.546 25.3707 178.546 29.175 178.546 31.9101V49.7074C178.484 50.2033 178.027 50.5985 177.485 50.5985H171.96C171.457 50.5597 171.038 50.1878 170.984 49.7074V34.3508C170.984 31.2593 171.34 26.7344 167.536 26.7344C166.196 26.7344 164.964 27.6332 164.352 28.9968C163.577 30.7247 163.476 32.4447 163.476 34.3508V49.5757C163.468 50.1413 162.988 50.5985 162.399 50.5985Z" fill="white"></path>
<path fill-rule="evenodd" clip-rule="evenodd" d="M89.0016 37.0935C89.0016 39.2397 89.0558 41.0295 87.9711 42.9356C87.0956 44.4852 85.7009 45.4382 84.159 45.4382C82.0438 45.4382 80.8041 43.8266 80.8041 41.4479C80.8041 36.7526 85.0113 35.9003 89.0016 35.9003V37.0935ZM94.557 50.5209C94.1928 50.8464 93.6659 50.8696 93.2553 50.6527C91.4267 49.134 91.0936 48.429 90.0941 46.9801C87.0723 50.0638 84.9261 50.9858 81.0133 50.9858C76.3722 50.9858 72.7694 48.1268 72.7694 42.401C72.7694 37.9303 75.1868 34.8853 78.6424 33.3977C81.6332 32.0805 85.8094 31.8481 89.0016 31.4839V30.7711C89.0016 29.4617 89.1023 27.912 88.3275 26.7808C87.6612 25.7658 86.375 25.3474 85.236 25.3474C83.1363 25.3474 81.269 26.4244 80.8119 28.6559C80.7189 29.1517 80.3547 29.6399 79.8511 29.6631L74.5127 29.0897C74.0633 28.989 73.5597 28.6249 73.6914 27.9353C74.9156 21.4579 80.7731 19.5054 86.0108 19.5054C88.6917 19.5054 92.1938 20.2182 94.309 22.2482C96.9899 24.7508 96.7342 28.0902 96.7342 31.7241V40.309C96.7342 42.8891 97.8034 44.0203 98.8107 45.415C99.1593 45.9108 99.2368 46.5074 98.7874 46.8793C97.6639 47.8169 95.6649 49.5602 94.5647 50.5364L94.557 50.5209Z" fill="white"></path>
<path fill-rule="evenodd" clip-rule="evenodd" d="M16.7815 37.0935C16.7815 39.2397 16.8358 41.0295 15.751 42.9356C14.8755 44.4852 13.4886 45.4382 11.939 45.4382C9.82376 45.4382 8.59182 43.8266 8.59182 41.4479C8.59182 36.7526 12.799 35.9003 16.7815 35.9003V37.0935ZM22.3369 50.5209C21.9728 50.8463 21.4459 50.8696 21.0352 50.6526C19.2067 49.134 18.8813 48.429 17.874 46.9801C14.8523 50.0638 12.7138 50.9858 8.79327 50.9858C4.15992 50.9858 0.549316 48.1268 0.549316 42.4009C0.549316 37.9303 2.97446 34.8853 6.42236 33.3977C9.41312 32.0805 13.5893 31.8481 16.7815 31.4839V30.7711C16.7815 29.4617 16.8823 27.912 16.1152 26.7808C15.4411 25.7658 14.1549 25.3474 13.0237 25.3474C10.924 25.3474 9.04896 26.4244 8.59182 28.6559C8.49884 29.1517 8.13468 29.6399 7.63881 29.6631L2.29263 29.0897C1.84324 28.989 1.34737 28.6249 1.47134 27.9353C2.70328 21.4579 8.55308 19.5054 13.7908 19.5054C16.4716 19.5054 19.9737 20.2182 22.089 22.2482C24.7698 24.7508 24.5141 28.0902 24.5141 31.7241V40.309C24.5141 42.8891 25.5834 44.0203 26.5906 45.4149C26.947 45.9108 27.0245 46.5074 26.5751 46.8793C25.4516 47.8169 23.4526 49.5602 22.3524 50.5364L22.3369 50.5209Z" fill="white"></path>
</g>
<defs>
<clipPath id="clip0_27_33">
<rect width="178.8" height="78.0218" fill="white" transform="translate(0.549316)"></rect>
</clipPath>
</defs>
</svg>
