<svg width="180" height="79" fill="none" xmlns="http://www.w3.org/2000/svg"><g clip-path="url('#clip0_27_33')" fill-rule="evenodd" clip-rule="evenodd" fill="#fff"><path d="M110.974 61.453c-10.343 7.624-25.336 11.692-38.244 11.692-18.1 0-34.394-6.694-46.721-17.828-.969-.876-.1-2.069 1.061-1.387 13.304 7.74 29.753 12.397 46.745 12.397 11.459 0 24.065-2.371 35.656-7.291 1.751-.744 3.216 1.147 1.503 2.417Z"/><path d="M115.275 56.533c-1.317-1.689-8.74-.798-12.072-.403-1.015.124-1.17-.759-.255-1.394 5.911-4.161 15.612-2.96 16.743-1.565 1.131 1.402-.294 11.126-5.85 15.767-.852.713-1.665.333-1.286-.612 1.248-3.115 4.045-10.096 2.72-11.793ZM103.436 25.363v-4.045c0-.612.465-1.022 1.023-1.022h18.107c.581 0 1.046.418 1.046 1.022v3.464c-.007.58-.496 1.34-1.363 2.541l-9.383 13.397c3.486-.086 7.167.434 10.328 2.216.713.403.906.991.961 1.572v4.316c0 .589-.651 1.279-1.333.922-5.571-2.92-12.97-3.239-19.13.031-.628.341-1.286-.34-1.286-.93V44.75c0-.659.007-1.782.666-2.782l10.871-15.59h-9.461c-.581 0-1.046-.41-1.046-1.014ZM37.384 50.599h-5.51c-.526-.04-.944-.434-.983-.938V21.388c0-.565.473-1.015 1.061-1.015h5.137c.535.023.961.434 1 .945v3.696h.1c1.341-3.572 3.86-5.237 7.253-5.237 3.448 0 5.602 1.665 7.151 5.237 1.333-3.572 4.362-5.237 7.609-5.237 2.309 0 4.835.953 6.377 3.091 1.743 2.379 1.387 5.834 1.387 8.864l-.008 17.844c0 .565-.473 1.023-1.062 1.023h-5.5c-.551-.04-.993-.48-.993-1.023V34.59c0-1.193.109-4.169-.155-5.3-.41-1.898-1.642-2.433-3.238-2.433-1.333 0-2.728.891-3.293 2.317-.566 1.426-.512 3.812-.512 5.416v14.985c0 .565-.472 1.023-1.061 1.023h-5.501c-.558-.04-.992-.48-.992-1.023l-.008-14.985c0-3.154.52-7.795-3.393-7.795-3.96 0-3.805 4.525-3.805 7.795v14.985c0 .565-.472 1.023-1.061 1.023ZM139.201 19.777c8.174 0 12.599 7.02 12.599 15.945 0 8.624-4.889 15.465-12.599 15.465-8.027 0-12.397-7.02-12.397-15.767 0-8.802 4.424-15.643 12.397-15.643Zm.047 5.772c-4.06 0-4.316 5.532-4.316 8.98 0 3.456-.054 10.832 4.269 10.832 4.269 0 4.471-5.95 4.471-9.577 0-2.386-.101-5.238-.821-7.5-.62-1.968-1.852-2.735-3.603-2.735ZM162.399 50.599h-5.485c-.551-.04-.992-.48-.992-1.023l-.008-28.28c.047-.52.504-.923 1.062-.923h5.105c.481.023.876.349.984.79v4.324h.101c1.542-3.866 3.704-5.71 7.508-5.71 2.472 0 4.881.89 6.431 3.331 1.441 2.263 1.441 6.067 1.441 8.802v17.797c-.062.496-.519.892-1.061.892h-5.525c-.503-.04-.922-.411-.976-.892V34.351c0-3.092.356-7.617-3.448-7.617-1.34 0-2.572.9-3.184 2.263-.775 1.728-.876 3.448-.876 5.354v15.225c-.008.565-.488 1.023-1.077 1.023ZM89.002 37.093c0 2.147.054 3.936-1.03 5.843-.876 1.55-2.271 2.502-3.813 2.502-2.115 0-3.355-1.611-3.355-3.99 0-4.695 4.207-5.548 8.198-5.548v1.194Zm5.555 13.428c-.364.325-.891.349-1.302.132-1.828-1.519-2.161-2.224-3.16-3.673-3.023 3.084-5.169 4.006-9.082 4.006-4.64 0-8.244-2.86-8.244-8.585 0-4.47 2.418-7.516 5.873-9.003 2.991-1.318 7.167-1.55 10.36-1.914v-.713c0-1.31.1-2.859-.674-3.99-.667-1.015-1.953-1.434-3.092-1.434-2.1 0-3.967 1.077-4.424 3.309-.093.496-.457.984-.96 1.007l-5.34-.573c-.449-.101-.952-.465-.82-1.155 1.224-6.477 7.081-8.43 12.319-8.43 2.68 0 6.183.713 8.298 2.743 2.68 2.503 2.425 5.842 2.425 9.476v8.585c0 2.58 1.07 3.711 2.077 5.106.348.496.426 1.092-.024 1.464-1.123.938-3.122 2.681-4.222 3.657l-.008-.015ZM16.782 37.093c0 2.147.054 3.936-1.031 5.843-.875 1.55-2.262 2.502-3.812 2.502-2.115 0-3.347-1.611-3.347-3.99 0-4.695 4.207-5.548 8.19-5.548v1.194Zm5.555 13.428c-.364.325-.891.349-1.302.132-1.828-1.519-2.154-2.224-3.161-3.673-3.022 3.084-5.16 4.006-9.08 4.006-4.634 0-8.245-2.86-8.245-8.585 0-4.47 2.425-7.516 5.873-9.003 2.991-1.318 7.167-1.55 10.36-1.914v-.713c0-1.31.1-2.859-.667-3.99-.674-1.015-1.96-1.434-3.091-1.434-2.1 0-3.975 1.077-4.432 3.309-.093.496-.457.984-.953 1.007l-5.346-.573c-.45-.101-.946-.465-.822-1.155 1.232-6.477 7.082-8.43 12.32-8.43 2.68 0 6.183.713 8.298 2.743 2.68 2.503 2.425 5.842 2.425 9.476v8.585c0 2.58 1.07 3.711 2.077 5.106.356.496.433 1.092-.016 1.464-1.123.938-3.122 2.681-4.223 3.657l-.015-.015Z"/></g><defs><clipPath id="clip0_27_33"><path fill="#fff" transform="translate(.55)" d="M0 0h178.8v78.022H0z"/></clipPath></defs></svg>