<svg width="52" height="52" viewBox="0 0 52 52" fill="none" xmlns="http://www.w3.org/2000/svg">
<path fill-rule="evenodd" clip-rule="evenodd" d="M26.7618 8.56178C27.2493 8.07436 27.9105 7.80054 28.6 7.80054C29.2894 7.80054 29.9506 8.07436 30.4382 8.56178L46.0382 24.1618C46.5256 24.6494 46.7994 25.3106 46.7994 26C46.7994 26.6894 46.5256 27.3506 46.0382 27.8382L30.4382 43.4382C29.9478 43.9118 29.291 44.1739 28.6093 44.1679C27.9276 44.162 27.2755 43.8886 26.7934 43.4065C26.3114 42.9244 26.0379 42.2723 26.032 41.5906C26.0261 40.9089 26.2881 40.2521 26.7618 39.7618L37.9236 28.6H7.79995C7.11039 28.6 6.44907 28.3261 5.96147 27.8385C5.47388 27.3509 5.19995 26.6895 5.19995 26C5.19995 25.3104 5.47388 24.6491 5.96147 24.1615C6.44907 23.6739 7.11039 23.4 7.79995 23.4H37.9236L26.7618 12.2382C26.2743 11.7506 26.0005 11.0894 26.0005 10.4C26.0005 9.71055 26.2743 9.04935 26.7618 8.56178V8.56178Z" fill="white"></path>
</svg>
