<svg width="1442" height="869" fill="none" xmlns="http://www.w3.org/2000/svg"><path opacity=".25" d="M58.6 1.2H1v57.6h57.6m0-57.6v57.6m0-57.6h57.6M58.6 58.8h57.6m0-57.6v57.6m0-57.6h57.6m-57.6 57.6h57.6m0-57.6v57.6m0-57.6h57.6m-57.6 57.6h57.6m0-57.6v57.6m0-57.6H289m-57.6 57.6H289m0-57.6v57.6m0-57.6h57.6M289 58.8h57.6m0-57.6v57.6m0-57.6h57.6m-57.6 57.6h57.6m0-57.6v57.6m0-57.6h57.6m-57.6 57.6h57.6m0-57.6v57.6m0-57.6h57.6m-57.6 57.6h57.6m0-57.6v57.6m0-57.6H577m-57.6 57.6H577m0-57.6v57.6m0-57.6h57.6M577 58.8h57.6m0-57.6v57.6m0-57.6h57.6m-57.6 57.6h57.6m0-57.6v57.6m0-57.6h57.6m-57.6 57.6h57.6m0-57.6v57.6m0-57.6h57.6m-57.6 57.6h57.6m0-57.6v57.6m0-57.6H865m-57.6 57.6H865m0-57.6v57.6m0-57.6h57.6M865 58.8h57.6m0-57.6v57.6m0-57.6h57.6m-57.6 57.6h57.6m0-57.6v57.6m0-57.6h57.6m-57.6 57.6h57.6m0-57.6v57.6m0-57.6h57.6m-57.6 57.6h57.6m0-57.6v57.6m0-57.6h57.6m-57.6 57.6h57.6m0-57.6v57.6m0-57.6h57.6M1153 58.8h57.6m0-57.6v57.6m0-57.6h57.6m-57.6 57.6h57.6m0-57.6v57.6m0-57.6h57.6m-57.6 57.6h57.6m0-57.6v57.6m0-57.6h57.6m-57.6 57.6h57.6m0-57.6v57.6m0-57.6h57.6v57.6h-57.6M58.6 59H1v57.6h57.6m0-57.6v57.6m0-57.6h57.6m-57.6 57.6h57.6m0-57.6v57.6m0-57.6h57.6m-57.6 57.6h57.6m0-57.6v57.6m0-57.6h57.6m-57.6 57.6h57.6m0-57.6v57.6m0-57.6H289m-57.6 57.6H289m0-57.6v57.6m0-57.6h57.6M289 116.6h57.6m0-57.6v57.6m0-57.6h57.6m-57.6 57.6h57.6m0-57.6v57.6m0-57.6h57.6m-57.6 57.6h57.6m0-57.6v57.6m0-57.6h57.6m-57.6 57.6h57.6m0-57.6v57.6m0-57.6H577m-57.6 57.6H577m0-57.6v57.6m0-57.6h57.6M577 116.6h57.6m0-57.6v57.6m0-57.6h57.6m-57.6 57.6h57.6m0-57.6v57.6m0-57.6h57.6m-57.6 57.6h57.6m0-57.6v57.6m0-57.6h57.6m-57.6 57.6h57.6m0-57.6v57.6m0-57.6H865m-57.6 57.6H865m0-57.6v57.6m0-57.6h57.6M865 116.6h57.6m0-57.6v57.6m0-57.6h57.6m-57.6 57.6h57.6m0-57.6v57.6m0-57.6h57.6m-57.6 57.6h57.6m0-57.6v57.6m0-57.6h57.6m-57.6 57.6h57.6m0-57.6v57.6m0-57.6h57.6m-57.6 57.6h57.6m0-57.6v57.6m0-57.6h57.6m-57.6 57.6h57.6m0-57.6v57.6m0-57.6h57.6m-57.6 57.6h57.6m0-57.6v57.6m0-57.6h57.6m-57.6 57.6h57.6m0-57.6v57.6m0-57.6h57.6m-57.6 57.6h57.6m0-57.6v57.6m0-57.6h57.6v57.6h-57.6m-1324.8.2H1v57.6h57.6m0-57.6v57.6m0-57.6h57.6m-57.6 57.6h57.6m0-57.6v57.6m0-57.6h57.6m-57.6 57.6h57.6m0-57.6v57.6m0-57.6h57.6m-57.6 57.6h57.6m0-57.6v57.6m0-57.6H289m-57.6 57.6H289m0-57.6v57.6m0-57.6h57.6M289 174.4h57.6m0-57.6v57.6m0-57.6h57.6m-57.6 57.6h57.6m0-57.6v57.6m0-57.6h57.6m-57.6 57.6h57.6m0-57.6v57.6m0-57.6h57.6m-57.6 57.6h57.6m0-57.6v57.6m0-57.6H577m-57.6 57.6H577m0-57.6v57.6m0-57.6h57.6M577 174.4h57.6m0-57.6v57.6m0-57.6h57.6m-57.6 57.6h57.6m0-57.6v57.6m0-57.6h57.6m-57.6 57.6h57.6m0-57.6v57.6m0-57.6h57.6m-57.6 57.6h57.6m0-57.6v57.6m0-57.6H865m-57.6 57.6H865m0-57.6v57.6m0-57.6h57.6M865 174.4h57.6m0-57.6v57.6m0-57.6h57.6m-57.6 57.6h57.6m0-57.6v57.6m0-57.6h57.6m-57.6 57.6h57.6m0-57.6v57.6m0-57.6h57.6m-57.6 57.6h57.6m0-57.6v57.6m0-57.6h57.6m-57.6 57.6h57.6m0-57.6v57.6m0-57.6h57.6m-57.6 57.6h57.6m0-57.6v57.6m0-57.6h57.6m-57.6 57.6h57.6m0-57.6v57.6m0-57.6h57.6m-57.6 57.6h57.6m0-57.6v57.6m0-57.6h57.6m-57.6 57.6h57.6m0-57.6v57.6m0-57.6h57.6v57.6h-57.6m-1324.8.2H1v57.6h57.6m0-57.6v57.6m0-57.6h57.6m-57.6 57.6h57.6m0-57.6v57.6m0-57.6h57.6m-57.6 57.6h57.6m0-57.6v57.6m0-57.6h57.6m-57.6 57.6h57.6m0-57.6v57.6m0-57.6H289m-57.6 57.6H289m0-57.6v57.6m0-57.6h57.6M289 232.2h57.6m0-57.6v57.6m0-57.6h57.6m-57.6 57.6h57.6m0-57.6v57.6m0-57.6h57.6m-57.6 57.6h57.6m0-57.6v57.6m0-57.6h57.6m-57.6 57.6h57.6m0-57.6v57.6m0-57.6H577m-57.6 57.6H577m0-57.6v57.6m0-57.6h57.6M577 232.2h57.6m0-57.6v57.6m0-57.6h57.6m-57.6 57.6h57.6m0-57.6v57.6m0-57.6h57.6m-57.6 57.6h57.6m0-57.6v57.6m0-57.6h57.6m-57.6 57.6h57.6m0-57.6v57.6m0-57.6H865m-57.6 57.6H865m0-57.6v57.6m0-57.6h57.6M865 232.2h57.6m0-57.6v57.6m0-57.6h57.6m-57.6 57.6h57.6m0-57.6v57.6m0-57.6h57.6m-57.6 57.6h57.6m0-57.6v57.6m0-57.6h57.6m-57.6 57.6h57.6m0-57.6v57.6m0-57.6h57.6m-57.6 57.6h57.6m0-57.6v57.6m0-57.6h57.6m-57.6 57.6h57.6m0-57.6v57.6m0-57.6h57.6m-57.6 57.6h57.6m0-57.6v57.6m0-57.6h57.6m-57.6 57.6h57.6m0-57.6v57.6m0-57.6h57.6m-57.6 57.6h57.6m0-57.6v57.6m0-57.6h57.6v57.6h-57.6m-1324.8.2H1V290h57.6m0-57.6V290m0-57.6h57.6M58.6 290h57.6m0-57.6V290m0-57.6h57.6M116.2 290h57.6m0-57.6V290m0-57.6h57.6M173.8 290h57.6m0-57.6V290m0-57.6H289M231.4 290H289m0-57.6V290m0-57.6h57.6M289 290h57.6m0-57.6V290m0-57.6h57.6M346.6 290h57.6m0-57.6V290m0-57.6h57.6M404.2 290h57.6m0-57.6V290m0-57.6h57.6M461.8 290h57.6m0-57.6V290m0-57.6H577M519.4 290H577m0-57.6V290m0-57.6h57.6M577 290h57.6m0-57.6V290m0-57.6h57.6M634.6 290h57.6m0-57.6V290m0-57.6h57.6M692.2 290h57.6m0-57.6V290m0-57.6h57.6M749.8 290h57.6m0-57.6V290m0-57.6H865M807.4 290H865m0-57.6V290m0-57.6h57.6M865 290h57.6m0-57.6V290m0-57.6h57.6M922.6 290h57.6m0-57.6V290m0-57.6h57.6M980.2 290h57.6m0-57.6V290m0-57.6h57.6m-57.6 57.6h57.6m0-57.6V290m0-57.6h57.6m-57.6 57.6h57.6m0-57.6V290m0-57.6h57.6M1153 290h57.6m0-57.6V290m0-57.6h57.6m-57.6 57.6h57.6m0-57.6V290m0-57.6h57.6m-57.6 57.6h57.6m0-57.6V290m0-57.6h57.6m-57.6 57.6h57.6m0-57.6V290m0-57.6h57.6V290h-57.6m-1324.8.2H1v57.6h57.6m0-57.6v57.6m0-57.6h57.6m-57.6 57.6h57.6m0-57.6v57.6m0-57.6h57.6m-57.6 57.6h57.6m0-57.6v57.6m0-57.6h57.6m-57.6 57.6h57.6m0-57.6v57.6m0-57.6H289m-57.6 57.6H289m0-57.6v57.6m0-57.6h57.6M289 347.8h57.6m0-57.6v57.6m0-57.6h57.6m-57.6 57.6h57.6m0-57.6v57.6m0-57.6h57.6m-57.6 57.6h57.6m0-57.6v57.6m0-57.6h57.6m-57.6 57.6h57.6m0-57.6v57.6m0-57.6H577m-57.6 57.6H577m0-57.6v57.6m0-57.6h57.6M577 347.8h57.6m0-57.6v57.6m0-57.6h57.6m-57.6 57.6h57.6m0-57.6v57.6m0-57.6h57.6m-57.6 57.6h57.6m0-57.6v57.6m0-57.6h57.6m-57.6 57.6h57.6m0-57.6v57.6m0-57.6H865m-57.6 57.6H865m0-57.6v57.6m0-57.6h57.6M865 347.8h57.6m0-57.6v57.6m0-57.6h57.6m-57.6 57.6h57.6m0-57.6v57.6m0-57.6h57.6m-57.6 57.6h57.6m0-57.6v57.6m0-57.6h57.6m-57.6 57.6h57.6m0-57.6v57.6m0-57.6h57.6m-57.6 57.6h57.6m0-57.6v57.6m0-57.6h57.6m-57.6 57.6h57.6m0-57.6v57.6m0-57.6h57.6m-57.6 57.6h57.6m0-57.6v57.6m0-57.6h57.6m-57.6 57.6h57.6m0-57.6v57.6m0-57.6h57.6m-57.6 57.6h57.6m0-57.6v57.6m0-57.6h57.6v57.6h-57.6M58.6 348H1v57.6h57.6m0-57.6v57.6m0-57.6h57.6m-57.6 57.6h57.6m0-57.6v57.6m0-57.6h57.6m-57.6 57.6h57.6m0-57.6v57.6m0-57.6h57.6m-57.6 57.6h57.6m0-57.6v57.6m0-57.6H289m-57.6 57.6H289m0-57.6v57.6m0-57.6h57.6M289 405.6h57.6m0-57.6v57.6m0-57.6h57.6m-57.6 57.6h57.6m0-57.6v57.6m0-57.6h57.6m-57.6 57.6h57.6m0-57.6v57.6m0-57.6h57.6m-57.6 57.6h57.6m0-57.6v57.6m0-57.6H577m-57.6 57.6H577m0-57.6v57.6m0-57.6h57.6M577 405.6h57.6m0-57.6v57.6m0-57.6h57.6m-57.6 57.6h57.6m0-57.6v57.6m0-57.6h57.6m-57.6 57.6h57.6m0-57.6v57.6m0-57.6h57.6m-57.6 57.6h57.6m0-57.6v57.6m0-57.6H865m-57.6 57.6H865m0-57.6v57.6m0-57.6h57.6M865 405.6h57.6m0-57.6v57.6m0-57.6h57.6m-57.6 57.6h57.6m0-57.6v57.6m0-57.6h57.6m-57.6 57.6h57.6m0-57.6v57.6m0-57.6h57.6m-57.6 57.6h57.6m0-57.6v57.6m0-57.6h57.6m-57.6 57.6h57.6m0-57.6v57.6m0-57.6h57.6m-57.6 57.6h57.6m0-57.6v57.6m0-57.6h57.6m-57.6 57.6h57.6m0-57.6v57.6m0-57.6h57.6m-57.6 57.6h57.6m0-57.6v57.6m0-57.6h57.6m-57.6 57.6h57.6m0-57.6v57.6m0-57.6h57.6v57.6h-57.6m-1324.8.2H1v57.6h57.6m0-57.6v57.6m0-57.6h57.6m-57.6 57.6h57.6m0-57.6v57.6m0-57.6h57.6m-57.6 57.6h57.6m0-57.6v57.6m0-57.6h57.6m-57.6 57.6h57.6m0-57.6v57.6m0-57.6H289m-57.6 57.6H289m0-57.6v57.6m0-57.6h57.6M289 463.4h57.6m0-57.6v57.6m0-57.6h57.6m-57.6 57.6h57.6m0-57.6v57.6m0-57.6h57.6m-57.6 57.6h57.6m0-57.6v57.6m0-57.6h57.6m-57.6 57.6h57.6m0-57.6v57.6m0-57.6H577m-57.6 57.6H577m0-57.6v57.6m0-57.6h57.6M577 463.4h57.6m0-57.6v57.6m0-57.6h57.6m-57.6 57.6h57.6m0-57.6v57.6m0-57.6h57.6m-57.6 57.6h57.6m0-57.6v57.6m0-57.6h57.6m-57.6 57.6h57.6m0-57.6v57.6m0-57.6H865m-57.6 57.6H865m0-57.6v57.6m0-57.6h57.6M865 463.4h57.6m0-57.6v57.6m0-57.6h57.6m-57.6 57.6h57.6m0-57.6v57.6m0-57.6h57.6m-57.6 57.6h57.6m0-57.6v57.6m0-57.6h57.6m-57.6 57.6h57.6m0-57.6v57.6m0-57.6h57.6m-57.6 57.6h57.6m0-57.6v57.6m0-57.6h57.6m-57.6 57.6h57.6m0-57.6v57.6m0-57.6h57.6m-57.6 57.6h57.6m0-57.6v57.6m0-57.6h57.6m-57.6 57.6h57.6m0-57.6v57.6m0-57.6h57.6m-57.6 57.6h57.6m0-57.6v57.6m0-57.6h57.6v57.6h-57.6m-1324.8.2H1v57.6h57.6m0-57.6v57.6m0-57.6h57.6m-57.6 57.6h57.6m0-57.6v57.6m0-57.6h57.6m-57.6 57.6h57.6m0-57.6v57.6m0-57.6h57.6m-57.6 57.6h57.6m0-57.6v57.6m0-57.6H289m-57.6 57.6H289m0-57.6v57.6m0-57.6h57.6M289 521.2h57.6m0-57.6v57.6m0-57.6h57.6m-57.6 57.6h57.6m0-57.6v57.6m0-57.6h57.6m-57.6 57.6h57.6m0-57.6v57.6m0-57.6h57.6m-57.6 57.6h57.6m0-57.6v57.6m0-57.6H577m-57.6 57.6H577m0-57.6v57.6m0-57.6h57.6M577 521.2h57.6m0-57.6v57.6m0-57.6h57.6m-57.6 57.6h57.6m0-57.6v57.6m0-57.6h57.6m-57.6 57.6h57.6m0-57.6v57.6m0-57.6h57.6m-57.6 57.6h57.6m0-57.6v57.6m0-57.6H865m-57.6 57.6H865m0-57.6v57.6m0-57.6h57.6M865 521.2h57.6m0-57.6v57.6m0-57.6h57.6m-57.6 57.6h57.6m0-57.6v57.6m0-57.6h57.6m-57.6 57.6h57.6m0-57.6v57.6m0-57.6h57.6m-57.6 57.6h57.6m0-57.6v57.6m0-57.6h57.6m-57.6 57.6h57.6m0-57.6v57.6m0-57.6h57.6m-57.6 57.6h57.6m0-57.6v57.6m0-57.6h57.6m-57.6 57.6h57.6m0-57.6v57.6m0-57.6h57.6m-57.6 57.6h57.6m0-57.6v57.6m0-57.6h57.6m-57.6 57.6h57.6m0-57.6v57.6m0-57.6h57.6v57.6h-57.6m-1324.8.2H1V579h57.6m0-57.6V579m0-57.6h57.6M58.6 579h57.6m0-57.6V579m0-57.6h57.6M116.2 579h57.6m0-57.6V579m0-57.6h57.6M173.8 579h57.6m0-57.6V579m0-57.6H289M231.4 579H289m0-57.6V579m0-57.6h57.6M289 579h57.6m0-57.6V579m0-57.6h57.6M346.6 579h57.6m0-57.6V579m0-57.6h57.6M404.2 579h57.6m0-57.6V579m0-57.6h57.6M461.8 579h57.6m0-57.6V579m0-57.6H577M519.4 579H577m0-57.6V579m0-57.6h57.6M577 579h57.6m0-57.6V579m0-57.6h57.6M634.6 579h57.6m0-57.6V579m0-57.6h57.6M692.2 579h57.6m0-57.6V579m0-57.6h57.6M749.8 579h57.6m0-57.6V579m0-57.6H865M807.4 579H865m0-57.6V579m0-57.6h57.6M865 579h57.6m0-57.6V579m0-57.6h57.6M922.6 579h57.6m0-57.6V579m0-57.6h57.6M980.2 579h57.6m0-57.6V579m0-57.6h57.6m-57.6 57.6h57.6m0-57.6V579m0-57.6h57.6m-57.6 57.6h57.6m0-57.6V579m0-57.6h57.6M1153 579h57.6m0-57.6V579m0-57.6h57.6m-57.6 57.6h57.6m0-57.6V579m0-57.6h57.6m-57.6 57.6h57.6m0-57.6V579m0-57.6h57.6m-57.6 57.6h57.6m0-57.6V579m0-57.6h57.6V579h-57.6m-1324.8.2H1v57.6h57.6m0-57.6v57.6m0-57.6h57.6m-57.6 57.6h57.6m0-57.6v57.6m0-57.6h57.6m-57.6 57.6h57.6m0-57.6v57.6m0-57.6h57.6m-57.6 57.6h57.6m0-57.6v57.6m0-57.6H289m-57.6 57.6H289m0-57.6v57.6m0-57.6h57.6M289 636.8h57.6m0-57.6v57.6m0-57.6h57.6m-57.6 57.6h57.6m0-57.6v57.6m0-57.6h57.6m-57.6 57.6h57.6m0-57.6v57.6m0-57.6h57.6m-57.6 57.6h57.6m0-57.6v57.6m0-57.6H577m-57.6 57.6H577m0-57.6v57.6m0-57.6h57.6M577 636.8h57.6m0-57.6v57.6m0-57.6h57.6m-57.6 57.6h57.6m0-57.6v57.6m0-57.6h57.6m-57.6 57.6h57.6m0-57.6v57.6m0-57.6h57.6m-57.6 57.6h57.6m0-57.6v57.6m0-57.6H865m-57.6 57.6H865m0-57.6v57.6m0-57.6h57.6M865 636.8h57.6m0-57.6v57.6m0-57.6h57.6m-57.6 57.6h57.6m0-57.6v57.6m0-57.6h57.6m-57.6 57.6h57.6m0-57.6v57.6m0-57.6h57.6m-57.6 57.6h57.6m0-57.6v57.6m0-57.6h57.6m-57.6 57.6h57.6m0-57.6v57.6m0-57.6h57.6m-57.6 57.6h57.6m0-57.6v57.6m0-57.6h57.6m-57.6 57.6h57.6m0-57.6v57.6m0-57.6h57.6m-57.6 57.6h57.6m0-57.6v57.6m0-57.6h57.6m-57.6 57.6h57.6m0-57.6v57.6m0-57.6h57.6v57.6h-57.6M58.6 637H1v57.6h57.6m0-57.6v57.6m0-57.6h57.6m-57.6 57.6h57.6m0-57.6v57.6m0-57.6h57.6m-57.6 57.6h57.6m0-57.6v57.6m0-57.6h57.6m-57.6 57.6h57.6m0-57.6v57.6m0-57.6H289m-57.6 57.6H289m0-57.6v57.6m0-57.6h57.6M289 694.6h57.6m0-57.6v57.6m0-57.6h57.6m-57.6 57.6h57.6m0-57.6v57.6m0-57.6h57.6m-57.6 57.6h57.6m0-57.6v57.6m0-57.6h57.6m-57.6 57.6h57.6m0-57.6v57.6m0-57.6H577m-57.6 57.6H577m0-57.6v57.6m0-57.6h57.6M577 694.6h57.6m0-57.6v57.6m0-57.6h57.6m-57.6 57.6h57.6m0-57.6v57.6m0-57.6h57.6m-57.6 57.6h57.6m0-57.6v57.6m0-57.6h57.6m-57.6 57.6h57.6m0-57.6v57.6m0-57.6H865m-57.6 57.6H865m0-57.6v57.6m0-57.6h57.6M865 694.6h57.6m0-57.6v57.6m0-57.6h57.6m-57.6 57.6h57.6m0-57.6v57.6m0-57.6h57.6m-57.6 57.6h57.6m0-57.6v57.6m0-57.6h57.6m-57.6 57.6h57.6m0-57.6v57.6m0-57.6h57.6m-57.6 57.6h57.6m0-57.6v57.6m0-57.6h57.6m-57.6 57.6h57.6m0-57.6v57.6m0-57.6h57.6m-57.6 57.6h57.6m0-57.6v57.6m0-57.6h57.6m-57.6 57.6h57.6m0-57.6v57.6m0-57.6h57.6m-57.6 57.6h57.6m0-57.6v57.6m0-57.6h57.6v57.6h-57.6m-1324.8.2H1v57.6h57.6m0-57.6v57.6m0-57.6h57.6m-57.6 57.6h57.6m0-57.6v57.6m0-57.6h57.6m-57.6 57.6h57.6m0-57.6v57.6m0-57.6h57.6m-57.6 57.6h57.6m0-57.6v57.6m0-57.6H289m-57.6 57.6H289m0-57.6v57.6m0-57.6h57.6M289 752.4h57.6m0-57.6v57.6m0-57.6h57.6m-57.6 57.6h57.6m0-57.6v57.6m0-57.6h57.6m-57.6 57.6h57.6m0-57.6v57.6m0-57.6h57.6m-57.6 57.6h57.6m0-57.6v57.6m0-57.6H577m-57.6 57.6H577m0-57.6v57.6m0-57.6h57.6M577 752.4h57.6m0-57.6v57.6m0-57.6h57.6m-57.6 57.6h57.6m0-57.6v57.6m0-57.6h57.6m-57.6 57.6h57.6m0-57.6v57.6m0-57.6h57.6m-57.6 57.6h57.6m0-57.6v57.6m0-57.6H865m-57.6 57.6H865m0-57.6v57.6m0-57.6h57.6M865 752.4h57.6m0-57.6v57.6m0-57.6h57.6m-57.6 57.6h57.6m0-57.6v57.6m0-57.6h57.6m-57.6 57.6h57.6m0-57.6v57.6m0-57.6h57.6m-57.6 57.6h57.6m0-57.6v57.6m0-57.6h57.6m-57.6 57.6h57.6m0-57.6v57.6m0-57.6h57.6m-57.6 57.6h57.6m0-57.6v57.6m0-57.6h57.6m-57.6 57.6h57.6m0-57.6v57.6m0-57.6h57.6m-57.6 57.6h57.6m0-57.6v57.6m0-57.6h57.6m-57.6 57.6h57.6m0-57.6v57.6m0-57.6h57.6v57.6h-57.6m-1324.8.2H1v57.6h57.6m0-57.6v57.6m0-57.6h57.6m-57.6 57.6h57.6m0-57.6v57.6m0-57.6h57.6m-57.6 57.6h57.6m0-57.6v57.6m0-57.6h57.6m-57.6 57.6h57.6m0-57.6v57.6m0-57.6H289m-57.6 57.6H289m0-57.6v57.6m0-57.6h57.6M289 810.2h57.6m0-57.6v57.6m0-57.6h57.6m-57.6 57.6h57.6m0-57.6v57.6m0-57.6h57.6m-57.6 57.6h57.6m0-57.6v57.6m0-57.6h57.6m-57.6 57.6h57.6m0-57.6v57.6m0-57.6H577m-57.6 57.6H577m0-57.6v57.6m0-57.6h57.6M577 810.2h57.6m0-57.6v57.6m0-57.6h57.6m-57.6 57.6h57.6m0-57.6v57.6m0-57.6h57.6m-57.6 57.6h57.6m0-57.6v57.6m0-57.6h57.6m-57.6 57.6h57.6m0-57.6v57.6m0-57.6H865m-57.6 57.6H865m0-57.6v57.6m0-57.6h57.6M865 810.2h57.6m0-57.6v57.6m0-57.6h57.6m-57.6 57.6h57.6m0-57.6v57.6m0-57.6h57.6m-57.6 57.6h57.6m0-57.6v57.6m0-57.6h57.6m-57.6 57.6h57.6m0-57.6v57.6m0-57.6h57.6m-57.6 57.6h57.6m0-57.6v57.6m0-57.6h57.6m-57.6 57.6h57.6m0-57.6v57.6m0-57.6h57.6m-57.6 57.6h57.6m0-57.6v57.6m0-57.6h57.6m-57.6 57.6h57.6m0-57.6v57.6m0-57.6h57.6m-57.6 57.6h57.6m0-57.6v57.6m0-57.6h57.6v57.6h-57.6m-1324.8.2H1V868h57.6m0-57.6V868m0-57.6h57.6M58.6 868h57.6m0-57.6V868m0-57.6h57.6M116.2 868h57.6m0-57.6V868m0-57.6h57.6M173.8 868h57.6m0-57.6V868m0-57.6H289M231.4 868H289m0-57.6V868m0-57.6h57.6M289 868h57.6m0-57.6V868m0-57.6h57.6M346.6 868h57.6m0-57.6V868m0-57.6h57.6M404.2 868h57.6m0-57.6V868m0-57.6h57.6M461.8 868h57.6m0-57.6V868m0-57.6H577M519.4 868H577m0-57.6V868m0-57.6h57.6M577 868h57.6m0-57.6V868m0-57.6h57.6M634.6 868h57.6m0-57.6V868m0-57.6h57.6M692.2 868h57.6m0-57.6V868m0-57.6h57.6M749.8 868h57.6m0-57.6V868m0-57.6H865M807.4 868H865m0-57.6V868m0-57.6h57.6M865 868h57.6m0-57.6V868m0-57.6h57.6M922.6 868h57.6m0-57.6V868m0-57.6h57.6M980.2 868h57.6m0-57.6V868m0-57.6h57.6m-57.6 57.6h57.6m0-57.6V868m0-57.6h57.6m-57.6 57.6h57.6m0-57.6V868m0-57.6h57.6M1153 868h57.6m0-57.6V868m0-57.6h57.6m-57.6 57.6h57.6m0-57.6V868m0-57.6h57.6m-57.6 57.6h57.6m0-57.6V868m0-57.6h57.6m-57.6 57.6h57.6m0-57.6V868m0-57.6h57.6V868h-57.6" stroke="#fff"/></svg>