<svg width="1442" height="869" viewBox="0 0 1442 869" fill="none" xmlns="http://www.w3.org/2000/svg">
<path opacity="0.25" d="M58.6 1.19995H1V58.7999H58.6M58.6 1.19995V58.7999M58.6 1.19995H116.2M58.6 58.7999H116.2M116.2 1.19995V58.7999M116.2 1.19995H173.8M116.2 58.7999H173.8M173.8 1.19995V58.7999M173.8 1.19995H231.4M173.8 58.7999H231.4M231.4 1.19995V58.7999M231.4 1.19995H289M231.4 58.7999H289M289 1.19995V58.7999M289 1.19995H346.6M289 58.7999H346.6M346.6 1.19995V58.7999M346.6 1.19995H404.2M346.6 58.7999H404.2M404.2 1.19995V58.7999M404.2 1.19995H461.8M404.2 58.7999H461.8M461.8 1.19995V58.7999M461.8 1.19995H519.4M461.8 58.7999H519.4M519.4 1.19995V58.7999M519.4 1.19995H577M519.4 58.7999H577M577 1.19995V58.7999M577 1.19995H634.6M577 58.7999H634.6M634.6 1.19995V58.7999M634.6 1.19995H692.2M634.6 58.7999H692.2M692.2 1.19995V58.7999M692.2 1.19995H749.8M692.2 58.7999H749.8M749.8 1.19995V58.7999M749.8 1.19995H807.4M749.8 58.7999H807.4M807.4 1.19995V58.7999M807.4 1.19995H865M807.4 58.7999H865M865 1.19995V58.7999M865 1.19995H922.6M865 58.7999H922.6M922.6 1.19995V58.7999M922.6 1.19995H980.2M922.6 58.7999H980.2M980.2 1.19995V58.7999M980.2 1.19995H1037.8M980.2 58.7999H1037.8M1037.8 1.19995V58.7999M1037.8 1.19995H1095.4M1037.8 58.7999H1095.4M1095.4 1.19995V58.7999M1095.4 1.19995H1153M1095.4 58.7999H1153M1153 1.19995V58.7999M1153 1.19995H1210.6M1153 58.7999H1210.6M1210.6 1.19995V58.7999M1210.6 1.19995H1268.2M1210.6 58.7999H1268.2M1268.2 1.19995V58.7999M1268.2 1.19995H1325.8M1268.2 58.7999H1325.8M1325.8 1.19995V58.7999M1325.8 1.19995H1383.4M1325.8 58.7999H1383.4M1383.4 1.19995V58.7999M1383.4 1.19995H1441V58.7999H1383.4M58.6 59H1V116.6H58.6M58.6 59V116.6M58.6 59H116.2M58.6 116.6H116.2M116.2 59V116.6M116.2 59H173.8M116.2 116.6H173.8M173.8 59V116.6M173.8 59H231.4M173.8 116.6H231.4M231.4 59V116.6M231.4 59H289M231.4 116.6H289M289 59V116.6M289 59H346.6M289 116.6H346.6M346.6 59V116.6M346.6 59H404.2M346.6 116.6H404.2M404.2 59V116.6M404.2 59H461.8M404.2 116.6H461.8M461.8 59V116.6M461.8 59H519.4M461.8 116.6H519.4M519.4 59V116.6M519.4 59H577M519.4 116.6H577M577 59V116.6M577 59H634.6M577 116.6H634.6M634.6 59V116.6M634.6 59H692.2M634.6 116.6H692.2M692.2 59V116.6M692.2 59H749.8M692.2 116.6H749.8M749.8 59V116.6M749.8 59H807.4M749.8 116.6H807.4M807.4 59V116.6M807.4 59H865M807.4 116.6H865M865 59V116.6M865 59H922.6M865 116.6H922.6M922.6 59V116.6M922.6 59H980.2M922.6 116.6H980.2M980.2 59V116.6M980.2 59H1037.8M980.2 116.6H1037.8M1037.8 59V116.6M1037.8 59H1095.4M1037.8 116.6H1095.4M1095.4 59V116.6M1095.4 59H1153M1095.4 116.6H1153M1153 59V116.6M1153 59H1210.6M1153 116.6H1210.6M1210.6 59V116.6M1210.6 59H1268.2M1210.6 116.6H1268.2M1268.2 59V116.6M1268.2 59H1325.8M1268.2 116.6H1325.8M1325.8 59V116.6M1325.8 59H1383.4M1325.8 116.6H1383.4M1383.4 59V116.6M1383.4 59H1441V116.6H1383.4M58.6 116.8H1V174.4H58.6M58.6 116.8V174.4M58.6 116.8H116.2M58.6 174.4H116.2M116.2 116.8V174.4M116.2 116.8H173.8M116.2 174.4H173.8M173.8 116.8V174.4M173.8 116.8H231.4M173.8 174.4H231.4M231.4 116.8V174.4M231.4 116.8H289M231.4 174.4H289M289 116.8V174.4M289 116.8H346.6M289 174.4H346.6M346.6 116.8V174.4M346.6 116.8H404.2M346.6 174.4H404.2M404.2 116.8V174.4M404.2 116.8H461.8M404.2 174.4H461.8M461.8 116.8V174.4M461.8 116.8H519.4M461.8 174.4H519.4M519.4 116.8V174.4M519.4 116.8H577M519.4 174.4H577M577 116.8V174.4M577 116.8H634.6M577 174.4H634.6M634.6 116.8V174.4M634.6 116.8H692.2M634.6 174.4H692.2M692.2 116.8V174.4M692.2 116.8H749.8M692.2 174.4H749.8M749.8 116.8V174.4M749.8 116.8H807.4M749.8 174.4H807.4M807.4 116.8V174.4M807.4 116.8H865M807.4 174.4H865M865 116.8V174.4M865 116.8H922.6M865 174.4H922.6M922.6 116.8V174.4M922.6 116.8H980.2M922.6 174.4H980.2M980.2 116.8V174.4M980.2 116.8H1037.8M980.2 174.4H1037.8M1037.8 116.8V174.4M1037.8 116.8H1095.4M1037.8 174.4H1095.4M1095.4 116.8V174.4M1095.4 116.8H1153M1095.4 174.4H1153M1153 116.8V174.4M1153 116.8H1210.6M1153 174.4H1210.6M1210.6 116.8V174.4M1210.6 116.8H1268.2M1210.6 174.4H1268.2M1268.2 116.8V174.4M1268.2 116.8H1325.8M1268.2 174.4H1325.8M1325.8 116.8V174.4M1325.8 116.8H1383.4M1325.8 174.4H1383.4M1383.4 116.8V174.4M1383.4 116.8H1441V174.4H1383.4M58.6 174.6H1V232.2H58.6M58.6 174.6V232.2M58.6 174.6H116.2M58.6 232.2H116.2M116.2 174.6V232.2M116.2 174.6H173.8M116.2 232.2H173.8M173.8 174.6V232.2M173.8 174.6H231.4M173.8 232.2H231.4M231.4 174.6V232.2M231.4 174.6H289M231.4 232.2H289M289 174.6V232.2M289 174.6H346.6M289 232.2H346.6M346.6 174.6V232.2M346.6 174.6H404.2M346.6 232.2H404.2M404.2 174.6V232.2M404.2 174.6H461.8M404.2 232.2H461.8M461.8 174.6V232.2M461.8 174.6H519.4M461.8 232.2H519.4M519.4 174.6V232.2M519.4 174.6H577M519.4 232.2H577M577 174.6V232.2M577 174.6H634.6M577 232.2H634.6M634.6 174.6V232.2M634.6 174.6H692.2M634.6 232.2H692.2M692.2 174.6V232.2M692.2 174.6H749.8M692.2 232.2H749.8M749.8 174.6V232.2M749.8 174.6H807.4M749.8 232.2H807.4M807.4 174.6V232.2M807.4 174.6H865M807.4 232.2H865M865 174.6V232.2M865 174.6H922.6M865 232.2H922.6M922.6 174.6V232.2M922.6 174.6H980.2M922.6 232.2H980.2M980.2 174.6V232.2M980.2 174.6H1037.8M980.2 232.2H1037.8M1037.8 174.6V232.2M1037.8 174.6H1095.4M1037.8 232.2H1095.4M1095.4 174.6V232.2M1095.4 174.6H1153M1095.4 232.2H1153M1153 174.6V232.2M1153 174.6H1210.6M1153 232.2H1210.6M1210.6 174.6V232.2M1210.6 174.6H1268.2M1210.6 232.2H1268.2M1268.2 174.6V232.2M1268.2 174.6H1325.8M1268.2 232.2H1325.8M1325.8 174.6V232.2M1325.8 174.6H1383.4M1325.8 232.2H1383.4M1383.4 174.6V232.2M1383.4 174.6H1441V232.2H1383.4M58.6 232.4H1V290H58.6M58.6 232.4V290M58.6 232.4H116.2M58.6 290H116.2M116.2 232.4V290M116.2 232.4H173.8M116.2 290H173.8M173.8 232.4V290M173.8 232.4H231.4M173.8 290H231.4M231.4 232.4V290M231.4 232.4H289M231.4 290H289M289 232.4V290M289 232.4H346.6M289 290H346.6M346.6 232.4V290M346.6 232.4H404.2M346.6 290H404.2M404.2 232.4V290M404.2 232.4H461.8M404.2 290H461.8M461.8 232.4V290M461.8 232.4H519.4M461.8 290H519.4M519.4 232.4V290M519.4 232.4H577M519.4 290H577M577 232.4V290M577 232.4H634.6M577 290H634.6M634.6 232.4V290M634.6 232.4H692.2M634.6 290H692.2M692.2 232.4V290M692.2 232.4H749.8M692.2 290H749.8M749.8 232.4V290M749.8 232.4H807.4M749.8 290H807.4M807.4 232.4V290M807.4 232.4H865M807.4 290H865M865 232.4V290M865 232.4H922.6M865 290H922.6M922.6 232.4V290M922.6 232.4H980.2M922.6 290H980.2M980.2 232.4V290M980.2 232.4H1037.8M980.2 290H1037.8M1037.8 232.4V290M1037.8 232.4H1095.4M1037.8 290H1095.4M1095.4 232.4V290M1095.4 232.4H1153M1095.4 290H1153M1153 232.4V290M1153 232.4H1210.6M1153 290H1210.6M1210.6 232.4V290M1210.6 232.4H1268.2M1210.6 290H1268.2M1268.2 232.4V290M1268.2 232.4H1325.8M1268.2 290H1325.8M1325.8 232.4V290M1325.8 232.4H1383.4M1325.8 290H1383.4M1383.4 232.4V290M1383.4 232.4H1441V290H1383.4M58.6 290.2H1V347.8H58.6M58.6 290.2V347.8M58.6 290.2H116.2M58.6 347.8H116.2M116.2 290.2V347.8M116.2 290.2H173.8M116.2 347.8H173.8M173.8 290.2V347.8M173.8 290.2H231.4M173.8 347.8H231.4M231.4 290.2V347.8M231.4 290.2H289M231.4 347.8H289M289 290.2V347.8M289 290.2H346.6M289 347.8H346.6M346.6 290.2V347.8M346.6 290.2H404.2M346.6 347.8H404.2M404.2 290.2V347.8M404.2 290.2H461.8M404.2 347.8H461.8M461.8 290.2V347.8M461.8 290.2H519.4M461.8 347.8H519.4M519.4 290.2V347.8M519.4 290.2H577M519.4 347.8H577M577 290.2V347.8M577 290.2H634.6M577 347.8H634.6M634.6 290.2V347.8M634.6 290.2H692.2M634.6 347.8H692.2M692.2 290.2V347.8M692.2 290.2H749.8M692.2 347.8H749.8M749.8 290.2V347.8M749.8 290.2H807.4M749.8 347.8H807.4M807.4 290.2V347.8M807.4 290.2H865M807.4 347.8H865M865 290.2V347.8M865 290.2H922.6M865 347.8H922.6M922.6 290.2V347.8M922.6 290.2H980.2M922.6 347.8H980.2M980.2 290.2V347.8M980.2 290.2H1037.8M980.2 347.8H1037.8M1037.8 290.2V347.8M1037.8 290.2H1095.4M1037.8 347.8H1095.4M1095.4 290.2V347.8M1095.4 290.2H1153M1095.4 347.8H1153M1153 290.2V347.8M1153 290.2H1210.6M1153 347.8H1210.6M1210.6 290.2V347.8M1210.6 290.2H1268.2M1210.6 347.8H1268.2M1268.2 290.2V347.8M1268.2 290.2H1325.8M1268.2 347.8H1325.8M1325.8 290.2V347.8M1325.8 290.2H1383.4M1325.8 347.8H1383.4M1383.4 290.2V347.8M1383.4 290.2H1441V347.8H1383.4M58.6 348H1V405.6H58.6M58.6 348V405.6M58.6 348H116.2M58.6 405.6H116.2M116.2 348V405.6M116.2 348H173.8M116.2 405.6H173.8M173.8 348V405.6M173.8 348H231.4M173.8 405.6H231.4M231.4 348V405.6M231.4 348H289M231.4 405.6H289M289 348V405.6M289 348H346.6M289 405.6H346.6M346.6 348V405.6M346.6 348H404.2M346.6 405.6H404.2M404.2 348V405.6M404.2 348H461.8M404.2 405.6H461.8M461.8 348V405.6M461.8 348H519.4M461.8 405.6H519.4M519.4 348V405.6M519.4 348H577M519.4 405.6H577M577 348V405.6M577 348H634.6M577 405.6H634.6M634.6 348V405.6M634.6 348H692.2M634.6 405.6H692.2M692.2 348V405.6M692.2 348H749.8M692.2 405.6H749.8M749.8 348V405.6M749.8 348H807.4M749.8 405.6H807.4M807.4 348V405.6M807.4 348H865M807.4 405.6H865M865 348V405.6M865 348H922.6M865 405.6H922.6M922.6 348V405.6M922.6 348H980.2M922.6 405.6H980.2M980.2 348V405.6M980.2 348H1037.8M980.2 405.6H1037.8M1037.8 348V405.6M1037.8 348H1095.4M1037.8 405.6H1095.4M1095.4 348V405.6M1095.4 348H1153M1095.4 405.6H1153M1153 348V405.6M1153 348H1210.6M1153 405.6H1210.6M1210.6 348V405.6M1210.6 348H1268.2M1210.6 405.6H1268.2M1268.2 348V405.6M1268.2 348H1325.8M1268.2 405.6H1325.8M1325.8 348V405.6M1325.8 348H1383.4M1325.8 405.6H1383.4M1383.4 348V405.6M1383.4 348H1441V405.6H1383.4M58.6 405.8H1V463.4H58.6M58.6 405.8V463.4M58.6 405.8H116.2M58.6 463.4H116.2M116.2 405.8V463.4M116.2 405.8H173.8M116.2 463.4H173.8M173.8 405.8V463.4M173.8 405.8H231.4M173.8 463.4H231.4M231.4 405.8V463.4M231.4 405.8H289M231.4 463.4H289M289 405.8V463.4M289 405.8H346.6M289 463.4H346.6M346.6 405.8V463.4M346.6 405.8H404.2M346.6 463.4H404.2M404.2 405.8V463.4M404.2 405.8H461.8M404.2 463.4H461.8M461.8 405.8V463.4M461.8 405.8H519.4M461.8 463.4H519.4M519.4 405.8V463.4M519.4 405.8H577M519.4 463.4H577M577 405.8V463.4M577 405.8H634.6M577 463.4H634.6M634.6 405.8V463.4M634.6 405.8H692.2M634.6 463.4H692.2M692.2 405.8V463.4M692.2 405.8H749.8M692.2 463.4H749.8M749.8 405.8V463.4M749.8 405.8H807.4M749.8 463.4H807.4M807.4 405.8V463.4M807.4 405.8H865M807.4 463.4H865M865 405.8V463.4M865 405.8H922.6M865 463.4H922.6M922.6 405.8V463.4M922.6 405.8H980.2M922.6 463.4H980.2M980.2 405.8V463.4M980.2 405.8H1037.8M980.2 463.4H1037.8M1037.8 405.8V463.4M1037.8 405.8H1095.4M1037.8 463.4H1095.4M1095.4 405.8V463.4M1095.4 405.8H1153M1095.4 463.4H1153M1153 405.8V463.4M1153 405.8H1210.6M1153 463.4H1210.6M1210.6 405.8V463.4M1210.6 405.8H1268.2M1210.6 463.4H1268.2M1268.2 405.8V463.4M1268.2 405.8H1325.8M1268.2 463.4H1325.8M1325.8 405.8V463.4M1325.8 405.8H1383.4M1325.8 463.4H1383.4M1383.4 405.8V463.4M1383.4 405.8H1441V463.4H1383.4M58.6 463.6H1V521.2H58.6M58.6 463.6V521.2M58.6 463.6H116.2M58.6 521.2H116.2M116.2 463.6V521.2M116.2 463.6H173.8M116.2 521.2H173.8M173.8 463.6V521.2M173.8 463.6H231.4M173.8 521.2H231.4M231.4 463.6V521.2M231.4 463.6H289M231.4 521.2H289M289 463.6V521.2M289 463.6H346.6M289 521.2H346.6M346.6 463.6V521.2M346.6 463.6H404.2M346.6 521.2H404.2M404.2 463.6V521.2M404.2 463.6H461.8M404.2 521.2H461.8M461.8 463.6V521.2M461.8 463.6H519.4M461.8 521.2H519.4M519.4 463.6V521.2M519.4 463.6H577M519.4 521.2H577M577 463.6V521.2M577 463.6H634.6M577 521.2H634.6M634.6 463.6V521.2M634.6 463.6H692.2M634.6 521.2H692.2M692.2 463.6V521.2M692.2 463.6H749.8M692.2 521.2H749.8M749.8 463.6V521.2M749.8 463.6H807.4M749.8 521.2H807.4M807.4 463.6V521.2M807.4 463.6H865M807.4 521.2H865M865 463.6V521.2M865 463.6H922.6M865 521.2H922.6M922.6 463.6V521.2M922.6 463.6H980.2M922.6 521.2H980.2M980.2 463.6V521.2M980.2 463.6H1037.8M980.2 521.2H1037.8M1037.8 463.6V521.2M1037.8 463.6H1095.4M1037.8 521.2H1095.4M1095.4 463.6V521.2M1095.4 463.6H1153M1095.4 521.2H1153M1153 463.6V521.2M1153 463.6H1210.6M1153 521.2H1210.6M1210.6 463.6V521.2M1210.6 463.6H1268.2M1210.6 521.2H1268.2M1268.2 463.6V521.2M1268.2 463.6H1325.8M1268.2 521.2H1325.8M1325.8 463.6V521.2M1325.8 463.6H1383.4M1325.8 521.2H1383.4M1383.4 463.6V521.2M1383.4 463.6H1441V521.2H1383.4M58.6 521.4H1V579H58.6M58.6 521.4V579M58.6 521.4H116.2M58.6 579H116.2M116.2 521.4V579M116.2 521.4H173.8M116.2 579H173.8M173.8 521.4V579M173.8 521.4H231.4M173.8 579H231.4M231.4 521.4V579M231.4 521.4H289M231.4 579H289M289 521.4V579M289 521.4H346.6M289 579H346.6M346.6 521.4V579M346.6 521.4H404.2M346.6 579H404.2M404.2 521.4V579M404.2 521.4H461.8M404.2 579H461.8M461.8 521.4V579M461.8 521.4H519.4M461.8 579H519.4M519.4 521.4V579M519.4 521.4H577M519.4 579H577M577 521.4V579M577 521.4H634.6M577 579H634.6M634.6 521.4V579M634.6 521.4H692.2M634.6 579H692.2M692.2 521.4V579M692.2 521.4H749.8M692.2 579H749.8M749.8 521.4V579M749.8 521.4H807.4M749.8 579H807.4M807.4 521.4V579M807.4 521.4H865M807.4 579H865M865 521.4V579M865 521.4H922.6M865 579H922.6M922.6 521.4V579M922.6 521.4H980.2M922.6 579H980.2M980.2 521.4V579M980.2 521.4H1037.8M980.2 579H1037.8M1037.8 521.4V579M1037.8 521.4H1095.4M1037.8 579H1095.4M1095.4 521.4V579M1095.4 521.4H1153M1095.4 579H1153M1153 521.4V579M1153 521.4H1210.6M1153 579H1210.6M1210.6 521.4V579M1210.6 521.4H1268.2M1210.6 579H1268.2M1268.2 521.4V579M1268.2 521.4H1325.8M1268.2 579H1325.8M1325.8 521.4V579M1325.8 521.4H1383.4M1325.8 579H1383.4M1383.4 521.4V579M1383.4 521.4H1441V579H1383.4M58.6 579.2H1V636.8H58.6M58.6 579.2V636.8M58.6 579.2H116.2M58.6 636.8H116.2M116.2 579.2V636.8M116.2 579.2H173.8M116.2 636.8H173.8M173.8 579.2V636.8M173.8 579.2H231.4M173.8 636.8H231.4M231.4 579.2V636.8M231.4 579.2H289M231.4 636.8H289M289 579.2V636.8M289 579.2H346.6M289 636.8H346.6M346.6 579.2V636.8M346.6 579.2H404.2M346.6 636.8H404.2M404.2 579.2V636.8M404.2 579.2H461.8M404.2 636.8H461.8M461.8 579.2V636.8M461.8 579.2H519.4M461.8 636.8H519.4M519.4 579.2V636.8M519.4 579.2H577M519.4 636.8H577M577 579.2V636.8M577 579.2H634.6M577 636.8H634.6M634.6 579.2V636.8M634.6 579.2H692.2M634.6 636.8H692.2M692.2 579.2V636.8M692.2 579.2H749.8M692.2 636.8H749.8M749.8 579.2V636.8M749.8 579.2H807.4M749.8 636.8H807.4M807.4 579.2V636.8M807.4 579.2H865M807.4 636.8H865M865 579.2V636.8M865 579.2H922.6M865 636.8H922.6M922.6 579.2V636.8M922.6 579.2H980.2M922.6 636.8H980.2M980.2 579.2V636.8M980.2 579.2H1037.8M980.2 636.8H1037.8M1037.8 579.2V636.8M1037.8 579.2H1095.4M1037.8 636.8H1095.4M1095.4 579.2V636.8M1095.4 579.2H1153M1095.4 636.8H1153M1153 579.2V636.8M1153 579.2H1210.6M1153 636.8H1210.6M1210.6 579.2V636.8M1210.6 579.2H1268.2M1210.6 636.8H1268.2M1268.2 579.2V636.8M1268.2 579.2H1325.8M1268.2 636.8H1325.8M1325.8 579.2V636.8M1325.8 579.2H1383.4M1325.8 636.8H1383.4M1383.4 579.2V636.8M1383.4 579.2H1441V636.8H1383.4M58.6 637H1V694.6H58.6M58.6 637V694.6M58.6 637H116.2M58.6 694.6H116.2M116.2 637V694.6M116.2 637H173.8M116.2 694.6H173.8M173.8 637V694.6M173.8 637H231.4M173.8 694.6H231.4M231.4 637V694.6M231.4 637H289M231.4 694.6H289M289 637V694.6M289 637H346.6M289 694.6H346.6M346.6 637V694.6M346.6 637H404.2M346.6 694.6H404.2M404.2 637V694.6M404.2 637H461.8M404.2 694.6H461.8M461.8 637V694.6M461.8 637H519.4M461.8 694.6H519.4M519.4 637V694.6M519.4 637H577M519.4 694.6H577M577 637V694.6M577 637H634.6M577 694.6H634.6M634.6 637V694.6M634.6 637H692.2M634.6 694.6H692.2M692.2 637V694.6M692.2 637H749.8M692.2 694.6H749.8M749.8 637V694.6M749.8 637H807.4M749.8 694.6H807.4M807.4 637V694.6M807.4 637H865M807.4 694.6H865M865 637V694.6M865 637H922.6M865 694.6H922.6M922.6 637V694.6M922.6 637H980.2M922.6 694.6H980.2M980.2 637V694.6M980.2 637H1037.8M980.2 694.6H1037.8M1037.8 637V694.6M1037.8 637H1095.4M1037.8 694.6H1095.4M1095.4 637V694.6M1095.4 637H1153M1095.4 694.6H1153M1153 637V694.6M1153 637H1210.6M1153 694.6H1210.6M1210.6 637V694.6M1210.6 637H1268.2M1210.6 694.6H1268.2M1268.2 637V694.6M1268.2 637H1325.8M1268.2 694.6H1325.8M1325.8 637V694.6M1325.8 637H1383.4M1325.8 694.6H1383.4M1383.4 637V694.6M1383.4 637H1441V694.6H1383.4M58.6 694.8H1V752.4H58.6M58.6 694.8V752.4M58.6 694.8H116.2M58.6 752.4H116.2M116.2 694.8V752.4M116.2 694.8H173.8M116.2 752.4H173.8M173.8 694.8V752.4M173.8 694.8H231.4M173.8 752.4H231.4M231.4 694.8V752.4M231.4 694.8H289M231.4 752.4H289M289 694.8V752.4M289 694.8H346.6M289 752.4H346.6M346.6 694.8V752.4M346.6 694.8H404.2M346.6 752.4H404.2M404.2 694.8V752.4M404.2 694.8H461.8M404.2 752.4H461.8M461.8 694.8V752.4M461.8 694.8H519.4M461.8 752.4H519.4M519.4 694.8V752.4M519.4 694.8H577M519.4 752.4H577M577 694.8V752.4M577 694.8H634.6M577 752.4H634.6M634.6 694.8V752.4M634.6 694.8H692.2M634.6 752.4H692.2M692.2 694.8V752.4M692.2 694.8H749.8M692.2 752.4H749.8M749.8 694.8V752.4M749.8 694.8H807.4M749.8 752.4H807.4M807.4 694.8V752.4M807.4 694.8H865M807.4 752.4H865M865 694.8V752.4M865 694.8H922.6M865 752.4H922.6M922.6 694.8V752.4M922.6 694.8H980.2M922.6 752.4H980.2M980.2 694.8V752.4M980.2 694.8H1037.8M980.2 752.4H1037.8M1037.8 694.8V752.4M1037.8 694.8H1095.4M1037.8 752.4H1095.4M1095.4 694.8V752.4M1095.4 694.8H1153M1095.4 752.4H1153M1153 694.8V752.4M1153 694.8H1210.6M1153 752.4H1210.6M1210.6 694.8V752.4M1210.6 694.8H1268.2M1210.6 752.4H1268.2M1268.2 694.8V752.4M1268.2 694.8H1325.8M1268.2 752.4H1325.8M1325.8 694.8V752.4M1325.8 694.8H1383.4M1325.8 752.4H1383.4M1383.4 694.8V752.4M1383.4 694.8H1441V752.4H1383.4M58.6 752.6H1V810.2H58.6M58.6 752.6V810.2M58.6 752.6H116.2M58.6 810.2H116.2M116.2 752.6V810.2M116.2 752.6H173.8M116.2 810.2H173.8M173.8 752.6V810.2M173.8 752.6H231.4M173.8 810.2H231.4M231.4 752.6V810.2M231.4 752.6H289M231.4 810.2H289M289 752.6V810.2M289 752.6H346.6M289 810.2H346.6M346.6 752.6V810.2M346.6 752.6H404.2M346.6 810.2H404.2M404.2 752.6V810.2M404.2 752.6H461.8M404.2 810.2H461.8M461.8 752.6V810.2M461.8 752.6H519.4M461.8 810.2H519.4M519.4 752.6V810.2M519.4 752.6H577M519.4 810.2H577M577 752.6V810.2M577 752.6H634.6M577 810.2H634.6M634.6 752.6V810.2M634.6 752.6H692.2M634.6 810.2H692.2M692.2 752.6V810.2M692.2 752.6H749.8M692.2 810.2H749.8M749.8 752.6V810.2M749.8 752.6H807.4M749.8 810.2H807.4M807.4 752.6V810.2M807.4 752.6H865M807.4 810.2H865M865 752.6V810.2M865 752.6H922.6M865 810.2H922.6M922.6 752.6V810.2M922.6 752.6H980.2M922.6 810.2H980.2M980.2 752.6V810.2M980.2 752.6H1037.8M980.2 810.2H1037.8M1037.8 752.6V810.2M1037.8 752.6H1095.4M1037.8 810.2H1095.4M1095.4 752.6V810.2M1095.4 752.6H1153M1095.4 810.2H1153M1153 752.6V810.2M1153 752.6H1210.6M1153 810.2H1210.6M1210.6 752.6V810.2M1210.6 752.6H1268.2M1210.6 810.2H1268.2M1268.2 752.6V810.2M1268.2 752.6H1325.8M1268.2 810.2H1325.8M1325.8 752.6V810.2M1325.8 752.6H1383.4M1325.8 810.2H1383.4M1383.4 752.6V810.2M1383.4 752.6H1441V810.2H1383.4M58.6 810.4H1V868H58.6M58.6 810.4V868M58.6 810.4H116.2M58.6 868H116.2M116.2 810.4V868M116.2 810.4H173.8M116.2 868H173.8M173.8 810.4V868M173.8 810.4H231.4M173.8 868H231.4M231.4 810.4V868M231.4 810.4H289M231.4 868H289M289 810.4V868M289 810.4H346.6M289 868H346.6M346.6 810.4V868M346.6 810.4H404.2M346.6 868H404.2M404.2 810.4V868M404.2 810.4H461.8M404.2 868H461.8M461.8 810.4V868M461.8 810.4H519.4M461.8 868H519.4M519.4 810.4V868M519.4 810.4H577M519.4 868H577M577 810.4V868M577 810.4H634.6M577 868H634.6M634.6 810.4V868M634.6 810.4H692.2M634.6 868H692.2M692.2 810.4V868M692.2 810.4H749.8M692.2 868H749.8M749.8 810.4V868M749.8 810.4H807.4M749.8 868H807.4M807.4 810.4V868M807.4 810.4H865M807.4 868H865M865 810.4V868M865 810.4H922.6M865 868H922.6M922.6 810.4V868M922.6 810.4H980.2M922.6 868H980.2M980.2 810.4V868M980.2 810.4H1037.8M980.2 868H1037.8M1037.8 810.4V868M1037.8 810.4H1095.4M1037.8 868H1095.4M1095.4 810.4V868M1095.4 810.4H1153M1095.4 868H1153M1153 810.4V868M1153 810.4H1210.6M1153 868H1210.6M1210.6 810.4V868M1210.6 810.4H1268.2M1210.6 868H1268.2M1268.2 810.4V868M1268.2 810.4H1325.8M1268.2 868H1325.8M1325.8 810.4V868M1325.8 810.4H1383.4M1325.8 868H1383.4M1383.4 810.4V868M1383.4 810.4H1441V868H1383.4" stroke="white"></path>
</svg>
