<svg width="1440" height="867" viewBox="0 0 1440 867" fill="none" xmlns="http://www.w3.org/2000/svg">
<path opacity="0.25" d="M57.6 -0.799988H0V56.8H57.6M57.6 -0.799988V56.8M57.6 -0.799988H115.2M57.6 56.8H115.2M115.2 -0.799988V56.8M115.2 -0.799988H172.8M115.2 56.8H172.8M172.8 -0.799988V56.8M172.8 -0.799988H230.4M172.8 56.8H230.4M230.4 -0.799988V56.8M230.4 -0.799988H288M230.4 56.8H288M288 -0.799988V56.8M288 -0.799988H345.6M288 56.8H345.6M345.6 -0.799988V56.8M345.6 -0.799988H403.2M345.6 56.8H403.2M403.2 -0.799988V56.8M403.2 -0.799988H460.8M403.2 56.8H460.8M460.8 -0.799988V56.8M460.8 -0.799988H518.4M460.8 56.8H518.4M518.4 -0.799988V56.8M518.4 -0.799988H576M518.4 56.8H576M576 -0.799988V56.8M576 -0.799988H633.6M576 56.8H633.6M633.6 -0.799988V56.8M633.6 -0.799988H691.2M633.6 56.8H691.2M691.2 -0.799988V56.8M691.2 -0.799988H748.8M691.2 56.8H748.8M748.8 -0.799988V56.8M748.8 -0.799988H806.4M748.8 56.8H806.4M806.4 -0.799988V56.8M806.4 -0.799988H864M806.4 56.8H864M864 -0.799988V56.8M864 -0.799988H921.6M864 56.8H921.6M921.6 -0.799988V56.8M921.6 -0.799988H979.2M921.6 56.8H979.2M979.2 -0.799988V56.8M979.2 -0.799988H1036.8M979.2 56.8H1036.8M1036.8 -0.799988V56.8M1036.8 -0.799988H1094.4M1036.8 56.8H1094.4M1094.4 -0.799988V56.8M1094.4 -0.799988H1152M1094.4 56.8H1152M1152 -0.799988V56.8M1152 -0.799988H1209.6M1152 56.8H1209.6M1209.6 -0.799988V56.8M1209.6 -0.799988H1267.2M1209.6 56.8H1267.2M1267.2 -0.799988V56.8M1267.2 -0.799988H1324.8M1267.2 56.8H1324.8M1324.8 -0.799988V56.8M1324.8 -0.799988H1382.4M1324.8 56.8H1382.4M1382.4 -0.799988V56.8M1382.4 -0.799988H1440V56.8H1382.4M57.6 57H0V114.6H57.6M57.6 57V114.6M57.6 57H115.2M57.6 114.6H115.2M115.2 57V114.6M115.2 57H172.8M115.2 114.6H172.8M172.8 57V114.6M172.8 57H230.4M172.8 114.6H230.4M230.4 57V114.6M230.4 57H288M230.4 114.6H288M288 57V114.6M288 57H345.6M288 114.6H345.6M345.6 57V114.6M345.6 57H403.2M345.6 114.6H403.2M403.2 57V114.6M403.2 57H460.8M403.2 114.6H460.8M460.8 57V114.6M460.8 57H518.4M460.8 114.6H518.4M518.4 57V114.6M518.4 57H576M518.4 114.6H576M576 57V114.6M576 57H633.6M576 114.6H633.6M633.6 57V114.6M633.6 57H691.2M633.6 114.6H691.2M691.2 57V114.6M691.2 57H748.8M691.2 114.6H748.8M748.8 57V114.6M748.8 57H806.4M748.8 114.6H806.4M806.4 57V114.6M806.4 57H864M806.4 114.6H864M864 57V114.6M864 57H921.6M864 114.6H921.6M921.6 57V114.6M921.6 57H979.2M921.6 114.6H979.2M979.2 57V114.6M979.2 57H1036.8M979.2 114.6H1036.8M1036.8 57V114.6M1036.8 57H1094.4M1036.8 114.6H1094.4M1094.4 57V114.6M1094.4 57H1152M1094.4 114.6H1152M1152 57V114.6M1152 57H1209.6M1152 114.6H1209.6M1209.6 57V114.6M1209.6 57H1267.2M1209.6 114.6H1267.2M1267.2 57V114.6M1267.2 57H1324.8M1267.2 114.6H1324.8M1324.8 57V114.6M1324.8 57H1382.4M1324.8 114.6H1382.4M1382.4 57V114.6M1382.4 57H1440V114.6H1382.4M57.6 114.8H0V172.4H57.6M57.6 114.8V172.4M57.6 114.8H115.2M57.6 172.4H115.2M115.2 114.8V172.4M115.2 114.8H172.8M115.2 172.4H172.8M172.8 114.8V172.4M172.8 114.8H230.4M172.8 172.4H230.4M230.4 114.8V172.4M230.4 114.8H288M230.4 172.4H288M288 114.8V172.4M288 114.8H345.6M288 172.4H345.6M345.6 114.8V172.4M345.6 114.8H403.2M345.6 172.4H403.2M403.2 114.8V172.4M403.2 114.8H460.8M403.2 172.4H460.8M460.8 114.8V172.4M460.8 114.8H518.4M460.8 172.4H518.4M518.4 114.8V172.4M518.4 114.8H576M518.4 172.4H576M576 114.8V172.4M576 114.8H633.6M576 172.4H633.6M633.6 114.8V172.4M633.6 114.8H691.2M633.6 172.4H691.2M691.2 114.8V172.4M691.2 114.8H748.8M691.2 172.4H748.8M748.8 114.8V172.4M748.8 114.8H806.4M748.8 172.4H806.4M806.4 114.8V172.4M806.4 114.8H864M806.4 172.4H864M864 114.8V172.4M864 114.8H921.6M864 172.4H921.6M921.6 114.8V172.4M921.6 114.8H979.2M921.6 172.4H979.2M979.2 114.8V172.4M979.2 114.8H1036.8M979.2 172.4H1036.8M1036.8 114.8V172.4M1036.8 114.8H1094.4M1036.8 172.4H1094.4M1094.4 114.8V172.4M1094.4 114.8H1152M1094.4 172.4H1152M1152 114.8V172.4M1152 114.8H1209.6M1152 172.4H1209.6M1209.6 114.8V172.4M1209.6 114.8H1267.2M1209.6 172.4H1267.2M1267.2 114.8V172.4M1267.2 114.8H1324.8M1267.2 172.4H1324.8M1324.8 114.8V172.4M1324.8 114.8H1382.4M1324.8 172.4H1382.4M1382.4 114.8V172.4M1382.4 114.8H1440V172.4H1382.4M57.6 172.6H0V230.2H57.6M57.6 172.6V230.2M57.6 172.6H115.2M57.6 230.2H115.2M115.2 172.6V230.2M115.2 172.6H172.8M115.2 230.2H172.8M172.8 172.6V230.2M172.8 172.6H230.4M172.8 230.2H230.4M230.4 172.6V230.2M230.4 172.6H288M230.4 230.2H288M288 172.6V230.2M288 172.6H345.6M288 230.2H345.6M345.6 172.6V230.2M345.6 172.6H403.2M345.6 230.2H403.2M403.2 172.6V230.2M403.2 172.6H460.8M403.2 230.2H460.8M460.8 172.6V230.2M460.8 172.6H518.4M460.8 230.2H518.4M518.4 172.6V230.2M518.4 172.6H576M518.4 230.2H576M576 172.6V230.2M576 172.6H633.6M576 230.2H633.6M633.6 172.6V230.2M633.6 172.6H691.2M633.6 230.2H691.2M691.2 172.6V230.2M691.2 172.6H748.8M691.2 230.2H748.8M748.8 172.6V230.2M748.8 172.6H806.4M748.8 230.2H806.4M806.4 172.6V230.2M806.4 172.6H864M806.4 230.2H864M864 172.6V230.2M864 172.6H921.6M864 230.2H921.6M921.6 172.6V230.2M921.6 172.6H979.2M921.6 230.2H979.2M979.2 172.6V230.2M979.2 172.6H1036.8M979.2 230.2H1036.8M1036.8 172.6V230.2M1036.8 172.6H1094.4M1036.8 230.2H1094.4M1094.4 172.6V230.2M1094.4 172.6H1152M1094.4 230.2H1152M1152 172.6V230.2M1152 172.6H1209.6M1152 230.2H1209.6M1209.6 172.6V230.2M1209.6 172.6H1267.2M1209.6 230.2H1267.2M1267.2 172.6V230.2M1267.2 172.6H1324.8M1267.2 230.2H1324.8M1324.8 172.6V230.2M1324.8 172.6H1382.4M1324.8 230.2H1382.4M1382.4 172.6V230.2M1382.4 172.6H1440V230.2H1382.4M57.6 230.4H0V288H57.6M57.6 230.4V288M57.6 230.4H115.2M57.6 288H115.2M115.2 230.4V288M115.2 230.4H172.8M115.2 288H172.8M172.8 230.4V288M172.8 230.4H230.4M172.8 288H230.4M230.4 230.4V288M230.4 230.4H288M230.4 288H288M288 230.4V288M288 230.4H345.6M288 288H345.6M345.6 230.4V288M345.6 230.4H403.2M345.6 288H403.2M403.2 230.4V288M403.2 230.4H460.8M403.2 288H460.8M460.8 230.4V288M460.8 230.4H518.4M460.8 288H518.4M518.4 230.4V288M518.4 230.4H576M518.4 288H576M576 230.4V288M576 230.4H633.6M576 288H633.6M633.6 230.4V288M633.6 230.4H691.2M633.6 288H691.2M691.2 230.4V288M691.2 230.4H748.8M691.2 288H748.8M748.8 230.4V288M748.8 230.4H806.4M748.8 288H806.4M806.4 230.4V288M806.4 230.4H864M806.4 288H864M864 230.4V288M864 230.4H921.6M864 288H921.6M921.6 230.4V288M921.6 230.4H979.2M921.6 288H979.2M979.2 230.4V288M979.2 230.4H1036.8M979.2 288H1036.8M1036.8 230.4V288M1036.8 230.4H1094.4M1036.8 288H1094.4M1094.4 230.4V288M1094.4 230.4H1152M1094.4 288H1152M1152 230.4V288M1152 230.4H1209.6M1152 288H1209.6M1209.6 230.4V288M1209.6 230.4H1267.2M1209.6 288H1267.2M1267.2 230.4V288M1267.2 230.4H1324.8M1267.2 288H1324.8M1324.8 230.4V288M1324.8 230.4H1382.4M1324.8 288H1382.4M1382.4 230.4V288M1382.4 230.4H1440V288H1382.4M57.6 288.2H0V345.8H57.6M57.6 288.2V345.8M57.6 288.2H115.2M57.6 345.8H115.2M115.2 288.2V345.8M115.2 288.2H172.8M115.2 345.8H172.8M172.8 288.2V345.8M172.8 288.2H230.4M172.8 345.8H230.4M230.4 288.2V345.8M230.4 288.2H288M230.4 345.8H288M288 288.2V345.8M288 288.2H345.6M288 345.8H345.6M345.6 288.2V345.8M345.6 288.2H403.2M345.6 345.8H403.2M403.2 288.2V345.8M403.2 288.2H460.8M403.2 345.8H460.8M460.8 288.2V345.8M460.8 288.2H518.4M460.8 345.8H518.4M518.4 288.2V345.8M518.4 288.2H576M518.4 345.8H576M576 288.2V345.8M576 288.2H633.6M576 345.8H633.6M633.6 288.2V345.8M633.6 288.2H691.2M633.6 345.8H691.2M691.2 288.2V345.8M691.2 288.2H748.8M691.2 345.8H748.8M748.8 288.2V345.8M748.8 288.2H806.4M748.8 345.8H806.4M806.4 288.2V345.8M806.4 288.2H864M806.4 345.8H864M864 288.2V345.8M864 288.2H921.6M864 345.8H921.6M921.6 288.2V345.8M921.6 288.2H979.2M921.6 345.8H979.2M979.2 288.2V345.8M979.2 288.2H1036.8M979.2 345.8H1036.8M1036.8 288.2V345.8M1036.8 288.2H1094.4M1036.8 345.8H1094.4M1094.4 288.2V345.8M1094.4 288.2H1152M1094.4 345.8H1152M1152 288.2V345.8M1152 288.2H1209.6M1152 345.8H1209.6M1209.6 288.2V345.8M1209.6 288.2H1267.2M1209.6 345.8H1267.2M1267.2 288.2V345.8M1267.2 288.2H1324.8M1267.2 345.8H1324.8M1324.8 288.2V345.8M1324.8 288.2H1382.4M1324.8 345.8H1382.4M1382.4 288.2V345.8M1382.4 288.2H1440V345.8H1382.4M57.6 346H0V403.6H57.6M57.6 346V403.6M57.6 346H115.2M57.6 403.6H115.2M115.2 346V403.6M115.2 346H172.8M115.2 403.6H172.8M172.8 346V403.6M172.8 346H230.4M172.8 403.6H230.4M230.4 346V403.6M230.4 346H288M230.4 403.6H288M288 346V403.6M288 346H345.6M288 403.6H345.6M345.6 346V403.6M345.6 346H403.2M345.6 403.6H403.2M403.2 346V403.6M403.2 346H460.8M403.2 403.6H460.8M460.8 346V403.6M460.8 346H518.4M460.8 403.6H518.4M518.4 346V403.6M518.4 346H576M518.4 403.6H576M576 346V403.6M576 346H633.6M576 403.6H633.6M633.6 346V403.6M633.6 346H691.2M633.6 403.6H691.2M691.2 346V403.6M691.2 346H748.8M691.2 403.6H748.8M748.8 346V403.6M748.8 346H806.4M748.8 403.6H806.4M806.4 346V403.6M806.4 346H864M806.4 403.6H864M864 346V403.6M864 346H921.6M864 403.6H921.6M921.6 346V403.6M921.6 346H979.2M921.6 403.6H979.2M979.2 346V403.6M979.2 346H1036.8M979.2 403.6H1036.8M1036.8 346V403.6M1036.8 346H1094.4M1036.8 403.6H1094.4M1094.4 346V403.6M1094.4 346H1152M1094.4 403.6H1152M1152 346V403.6M1152 346H1209.6M1152 403.6H1209.6M1209.6 346V403.6M1209.6 346H1267.2M1209.6 403.6H1267.2M1267.2 346V403.6M1267.2 346H1324.8M1267.2 403.6H1324.8M1324.8 346V403.6M1324.8 346H1382.4M1324.8 403.6H1382.4M1382.4 346V403.6M1382.4 346H1440V403.6H1382.4M57.6 403.8H0V461.4H57.6M57.6 403.8V461.4M57.6 403.8H115.2M57.6 461.4H115.2M115.2 403.8V461.4M115.2 403.8H172.8M115.2 461.4H172.8M172.8 403.8V461.4M172.8 403.8H230.4M172.8 461.4H230.4M230.4 403.8V461.4M230.4 403.8H288M230.4 461.4H288M288 403.8V461.4M288 403.8H345.6M288 461.4H345.6M345.6 403.8V461.4M345.6 403.8H403.2M345.6 461.4H403.2M403.2 403.8V461.4M403.2 403.8H460.8M403.2 461.4H460.8M460.8 403.8V461.4M460.8 403.8H518.4M460.8 461.4H518.4M518.4 403.8V461.4M518.4 403.8H576M518.4 461.4H576M576 403.8V461.4M576 403.8H633.6M576 461.4H633.6M633.6 403.8V461.4M633.6 403.8H691.2M633.6 461.4H691.2M691.2 403.8V461.4M691.2 403.8H748.8M691.2 461.4H748.8M748.8 403.8V461.4M748.8 403.8H806.4M748.8 461.4H806.4M806.4 403.8V461.4M806.4 403.8H864M806.4 461.4H864M864 403.8V461.4M864 403.8H921.6M864 461.4H921.6M921.6 403.8V461.4M921.6 403.8H979.2M921.6 461.4H979.2M979.2 403.8V461.4M979.2 403.8H1036.8M979.2 461.4H1036.8M1036.8 403.8V461.4M1036.8 403.8H1094.4M1036.8 461.4H1094.4M1094.4 403.8V461.4M1094.4 403.8H1152M1094.4 461.4H1152M1152 403.8V461.4M1152 403.8H1209.6M1152 461.4H1209.6M1209.6 403.8V461.4M1209.6 403.8H1267.2M1209.6 461.4H1267.2M1267.2 403.8V461.4M1267.2 403.8H1324.8M1267.2 461.4H1324.8M1324.8 403.8V461.4M1324.8 403.8H1382.4M1324.8 461.4H1382.4M1382.4 403.8V461.4M1382.4 403.8H1440V461.4H1382.4M57.6 461.6H0V519.2H57.6M57.6 461.6V519.2M57.6 461.6H115.2M57.6 519.2H115.2M115.2 461.6V519.2M115.2 461.6H172.8M115.2 519.2H172.8M172.8 461.6V519.2M172.8 461.6H230.4M172.8 519.2H230.4M230.4 461.6V519.2M230.4 461.6H288M230.4 519.2H288M288 461.6V519.2M288 461.6H345.6M288 519.2H345.6M345.6 461.6V519.2M345.6 461.6H403.2M345.6 519.2H403.2M403.2 461.6V519.2M403.2 461.6H460.8M403.2 519.2H460.8M460.8 461.6V519.2M460.8 461.6H518.4M460.8 519.2H518.4M518.4 461.6V519.2M518.4 461.6H576M518.4 519.2H576M576 461.6V519.2M576 461.6H633.6M576 519.2H633.6M633.6 461.6V519.2M633.6 461.6H691.2M633.6 519.2H691.2M691.2 461.6V519.2M691.2 461.6H748.8M691.2 519.2H748.8M748.8 461.6V519.2M748.8 461.6H806.4M748.8 519.2H806.4M806.4 461.6V519.2M806.4 461.6H864M806.4 519.2H864M864 461.6V519.2M864 461.6H921.6M864 519.2H921.6M921.6 461.6V519.2M921.6 461.6H979.2M921.6 519.2H979.2M979.2 461.6V519.2M979.2 461.6H1036.8M979.2 519.2H1036.8M1036.8 461.6V519.2M1036.8 461.6H1094.4M1036.8 519.2H1094.4M1094.4 461.6V519.2M1094.4 461.6H1152M1094.4 519.2H1152M1152 461.6V519.2M1152 461.6H1209.6M1152 519.2H1209.6M1209.6 461.6V519.2M1209.6 461.6H1267.2M1209.6 519.2H1267.2M1267.2 461.6V519.2M1267.2 461.6H1324.8M1267.2 519.2H1324.8M1324.8 461.6V519.2M1324.8 461.6H1382.4M1324.8 519.2H1382.4M1382.4 461.6V519.2M1382.4 461.6H1440V519.2H1382.4M57.6 519.4H0V577H57.6M57.6 519.4V577M57.6 519.4H115.2M57.6 577H115.2M115.2 519.4V577M115.2 519.4H172.8M115.2 577H172.8M172.8 519.4V577M172.8 519.4H230.4M172.8 577H230.4M230.4 519.4V577M230.4 519.4H288M230.4 577H288M288 519.4V577M288 519.4H345.6M288 577H345.6M345.6 519.4V577M345.6 519.4H403.2M345.6 577H403.2M403.2 519.4V577M403.2 519.4H460.8M403.2 577H460.8M460.8 519.4V577M460.8 519.4H518.4M460.8 577H518.4M518.4 519.4V577M518.4 519.4H576M518.4 577H576M576 519.4V577M576 519.4H633.6M576 577H633.6M633.6 519.4V577M633.6 519.4H691.2M633.6 577H691.2M691.2 519.4V577M691.2 519.4H748.8M691.2 577H748.8M748.8 519.4V577M748.8 519.4H806.4M748.8 577H806.4M806.4 519.4V577M806.4 519.4H864M806.4 577H864M864 519.4V577M864 519.4H921.6M864 577H921.6M921.6 519.4V577M921.6 519.4H979.2M921.6 577H979.2M979.2 519.4V577M979.2 519.4H1036.8M979.2 577H1036.8M1036.8 519.4V577M1036.8 519.4H1094.4M1036.8 577H1094.4M1094.4 519.4V577M1094.4 519.4H1152M1094.4 577H1152M1152 519.4V577M1152 519.4H1209.6M1152 577H1209.6M1209.6 519.4V577M1209.6 519.4H1267.2M1209.6 577H1267.2M1267.2 519.4V577M1267.2 519.4H1324.8M1267.2 577H1324.8M1324.8 519.4V577M1324.8 519.4H1382.4M1324.8 577H1382.4M1382.4 519.4V577M1382.4 519.4H1440V577H1382.4M57.6 577.2H0V634.8H57.6M57.6 577.2V634.8M57.6 577.2H115.2M57.6 634.8H115.2M115.2 577.2V634.8M115.2 577.2H172.8M115.2 634.8H172.8M172.8 577.2V634.8M172.8 577.2H230.4M172.8 634.8H230.4M230.4 577.2V634.8M230.4 577.2H288M230.4 634.8H288M288 577.2V634.8M288 577.2H345.6M288 634.8H345.6M345.6 577.2V634.8M345.6 577.2H403.2M345.6 634.8H403.2M403.2 577.2V634.8M403.2 577.2H460.8M403.2 634.8H460.8M460.8 577.2V634.8M460.8 577.2H518.4M460.8 634.8H518.4M518.4 577.2V634.8M518.4 577.2H576M518.4 634.8H576M576 577.2V634.8M576 577.2H633.6M576 634.8H633.6M633.6 577.2V634.8M633.6 577.2H691.2M633.6 634.8H691.2M691.2 577.2V634.8M691.2 577.2H748.8M691.2 634.8H748.8M748.8 577.2V634.8M748.8 577.2H806.4M748.8 634.8H806.4M806.4 577.2V634.8M806.4 577.2H864M806.4 634.8H864M864 577.2V634.8M864 577.2H921.6M864 634.8H921.6M921.6 577.2V634.8M921.6 577.2H979.2M921.6 634.8H979.2M979.2 577.2V634.8M979.2 577.2H1036.8M979.2 634.8H1036.8M1036.8 577.2V634.8M1036.8 577.2H1094.4M1036.8 634.8H1094.4M1094.4 577.2V634.8M1094.4 577.2H1152M1094.4 634.8H1152M1152 577.2V634.8M1152 577.2H1209.6M1152 634.8H1209.6M1209.6 577.2V634.8M1209.6 577.2H1267.2M1209.6 634.8H1267.2M1267.2 577.2V634.8M1267.2 577.2H1324.8M1267.2 634.8H1324.8M1324.8 577.2V634.8M1324.8 577.2H1382.4M1324.8 634.8H1382.4M1382.4 577.2V634.8M1382.4 577.2H1440V634.8H1382.4M57.6 635H0V692.6H57.6M57.6 635V692.6M57.6 635H115.2M57.6 692.6H115.2M115.2 635V692.6M115.2 635H172.8M115.2 692.6H172.8M172.8 635V692.6M172.8 635H230.4M172.8 692.6H230.4M230.4 635V692.6M230.4 635H288M230.4 692.6H288M288 635V692.6M288 635H345.6M288 692.6H345.6M345.6 635V692.6M345.6 635H403.2M345.6 692.6H403.2M403.2 635V692.6M403.2 635H460.8M403.2 692.6H460.8M460.8 635V692.6M460.8 635H518.4M460.8 692.6H518.4M518.4 635V692.6M518.4 635H576M518.4 692.6H576M576 635V692.6M576 635H633.6M576 692.6H633.6M633.6 635V692.6M633.6 635H691.2M633.6 692.6H691.2M691.2 635V692.6M691.2 635H748.8M691.2 692.6H748.8M748.8 635V692.6M748.8 635H806.4M748.8 692.6H806.4M806.4 635V692.6M806.4 635H864M806.4 692.6H864M864 635V692.6M864 635H921.6M864 692.6H921.6M921.6 635V692.6M921.6 635H979.2M921.6 692.6H979.2M979.2 635V692.6M979.2 635H1036.8M979.2 692.6H1036.8M1036.8 635V692.6M1036.8 635H1094.4M1036.8 692.6H1094.4M1094.4 635V692.6M1094.4 635H1152M1094.4 692.6H1152M1152 635V692.6M1152 635H1209.6M1152 692.6H1209.6M1209.6 635V692.6M1209.6 635H1267.2M1209.6 692.6H1267.2M1267.2 635V692.6M1267.2 635H1324.8M1267.2 692.6H1324.8M1324.8 635V692.6M1324.8 635H1382.4M1324.8 692.6H1382.4M1382.4 635V692.6M1382.4 635H1440V692.6H1382.4M57.6 692.8H0V750.4H57.6M57.6 692.8V750.4M57.6 692.8H115.2M57.6 750.4H115.2M115.2 692.8V750.4M115.2 692.8H172.8M115.2 750.4H172.8M172.8 692.8V750.4M172.8 692.8H230.4M172.8 750.4H230.4M230.4 692.8V750.4M230.4 692.8H288M230.4 750.4H288M288 692.8V750.4M288 692.8H345.6M288 750.4H345.6M345.6 692.8V750.4M345.6 692.8H403.2M345.6 750.4H403.2M403.2 692.8V750.4M403.2 692.8H460.8M403.2 750.4H460.8M460.8 692.8V750.4M460.8 692.8H518.4M460.8 750.4H518.4M518.4 692.8V750.4M518.4 692.8H576M518.4 750.4H576M576 692.8V750.4M576 692.8H633.6M576 750.4H633.6M633.6 692.8V750.4M633.6 692.8H691.2M633.6 750.4H691.2M691.2 692.8V750.4M691.2 692.8H748.8M691.2 750.4H748.8M748.8 692.8V750.4M748.8 692.8H806.4M748.8 750.4H806.4M806.4 692.8V750.4M806.4 692.8H864M806.4 750.4H864M864 692.8V750.4M864 692.8H921.6M864 750.4H921.6M921.6 692.8V750.4M921.6 692.8H979.2M921.6 750.4H979.2M979.2 692.8V750.4M979.2 692.8H1036.8M979.2 750.4H1036.8M1036.8 692.8V750.4M1036.8 692.8H1094.4M1036.8 750.4H1094.4M1094.4 692.8V750.4M1094.4 692.8H1152M1094.4 750.4H1152M1152 692.8V750.4M1152 692.8H1209.6M1152 750.4H1209.6M1209.6 692.8V750.4M1209.6 692.8H1267.2M1209.6 750.4H1267.2M1267.2 692.8V750.4M1267.2 692.8H1324.8M1267.2 750.4H1324.8M1324.8 692.8V750.4M1324.8 692.8H1382.4M1324.8 750.4H1382.4M1382.4 692.8V750.4M1382.4 692.8H1440V750.4H1382.4M57.6 750.6H0V808.2H57.6M57.6 750.6V808.2M57.6 750.6H115.2M57.6 808.2H115.2M115.2 750.6V808.2M115.2 750.6H172.8M115.2 808.2H172.8M172.8 750.6V808.2M172.8 750.6H230.4M172.8 808.2H230.4M230.4 750.6V808.2M230.4 750.6H288M230.4 808.2H288M288 750.6V808.2M288 750.6H345.6M288 808.2H345.6M345.6 750.6V808.2M345.6 750.6H403.2M345.6 808.2H403.2M403.2 750.6V808.2M403.2 750.6H460.8M403.2 808.2H460.8M460.8 750.6V808.2M460.8 750.6H518.4M460.8 808.2H518.4M518.4 750.6V808.2M518.4 750.6H576M518.4 808.2H576M576 750.6V808.2M576 750.6H633.6M576 808.2H633.6M633.6 750.6V808.2M633.6 750.6H691.2M633.6 808.2H691.2M691.2 750.6V808.2M691.2 750.6H748.8M691.2 808.2H748.8M748.8 750.6V808.2M748.8 750.6H806.4M748.8 808.2H806.4M806.4 750.6V808.2M806.4 750.6H864M806.4 808.2H864M864 750.6V808.2M864 750.6H921.6M864 808.2H921.6M921.6 750.6V808.2M921.6 750.6H979.2M921.6 808.2H979.2M979.2 750.6V808.2M979.2 750.6H1036.8M979.2 808.2H1036.8M1036.8 750.6V808.2M1036.8 750.6H1094.4M1036.8 808.2H1094.4M1094.4 750.6V808.2M1094.4 750.6H1152M1094.4 808.2H1152M1152 750.6V808.2M1152 750.6H1209.6M1152 808.2H1209.6M1209.6 750.6V808.2M1209.6 750.6H1267.2M1209.6 808.2H1267.2M1267.2 750.6V808.2M1267.2 750.6H1324.8M1267.2 808.2H1324.8M1324.8 750.6V808.2M1324.8 750.6H1382.4M1324.8 808.2H1382.4M1382.4 750.6V808.2M1382.4 750.6H1440V808.2H1382.4M57.6 808.4H0V866H57.6M57.6 808.4V866M57.6 808.4H115.2M57.6 866H115.2M115.2 808.4V866M115.2 808.4H172.8M115.2 866H172.8M172.8 808.4V866M172.8 808.4H230.4M172.8 866H230.4M230.4 808.4V866M230.4 808.4H288M230.4 866H288M288 808.4V866M288 808.4H345.6M288 866H345.6M345.6 808.4V866M345.6 808.4H403.2M345.6 866H403.2M403.2 808.4V866M403.2 808.4H460.8M403.2 866H460.8M460.8 808.4V866M460.8 808.4H518.4M460.8 866H518.4M518.4 808.4V866M518.4 808.4H576M518.4 866H576M576 808.4V866M576 808.4H633.6M576 866H633.6M633.6 808.4V866M633.6 808.4H691.2M633.6 866H691.2M691.2 808.4V866M691.2 808.4H748.8M691.2 866H748.8M748.8 808.4V866M748.8 808.4H806.4M748.8 866H806.4M806.4 808.4V866M806.4 808.4H864M806.4 866H864M864 808.4V866M864 808.4H921.6M864 866H921.6M921.6 808.4V866M921.6 808.4H979.2M921.6 866H979.2M979.2 808.4V866M979.2 808.4H1036.8M979.2 866H1036.8M1036.8 808.4V866M1036.8 808.4H1094.4M1036.8 866H1094.4M1094.4 808.4V866M1094.4 808.4H1152M1094.4 866H1152M1152 808.4V866M1152 808.4H1209.6M1152 866H1209.6M1209.6 808.4V866M1209.6 808.4H1267.2M1209.6 866H1267.2M1267.2 808.4V866M1267.2 808.4H1324.8M1267.2 866H1324.8M1324.8 808.4V866M1324.8 808.4H1382.4M1324.8 866H1382.4M1382.4 808.4V866M1382.4 808.4H1440V866H1382.4" stroke="url('#paint0_radial_48_853')"></path>
<g opacity="0.4" filter="url('#filter0_f_48_853')">
<circle cx="701" cy="-32" r="332" fill="#8F00FF" fill-opacity="0.64"></circle>
</g>
<g opacity="0.4" filter="url('#filter1_f_48_853')">
<circle cx="384" cy="-104" r="218" fill="#FF5ED2"></circle>
</g>
<g opacity="0.4" filter="url('#filter2_f_48_853')">
<circle cx="1040" cy="-99" r="234" fill="#00FFD1" fill-opacity="0.62"></circle>
</g>
<defs>
<filter id="filter0_f_48_853" x="119" y="-614" width="1164" height="1164" filterUnits="userSpaceOnUse" color-interpolation-filters="sRGB">
<feFlood flood-opacity="0" result="BackgroundImageFix"></feFlood>
<feBlend mode="normal" in="SourceGraphic" in2="BackgroundImageFix" result="shape"></feBlend>
<feGaussianBlur stdDeviation="125" result="effect1_foregroundBlur_48_853"></feGaussianBlur>
</filter>
<filter id="filter1_f_48_853" x="-84" y="-572" width="936" height="936" filterUnits="userSpaceOnUse" color-interpolation-filters="sRGB">
<feFlood flood-opacity="0" result="BackgroundImageFix"></feFlood>
<feBlend mode="normal" in="SourceGraphic" in2="BackgroundImageFix" result="shape"></feBlend>
<feGaussianBlur stdDeviation="125" result="effect1_foregroundBlur_48_853"></feGaussianBlur>
</filter>
<filter id="filter2_f_48_853" x="556" y="-583" width="968" height="968" filterUnits="userSpaceOnUse" color-interpolation-filters="sRGB">
<feFlood flood-opacity="0" result="BackgroundImageFix"></feFlood>
<feBlend mode="normal" in="SourceGraphic" in2="BackgroundImageFix" result="shape"></feBlend>
<feGaussianBlur stdDeviation="125" result="effect1_foregroundBlur_48_853"></feGaussianBlur>
</filter>
<radialGradient id="paint0_radial_48_853" cx="0" cy="0" r="1" gradientUnits="userSpaceOnUse" gradientTransform="translate(720 -429) rotate(90) scale(1116 1810.96)">
<stop stop-color="white"></stop>
<stop offset="1" stop-color="white" stop-opacity="0"></stop>
</radialGradient>
</defs>
</svg>
