<svg width="1440" height="867" fill="none" xmlns="http://www.w3.org/2000/svg"><path opacity=".25" d="M57.6-.8H0v57.6h57.6m0-57.6v57.6m0-57.6h57.6M57.6 56.8h57.6m0-57.6v57.6m0-57.6h57.6m-57.6 57.6h57.6m0-57.6v57.6m0-57.6h57.6m-57.6 57.6h57.6m0-57.6v57.6m0-57.6H288m-57.6 57.6H288m0-57.6v57.6m0-57.6h57.6M288 56.8h57.6m0-57.6v57.6m0-57.6h57.6m-57.6 57.6h57.6m0-57.6v57.6m0-57.6h57.6m-57.6 57.6h57.6m0-57.6v57.6m0-57.6h57.6m-57.6 57.6h57.6m0-57.6v57.6m0-57.6H576m-57.6 57.6H576m0-57.6v57.6m0-57.6h57.6M576 56.8h57.6m0-57.6v57.6m0-57.6h57.6m-57.6 57.6h57.6m0-57.6v57.6m0-57.6h57.6m-57.6 57.6h57.6m0-57.6v57.6m0-57.6h57.6m-57.6 57.6h57.6m0-57.6v57.6m0-57.6H864m-57.6 57.6H864m0-57.6v57.6m0-57.6h57.6M864 56.8h57.6m0-57.6v57.6m0-57.6h57.6m-57.6 57.6h57.6m0-57.6v57.6m0-57.6h57.6m-57.6 57.6h57.6m0-57.6v57.6m0-57.6h57.6m-57.6 57.6h57.6m0-57.6v57.6m0-57.6h57.6m-57.6 57.6h57.6m0-57.6v57.6m0-57.6h57.6M1152 56.8h57.6m0-57.6v57.6m0-57.6h57.6m-57.6 57.6h57.6m0-57.6v57.6m0-57.6h57.6m-57.6 57.6h57.6m0-57.6v57.6m0-57.6h57.6m-57.6 57.6h57.6m0-57.6v57.6m0-57.6h57.6v57.6h-57.6M57.6 57H0v57.6h57.6m0-57.6v57.6m0-57.6h57.6m-57.6 57.6h57.6m0-57.6v57.6m0-57.6h57.6m-57.6 57.6h57.6m0-57.6v57.6m0-57.6h57.6m-57.6 57.6h57.6m0-57.6v57.6m0-57.6H288m-57.6 57.6H288m0-57.6v57.6m0-57.6h57.6M288 114.6h57.6m0-57.6v57.6m0-57.6h57.6m-57.6 57.6h57.6m0-57.6v57.6m0-57.6h57.6m-57.6 57.6h57.6m0-57.6v57.6m0-57.6h57.6m-57.6 57.6h57.6m0-57.6v57.6m0-57.6H576m-57.6 57.6H576m0-57.6v57.6m0-57.6h57.6M576 114.6h57.6m0-57.6v57.6m0-57.6h57.6m-57.6 57.6h57.6m0-57.6v57.6m0-57.6h57.6m-57.6 57.6h57.6m0-57.6v57.6m0-57.6h57.6m-57.6 57.6h57.6m0-57.6v57.6m0-57.6H864m-57.6 57.6H864m0-57.6v57.6m0-57.6h57.6M864 114.6h57.6m0-57.6v57.6m0-57.6h57.6m-57.6 57.6h57.6m0-57.6v57.6m0-57.6h57.6m-57.6 57.6h57.6m0-57.6v57.6m0-57.6h57.6m-57.6 57.6h57.6m0-57.6v57.6m0-57.6h57.6m-57.6 57.6h57.6m0-57.6v57.6m0-57.6h57.6m-57.6 57.6h57.6m0-57.6v57.6m0-57.6h57.6m-57.6 57.6h57.6m0-57.6v57.6m0-57.6h57.6m-57.6 57.6h57.6m0-57.6v57.6m0-57.6h57.6m-57.6 57.6h57.6m0-57.6v57.6m0-57.6h57.6v57.6h-57.6m-1324.8.2H0v57.6h57.6m0-57.6v57.6m0-57.6h57.6m-57.6 57.6h57.6m0-57.6v57.6m0-57.6h57.6m-57.6 57.6h57.6m0-57.6v57.6m0-57.6h57.6m-57.6 57.6h57.6m0-57.6v57.6m0-57.6H288m-57.6 57.6H288m0-57.6v57.6m0-57.6h57.6M288 172.4h57.6m0-57.6v57.6m0-57.6h57.6m-57.6 57.6h57.6m0-57.6v57.6m0-57.6h57.6m-57.6 57.6h57.6m0-57.6v57.6m0-57.6h57.6m-57.6 57.6h57.6m0-57.6v57.6m0-57.6H576m-57.6 57.6H576m0-57.6v57.6m0-57.6h57.6M576 172.4h57.6m0-57.6v57.6m0-57.6h57.6m-57.6 57.6h57.6m0-57.6v57.6m0-57.6h57.6m-57.6 57.6h57.6m0-57.6v57.6m0-57.6h57.6m-57.6 57.6h57.6m0-57.6v57.6m0-57.6H864m-57.6 57.6H864m0-57.6v57.6m0-57.6h57.6M864 172.4h57.6m0-57.6v57.6m0-57.6h57.6m-57.6 57.6h57.6m0-57.6v57.6m0-57.6h57.6m-57.6 57.6h57.6m0-57.6v57.6m0-57.6h57.6m-57.6 57.6h57.6m0-57.6v57.6m0-57.6h57.6m-57.6 57.6h57.6m0-57.6v57.6m0-57.6h57.6m-57.6 57.6h57.6m0-57.6v57.6m0-57.6h57.6m-57.6 57.6h57.6m0-57.6v57.6m0-57.6h57.6m-57.6 57.6h57.6m0-57.6v57.6m0-57.6h57.6m-57.6 57.6h57.6m0-57.6v57.6m0-57.6h57.6v57.6h-57.6m-1324.8.2H0v57.6h57.6m0-57.6v57.6m0-57.6h57.6m-57.6 57.6h57.6m0-57.6v57.6m0-57.6h57.6m-57.6 57.6h57.6m0-57.6v57.6m0-57.6h57.6m-57.6 57.6h57.6m0-57.6v57.6m0-57.6H288m-57.6 57.6H288m0-57.6v57.6m0-57.6h57.6M288 230.2h57.6m0-57.6v57.6m0-57.6h57.6m-57.6 57.6h57.6m0-57.6v57.6m0-57.6h57.6m-57.6 57.6h57.6m0-57.6v57.6m0-57.6h57.6m-57.6 57.6h57.6m0-57.6v57.6m0-57.6H576m-57.6 57.6H576m0-57.6v57.6m0-57.6h57.6M576 230.2h57.6m0-57.6v57.6m0-57.6h57.6m-57.6 57.6h57.6m0-57.6v57.6m0-57.6h57.6m-57.6 57.6h57.6m0-57.6v57.6m0-57.6h57.6m-57.6 57.6h57.6m0-57.6v57.6m0-57.6H864m-57.6 57.6H864m0-57.6v57.6m0-57.6h57.6M864 230.2h57.6m0-57.6v57.6m0-57.6h57.6m-57.6 57.6h57.6m0-57.6v57.6m0-57.6h57.6m-57.6 57.6h57.6m0-57.6v57.6m0-57.6h57.6m-57.6 57.6h57.6m0-57.6v57.6m0-57.6h57.6m-57.6 57.6h57.6m0-57.6v57.6m0-57.6h57.6m-57.6 57.6h57.6m0-57.6v57.6m0-57.6h57.6m-57.6 57.6h57.6m0-57.6v57.6m0-57.6h57.6m-57.6 57.6h57.6m0-57.6v57.6m0-57.6h57.6m-57.6 57.6h57.6m0-57.6v57.6m0-57.6h57.6v57.6h-57.6m-1324.8.2H0V288h57.6m0-57.6V288m0-57.6h57.6M57.6 288h57.6m0-57.6V288m0-57.6h57.6M115.2 288h57.6m0-57.6V288m0-57.6h57.6M172.8 288h57.6m0-57.6V288m0-57.6H288M230.4 288H288m0-57.6V288m0-57.6h57.6M288 288h57.6m0-57.6V288m0-57.6h57.6M345.6 288h57.6m0-57.6V288m0-57.6h57.6M403.2 288h57.6m0-57.6V288m0-57.6h57.6M460.8 288h57.6m0-57.6V288m0-57.6H576M518.4 288H576m0-57.6V288m0-57.6h57.6M576 288h57.6m0-57.6V288m0-57.6h57.6M633.6 288h57.6m0-57.6V288m0-57.6h57.6M691.2 288h57.6m0-57.6V288m0-57.6h57.6M748.8 288h57.6m0-57.6V288m0-57.6H864M806.4 288H864m0-57.6V288m0-57.6h57.6M864 288h57.6m0-57.6V288m0-57.6h57.6M921.6 288h57.6m0-57.6V288m0-57.6h57.6M979.2 288h57.6m0-57.6V288m0-57.6h57.6m-57.6 57.6h57.6m0-57.6V288m0-57.6h57.6m-57.6 57.6h57.6m0-57.6V288m0-57.6h57.6M1152 288h57.6m0-57.6V288m0-57.6h57.6m-57.6 57.6h57.6m0-57.6V288m0-57.6h57.6m-57.6 57.6h57.6m0-57.6V288m0-57.6h57.6m-57.6 57.6h57.6m0-57.6V288m0-57.6h57.6V288h-57.6m-1324.8.2H0v57.6h57.6m0-57.6v57.6m0-57.6h57.6m-57.6 57.6h57.6m0-57.6v57.6m0-57.6h57.6m-57.6 57.6h57.6m0-57.6v57.6m0-57.6h57.6m-57.6 57.6h57.6m0-57.6v57.6m0-57.6H288m-57.6 57.6H288m0-57.6v57.6m0-57.6h57.6M288 345.8h57.6m0-57.6v57.6m0-57.6h57.6m-57.6 57.6h57.6m0-57.6v57.6m0-57.6h57.6m-57.6 57.6h57.6m0-57.6v57.6m0-57.6h57.6m-57.6 57.6h57.6m0-57.6v57.6m0-57.6H576m-57.6 57.6H576m0-57.6v57.6m0-57.6h57.6M576 345.8h57.6m0-57.6v57.6m0-57.6h57.6m-57.6 57.6h57.6m0-57.6v57.6m0-57.6h57.6m-57.6 57.6h57.6m0-57.6v57.6m0-57.6h57.6m-57.6 57.6h57.6m0-57.6v57.6m0-57.6H864m-57.6 57.6H864m0-57.6v57.6m0-57.6h57.6M864 345.8h57.6m0-57.6v57.6m0-57.6h57.6m-57.6 57.6h57.6m0-57.6v57.6m0-57.6h57.6m-57.6 57.6h57.6m0-57.6v57.6m0-57.6h57.6m-57.6 57.6h57.6m0-57.6v57.6m0-57.6h57.6m-57.6 57.6h57.6m0-57.6v57.6m0-57.6h57.6m-57.6 57.6h57.6m0-57.6v57.6m0-57.6h57.6m-57.6 57.6h57.6m0-57.6v57.6m0-57.6h57.6m-57.6 57.6h57.6m0-57.6v57.6m0-57.6h57.6m-57.6 57.6h57.6m0-57.6v57.6m0-57.6h57.6v57.6h-57.6M57.6 346H0v57.6h57.6m0-57.6v57.6m0-57.6h57.6m-57.6 57.6h57.6m0-57.6v57.6m0-57.6h57.6m-57.6 57.6h57.6m0-57.6v57.6m0-57.6h57.6m-57.6 57.6h57.6m0-57.6v57.6m0-57.6H288m-57.6 57.6H288m0-57.6v57.6m0-57.6h57.6M288 403.6h57.6m0-57.6v57.6m0-57.6h57.6m-57.6 57.6h57.6m0-57.6v57.6m0-57.6h57.6m-57.6 57.6h57.6m0-57.6v57.6m0-57.6h57.6m-57.6 57.6h57.6m0-57.6v57.6m0-57.6H576m-57.6 57.6H576m0-57.6v57.6m0-57.6h57.6M576 403.6h57.6m0-57.6v57.6m0-57.6h57.6m-57.6 57.6h57.6m0-57.6v57.6m0-57.6h57.6m-57.6 57.6h57.6m0-57.6v57.6m0-57.6h57.6m-57.6 57.6h57.6m0-57.6v57.6m0-57.6H864m-57.6 57.6H864m0-57.6v57.6m0-57.6h57.6M864 403.6h57.6m0-57.6v57.6m0-57.6h57.6m-57.6 57.6h57.6m0-57.6v57.6m0-57.6h57.6m-57.6 57.6h57.6m0-57.6v57.6m0-57.6h57.6m-57.6 57.6h57.6m0-57.6v57.6m0-57.6h57.6m-57.6 57.6h57.6m0-57.6v57.6m0-57.6h57.6m-57.6 57.6h57.6m0-57.6v57.6m0-57.6h57.6m-57.6 57.6h57.6m0-57.6v57.6m0-57.6h57.6m-57.6 57.6h57.6m0-57.6v57.6m0-57.6h57.6m-57.6 57.6h57.6m0-57.6v57.6m0-57.6h57.6v57.6h-57.6m-1324.8.2H0v57.6h57.6m0-57.6v57.6m0-57.6h57.6m-57.6 57.6h57.6m0-57.6v57.6m0-57.6h57.6m-57.6 57.6h57.6m0-57.6v57.6m0-57.6h57.6m-57.6 57.6h57.6m0-57.6v57.6m0-57.6H288m-57.6 57.6H288m0-57.6v57.6m0-57.6h57.6M288 461.4h57.6m0-57.6v57.6m0-57.6h57.6m-57.6 57.6h57.6m0-57.6v57.6m0-57.6h57.6m-57.6 57.6h57.6m0-57.6v57.6m0-57.6h57.6m-57.6 57.6h57.6m0-57.6v57.6m0-57.6H576m-57.6 57.6H576m0-57.6v57.6m0-57.6h57.6M576 461.4h57.6m0-57.6v57.6m0-57.6h57.6m-57.6 57.6h57.6m0-57.6v57.6m0-57.6h57.6m-57.6 57.6h57.6m0-57.6v57.6m0-57.6h57.6m-57.6 57.6h57.6m0-57.6v57.6m0-57.6H864m-57.6 57.6H864m0-57.6v57.6m0-57.6h57.6M864 461.4h57.6m0-57.6v57.6m0-57.6h57.6m-57.6 57.6h57.6m0-57.6v57.6m0-57.6h57.6m-57.6 57.6h57.6m0-57.6v57.6m0-57.6h57.6m-57.6 57.6h57.6m0-57.6v57.6m0-57.6h57.6m-57.6 57.6h57.6m0-57.6v57.6m0-57.6h57.6m-57.6 57.6h57.6m0-57.6v57.6m0-57.6h57.6m-57.6 57.6h57.6m0-57.6v57.6m0-57.6h57.6m-57.6 57.6h57.6m0-57.6v57.6m0-57.6h57.6m-57.6 57.6h57.6m0-57.6v57.6m0-57.6h57.6v57.6h-57.6m-1324.8.2H0v57.6h57.6m0-57.6v57.6m0-57.6h57.6m-57.6 57.6h57.6m0-57.6v57.6m0-57.6h57.6m-57.6 57.6h57.6m0-57.6v57.6m0-57.6h57.6m-57.6 57.6h57.6m0-57.6v57.6m0-57.6H288m-57.6 57.6H288m0-57.6v57.6m0-57.6h57.6M288 519.2h57.6m0-57.6v57.6m0-57.6h57.6m-57.6 57.6h57.6m0-57.6v57.6m0-57.6h57.6m-57.6 57.6h57.6m0-57.6v57.6m0-57.6h57.6m-57.6 57.6h57.6m0-57.6v57.6m0-57.6H576m-57.6 57.6H576m0-57.6v57.6m0-57.6h57.6M576 519.2h57.6m0-57.6v57.6m0-57.6h57.6m-57.6 57.6h57.6m0-57.6v57.6m0-57.6h57.6m-57.6 57.6h57.6m0-57.6v57.6m0-57.6h57.6m-57.6 57.6h57.6m0-57.6v57.6m0-57.6H864m-57.6 57.6H864m0-57.6v57.6m0-57.6h57.6M864 519.2h57.6m0-57.6v57.6m0-57.6h57.6m-57.6 57.6h57.6m0-57.6v57.6m0-57.6h57.6m-57.6 57.6h57.6m0-57.6v57.6m0-57.6h57.6m-57.6 57.6h57.6m0-57.6v57.6m0-57.6h57.6m-57.6 57.6h57.6m0-57.6v57.6m0-57.6h57.6m-57.6 57.6h57.6m0-57.6v57.6m0-57.6h57.6m-57.6 57.6h57.6m0-57.6v57.6m0-57.6h57.6m-57.6 57.6h57.6m0-57.6v57.6m0-57.6h57.6m-57.6 57.6h57.6m0-57.6v57.6m0-57.6h57.6v57.6h-57.6m-1324.8.2H0V577h57.6m0-57.6V577m0-57.6h57.6M57.6 577h57.6m0-57.6V577m0-57.6h57.6M115.2 577h57.6m0-57.6V577m0-57.6h57.6M172.8 577h57.6m0-57.6V577m0-57.6H288M230.4 577H288m0-57.6V577m0-57.6h57.6M288 577h57.6m0-57.6V577m0-57.6h57.6M345.6 577h57.6m0-57.6V577m0-57.6h57.6M403.2 577h57.6m0-57.6V577m0-57.6h57.6M460.8 577h57.6m0-57.6V577m0-57.6H576M518.4 577H576m0-57.6V577m0-57.6h57.6M576 577h57.6m0-57.6V577m0-57.6h57.6M633.6 577h57.6m0-57.6V577m0-57.6h57.6M691.2 577h57.6m0-57.6V577m0-57.6h57.6M748.8 577h57.6m0-57.6V577m0-57.6H864M806.4 577H864m0-57.6V577m0-57.6h57.6M864 577h57.6m0-57.6V577m0-57.6h57.6M921.6 577h57.6m0-57.6V577m0-57.6h57.6M979.2 577h57.6m0-57.6V577m0-57.6h57.6m-57.6 57.6h57.6m0-57.6V577m0-57.6h57.6m-57.6 57.6h57.6m0-57.6V577m0-57.6h57.6M1152 577h57.6m0-57.6V577m0-57.6h57.6m-57.6 57.6h57.6m0-57.6V577m0-57.6h57.6m-57.6 57.6h57.6m0-57.6V577m0-57.6h57.6m-57.6 57.6h57.6m0-57.6V577m0-57.6h57.6V577h-57.6m-1324.8.2H0v57.6h57.6m0-57.6v57.6m0-57.6h57.6m-57.6 57.6h57.6m0-57.6v57.6m0-57.6h57.6m-57.6 57.6h57.6m0-57.6v57.6m0-57.6h57.6m-57.6 57.6h57.6m0-57.6v57.6m0-57.6H288m-57.6 57.6H288m0-57.6v57.6m0-57.6h57.6M288 634.8h57.6m0-57.6v57.6m0-57.6h57.6m-57.6 57.6h57.6m0-57.6v57.6m0-57.6h57.6m-57.6 57.6h57.6m0-57.6v57.6m0-57.6h57.6m-57.6 57.6h57.6m0-57.6v57.6m0-57.6H576m-57.6 57.6H576m0-57.6v57.6m0-57.6h57.6M576 634.8h57.6m0-57.6v57.6m0-57.6h57.6m-57.6 57.6h57.6m0-57.6v57.6m0-57.6h57.6m-57.6 57.6h57.6m0-57.6v57.6m0-57.6h57.6m-57.6 57.6h57.6m0-57.6v57.6m0-57.6H864m-57.6 57.6H864m0-57.6v57.6m0-57.6h57.6M864 634.8h57.6m0-57.6v57.6m0-57.6h57.6m-57.6 57.6h57.6m0-57.6v57.6m0-57.6h57.6m-57.6 57.6h57.6m0-57.6v57.6m0-57.6h57.6m-57.6 57.6h57.6m0-57.6v57.6m0-57.6h57.6m-57.6 57.6h57.6m0-57.6v57.6m0-57.6h57.6m-57.6 57.6h57.6m0-57.6v57.6m0-57.6h57.6m-57.6 57.6h57.6m0-57.6v57.6m0-57.6h57.6m-57.6 57.6h57.6m0-57.6v57.6m0-57.6h57.6m-57.6 57.6h57.6m0-57.6v57.6m0-57.6h57.6v57.6h-57.6M57.6 635H0v57.6h57.6m0-57.6v57.6m0-57.6h57.6m-57.6 57.6h57.6m0-57.6v57.6m0-57.6h57.6m-57.6 57.6h57.6m0-57.6v57.6m0-57.6h57.6m-57.6 57.6h57.6m0-57.6v57.6m0-57.6H288m-57.6 57.6H288m0-57.6v57.6m0-57.6h57.6M288 692.6h57.6m0-57.6v57.6m0-57.6h57.6m-57.6 57.6h57.6m0-57.6v57.6m0-57.6h57.6m-57.6 57.6h57.6m0-57.6v57.6m0-57.6h57.6m-57.6 57.6h57.6m0-57.6v57.6m0-57.6H576m-57.6 57.6H576m0-57.6v57.6m0-57.6h57.6M576 692.6h57.6m0-57.6v57.6m0-57.6h57.6m-57.6 57.6h57.6m0-57.6v57.6m0-57.6h57.6m-57.6 57.6h57.6m0-57.6v57.6m0-57.6h57.6m-57.6 57.6h57.6m0-57.6v57.6m0-57.6H864m-57.6 57.6H864m0-57.6v57.6m0-57.6h57.6M864 692.6h57.6m0-57.6v57.6m0-57.6h57.6m-57.6 57.6h57.6m0-57.6v57.6m0-57.6h57.6m-57.6 57.6h57.6m0-57.6v57.6m0-57.6h57.6m-57.6 57.6h57.6m0-57.6v57.6m0-57.6h57.6m-57.6 57.6h57.6m0-57.6v57.6m0-57.6h57.6m-57.6 57.6h57.6m0-57.6v57.6m0-57.6h57.6m-57.6 57.6h57.6m0-57.6v57.6m0-57.6h57.6m-57.6 57.6h57.6m0-57.6v57.6m0-57.6h57.6m-57.6 57.6h57.6m0-57.6v57.6m0-57.6h57.6v57.6h-57.6m-1324.8.2H0v57.6h57.6m0-57.6v57.6m0-57.6h57.6m-57.6 57.6h57.6m0-57.6v57.6m0-57.6h57.6m-57.6 57.6h57.6m0-57.6v57.6m0-57.6h57.6m-57.6 57.6h57.6m0-57.6v57.6m0-57.6H288m-57.6 57.6H288m0-57.6v57.6m0-57.6h57.6M288 750.4h57.6m0-57.6v57.6m0-57.6h57.6m-57.6 57.6h57.6m0-57.6v57.6m0-57.6h57.6m-57.6 57.6h57.6m0-57.6v57.6m0-57.6h57.6m-57.6 57.6h57.6m0-57.6v57.6m0-57.6H576m-57.6 57.6H576m0-57.6v57.6m0-57.6h57.6M576 750.4h57.6m0-57.6v57.6m0-57.6h57.6m-57.6 57.6h57.6m0-57.6v57.6m0-57.6h57.6m-57.6 57.6h57.6m0-57.6v57.6m0-57.6h57.6m-57.6 57.6h57.6m0-57.6v57.6m0-57.6H864m-57.6 57.6H864m0-57.6v57.6m0-57.6h57.6M864 750.4h57.6m0-57.6v57.6m0-57.6h57.6m-57.6 57.6h57.6m0-57.6v57.6m0-57.6h57.6m-57.6 57.6h57.6m0-57.6v57.6m0-57.6h57.6m-57.6 57.6h57.6m0-57.6v57.6m0-57.6h57.6m-57.6 57.6h57.6m0-57.6v57.6m0-57.6h57.6m-57.6 57.6h57.6m0-57.6v57.6m0-57.6h57.6m-57.6 57.6h57.6m0-57.6v57.6m0-57.6h57.6m-57.6 57.6h57.6m0-57.6v57.6m0-57.6h57.6m-57.6 57.6h57.6m0-57.6v57.6m0-57.6h57.6v57.6h-57.6m-1324.8.2H0v57.6h57.6m0-57.6v57.6m0-57.6h57.6m-57.6 57.6h57.6m0-57.6v57.6m0-57.6h57.6m-57.6 57.6h57.6m0-57.6v57.6m0-57.6h57.6m-57.6 57.6h57.6m0-57.6v57.6m0-57.6H288m-57.6 57.6H288m0-57.6v57.6m0-57.6h57.6M288 808.2h57.6m0-57.6v57.6m0-57.6h57.6m-57.6 57.6h57.6m0-57.6v57.6m0-57.6h57.6m-57.6 57.6h57.6m0-57.6v57.6m0-57.6h57.6m-57.6 57.6h57.6m0-57.6v57.6m0-57.6H576m-57.6 57.6H576m0-57.6v57.6m0-57.6h57.6M576 808.2h57.6m0-57.6v57.6m0-57.6h57.6m-57.6 57.6h57.6m0-57.6v57.6m0-57.6h57.6m-57.6 57.6h57.6m0-57.6v57.6m0-57.6h57.6m-57.6 57.6h57.6m0-57.6v57.6m0-57.6H864m-57.6 57.6H864m0-57.6v57.6m0-57.6h57.6M864 808.2h57.6m0-57.6v57.6m0-57.6h57.6m-57.6 57.6h57.6m0-57.6v57.6m0-57.6h57.6m-57.6 57.6h57.6m0-57.6v57.6m0-57.6h57.6m-57.6 57.6h57.6m0-57.6v57.6m0-57.6h57.6m-57.6 57.6h57.6m0-57.6v57.6m0-57.6h57.6m-57.6 57.6h57.6m0-57.6v57.6m0-57.6h57.6m-57.6 57.6h57.6m0-57.6v57.6m0-57.6h57.6m-57.6 57.6h57.6m0-57.6v57.6m0-57.6h57.6m-57.6 57.6h57.6m0-57.6v57.6m0-57.6h57.6v57.6h-57.6m-1324.8.2H0V866h57.6m0-57.6V866m0-57.6h57.6M57.6 866h57.6m0-57.6V866m0-57.6h57.6M115.2 866h57.6m0-57.6V866m0-57.6h57.6M172.8 866h57.6m0-57.6V866m0-57.6H288M230.4 866H288m0-57.6V866m0-57.6h57.6M288 866h57.6m0-57.6V866m0-57.6h57.6M345.6 866h57.6m0-57.6V866m0-57.6h57.6M403.2 866h57.6m0-57.6V866m0-57.6h57.6M460.8 866h57.6m0-57.6V866m0-57.6H576M518.4 866H576m0-57.6V866m0-57.6h57.6M576 866h57.6m0-57.6V866m0-57.6h57.6M633.6 866h57.6m0-57.6V866m0-57.6h57.6M691.2 866h57.6m0-57.6V866m0-57.6h57.6M748.8 866h57.6m0-57.6V866m0-57.6H864M806.4 866H864m0-57.6V866m0-57.6h57.6M864 866h57.6m0-57.6V866m0-57.6h57.6M921.6 866h57.6m0-57.6V866m0-57.6h57.6M979.2 866h57.6m0-57.6V866m0-57.6h57.6m-57.6 57.6h57.6m0-57.6V866m0-57.6h57.6m-57.6 57.6h57.6m0-57.6V866m0-57.6h57.6M1152 866h57.6m0-57.6V866m0-57.6h57.6m-57.6 57.6h57.6m0-57.6V866m0-57.6h57.6m-57.6 57.6h57.6m0-57.6V866m0-57.6h57.6m-57.6 57.6h57.6m0-57.6V866m0-57.6h57.6V866h-57.6" stroke="url('#paint0_radial_48_853')"/><g opacity=".4" filter="url('#filter0_f_48_853')"><circle cx="701" cy="-32" r="332" fill="#8F00FF" fill-opacity=".64"/></g><g opacity=".4" filter="url('#filter1_f_48_853')"><circle cx="384" cy="-104" r="218" fill="#FF5ED2"/></g><g opacity=".4" filter="url('#filter2_f_48_853')"><circle cx="1040" cy="-99" r="234" fill="#00FFD1" fill-opacity=".62"/></g><defs><filter id="filter0_f_48_853" x="119" y="-614" width="1164" height="1164" filterUnits="userSpaceOnUse" color-interpolation-filters="sRGB"><feFlood flood-opacity="0" result="BackgroundImageFix"/><feBlend in="SourceGraphic" in2="BackgroundImageFix" result="shape"/><feGaussianBlur stdDeviation="125" result="effect1_foregroundBlur_48_853"/></filter><filter id="filter1_f_48_853" x="-84" y="-572" width="936" height="936" filterUnits="userSpaceOnUse" color-interpolation-filters="sRGB"><feFlood flood-opacity="0" result="BackgroundImageFix"/><feBlend in="SourceGraphic" in2="BackgroundImageFix" result="shape"/><feGaussianBlur stdDeviation="125" result="effect1_foregroundBlur_48_853"/></filter><filter id="filter2_f_48_853" x="556" y="-583" width="968" height="968" filterUnits="userSpaceOnUse" color-interpolation-filters="sRGB"><feFlood flood-opacity="0" result="BackgroundImageFix"/><feBlend in="SourceGraphic" in2="BackgroundImageFix" result="shape"/><feGaussianBlur stdDeviation="125" result="effect1_foregroundBlur_48_853"/></filter><radialGradient id="paint0_radial_48_853" cx="0" cy="0" r="1" gradientUnits="userSpaceOnUse" gradientTransform="matrix(0 1116 -1810.96 0 720 -429)"><stop stop-color="#fff"/><stop offset="1" stop-color="#fff" stop-opacity="0"/></radialGradient></defs></svg>