<svg width="153" height="79" fill="none" xmlns="http://www.w3.org/2000/svg"><g clip-path="url('#clip0_27_47')" fill="#fff"><path d="M.186 13.004v43.125l5.517.021V35.615h13.263V30.18H5.682V18.416h17.295v-5.412H.186Zm32.68 8.77c.957 0 1.875-.383 2.551-1.065a3.652 3.652 0 0 0 1.057-2.571c0-.965-.38-1.89-1.057-2.572a3.593 3.593 0 0 0-2.55-1.065c-.958 0-1.875.383-2.552 1.065a3.651 3.651 0 0 0-1.056 2.572c0 .964.38 1.89 1.056 2.571a3.593 3.593 0 0 0 2.551 1.065Zm-2.78 5.412V56.15h5.518V27.186h-5.518Z"/><path fill-rule="evenodd" clip-rule="evenodd" d="M55.997 26.352c-7.3 0-12.393 6.225-12.393 13.626 0 7.402 5.093 13.627 12.393 13.627 3.353 0 6.112-1.284 8.128-3.423v3.85a8.767 8.767 0 0 1-.625 3.36 8.714 8.714 0 0 1-1.86 2.859 8.635 8.635 0 0 1-2.807 1.916 8.578 8.578 0 0 1-3.324.679c-1.761 0-3.501-.684-4.88-1.669l-2.76 4.813a14.02 14.02 0 0 0 14.422.54 14.164 14.164 0 0 0 5.384-5.24 14.313 14.313 0 0 0 1.968-7.279V27.208h-5.518v2.588c-2.016-2.14-4.775-3.423-8.128-3.423v-.021ZM49.1 39.978c0-4.599 3.48-8.214 7.513-8.214 4.032 0 7.49 3.637 7.49 8.214 0 4.6-3.48 8.193-7.49 8.193-4.032 0-7.513-3.593-7.513-8.193Z"/><path d="M89.463 31.764a5.983 5.983 0 0 0-4.185 1.818 6.08 6.08 0 0 0-1.714 4.257v18.312h-5.518V27.186h5.518v2.653a8.717 8.717 0 0 1 3.13-2.6 8.642 8.642 0 0 1 3.957-.887c3.863 0 6.834 1.925 8.531 4.877.948-1.48 2.244-2.7 3.773-3.55a10.506 10.506 0 0 1 4.992-1.327c6.26 0 10.186 5.091 10.186 11.402V56.15h-5.475V37.818a6.079 6.079 0 0 0-1.714-4.257 5.984 5.984 0 0 0-4.186-1.818 5.981 5.981 0 0 0-4.185 1.818 6.079 6.079 0 0 0-1.714 4.257v18.311h-5.518V37.818a6.08 6.08 0 0 0-1.706-4.25 5.983 5.983 0 0 0-4.172-1.825v.021Z"/><path fill-rule="evenodd" clip-rule="evenodd" d="M147.482 30.48a13.301 13.301 0 0 0-4.427-3.072 13.21 13.21 0 0 0-5.271-1.056c-8.191 0-14.006 6.974-14.006 15.316 0 8.343 5.815 15.317 14.006 15.317 1.809.009 3.602-.352 5.269-1.062a13.365 13.365 0 0 0 4.429-3.067v3.294h5.496V27.187h-5.517v3.295h.021Zm-18.208 11.188c0-5.519 4.202-9.904 9.104-9.904 4.881 0 9.104 4.385 9.104 9.904 0 5.52-4.202 9.883-9.104 9.883-4.881 0-9.104-4.364-9.104-9.883Z"/></g><defs><clipPath id="clip0_27_47"><path fill="#fff" transform="translate(.186)" d="M0 0h152.793v78.022H0z"/></clipPath></defs></svg>