<svg width="220" height="79" viewBox="0 0 220 79" fill="none" xmlns="http://www.w3.org/2000/svg">
<g clip-path="url('#clip0_27_43')">
<path fill-rule="evenodd" clip-rule="evenodd" d="M28.7717 8.1272C13.1185 8.1272 0.440063 20.8056 0.440063 36.4589C0.440063 48.9956 8.55001 59.5846 19.8118 63.3385C21.2284 63.5864 21.7597 62.7365 21.7597 61.9928C21.7597 61.3199 21.7242 59.0888 21.7242 56.716C14.6059 58.0263 12.7643 54.9807 12.1977 53.387C11.879 52.5725 10.4978 50.0581 9.29371 49.3852C8.3021 48.854 6.88552 47.5436 9.2583 47.5082C11.4894 47.4728 13.0831 49.5623 13.6143 50.4122C16.1641 54.6974 20.2368 53.4933 21.8659 52.7496C22.1138 50.908 22.8575 49.6685 23.672 48.9602C17.3682 48.2519 10.7811 45.8083 10.7811 34.9715C10.7811 31.8904 11.879 29.3405 13.6851 27.3573C13.4018 26.649 12.4102 23.745 13.9684 19.8494C13.9684 19.8494 16.3412 19.1057 21.7597 22.7534C24.0262 22.116 26.4344 21.7972 28.8426 21.7972C31.2508 21.7972 33.659 22.116 35.9255 22.7534C41.3439 19.0703 43.7167 19.8494 43.7167 19.8494C45.2749 23.745 44.2833 26.649 44 27.3573C45.8062 29.3405 46.904 31.855 46.904 34.9715C46.904 45.8437 40.2815 48.2519 33.9777 48.9602C35.0047 49.8456 35.8901 51.5455 35.8901 54.2016C35.8901 57.9909 35.8547 61.0366 35.8547 61.9928C35.8547 62.7365 36.3859 63.6219 37.8025 63.3385C43.4268 61.4398 48.3141 57.8251 51.7765 53.0032C55.2388 48.1813 57.1019 42.3951 57.1034 36.4589C57.1034 20.8056 44.425 8.1272 28.7717 8.1272Z" fill="white"></path>
<path d="M132.518 50.1338H132.452C132.481 50.1338 132.501 50.1669 132.531 50.1702H132.551L132.518 50.1372V50.1338ZM132.531 50.1702C132.223 50.1735 131.45 50.3355 130.634 50.3355C128.055 50.3355 127.163 49.1455 127.163 47.592V37.2429H132.418C132.716 37.2429 132.947 36.9785 132.947 36.6149V30.9958C132.947 30.6983 132.683 30.4339 132.418 30.4339H127.163V23.4596C127.163 23.1952 126.998 23.0299 126.7 23.0299H119.561C119.263 23.0299 119.098 23.1952 119.098 23.4596V30.6322C119.098 30.6322 115.495 31.5247 115.264 31.5577C114.999 31.6238 114.834 31.8552 114.834 32.1196V36.6149C114.834 36.9785 115.098 37.2429 115.396 37.2429H119.065V48.0845C119.065 56.1496 124.684 56.9759 128.518 56.9759C130.27 56.9759 132.385 56.414 132.716 56.2488C132.914 56.1827 133.013 55.9513 133.013 55.7199V50.7619C133.018 50.6212 132.972 50.4837 132.883 50.3744C132.794 50.2651 132.669 50.1915 132.531 50.1669V50.1702ZM210.855 42.8951C210.855 36.9124 208.442 36.1191 205.897 36.3835C203.913 36.5158 202.327 37.5074 202.327 37.5074V49.1422C202.327 49.1422 203.947 50.2661 206.359 50.3322C209.764 50.4313 210.855 49.2083 210.855 42.8951ZM218.887 42.3662C218.887 53.7036 215.218 56.9429 208.805 56.9429C203.385 56.9429 200.476 54.1994 200.476 54.1994C200.476 54.1994 200.344 55.7199 200.178 55.9182C200.079 56.1166 199.914 56.1827 199.716 56.1827H194.824C194.493 56.1827 194.196 55.9182 194.196 55.6207L194.262 18.8982C194.262 18.6007 194.526 18.3363 194.824 18.3363H201.864C202.162 18.3363 202.426 18.6007 202.426 18.8982V31.3594C202.426 31.3594 205.136 29.6076 209.103 29.6076L209.07 29.5414C213.036 29.5414 218.887 31.0289 218.887 42.3662ZM190.064 30.4339H183.123C182.759 30.4339 182.561 30.6983 182.561 31.0619V49.0431C182.561 49.0431 180.743 50.3322 178.264 50.3322C175.785 50.3322 175.058 49.2083 175.058 46.7293V31.0289C175.058 30.7314 174.793 30.4669 174.496 30.4669H167.422C167.125 30.4669 166.86 30.7314 166.86 31.0289V47.9193C166.86 55.191 170.926 57.009 176.512 57.009C181.106 57.009 184.842 54.4639 184.842 54.4639C184.842 54.4639 185.007 55.753 185.106 55.9513C185.172 56.1165 185.403 56.2488 185.635 56.2488H190.064C190.428 56.2488 190.626 55.9843 190.626 55.6869L190.692 30.9958C190.692 30.6983 190.428 30.4339 190.064 30.4339ZM111.727 30.4008H104.686C104.389 30.4008 104.125 30.6983 104.125 31.0619V55.3233C104.125 55.9843 104.554 56.2157 105.116 56.2157H111.462C112.124 56.2157 112.289 55.9182 112.289 55.3233V30.9628C112.289 30.6653 112.024 30.4008 111.727 30.4008ZM108.256 19.2287C105.711 19.2287 103.695 21.245 103.695 23.7901C103.695 26.3352 105.711 28.3515 108.256 28.3515C110.735 28.3515 112.752 26.3352 112.752 23.7901C112.752 21.245 110.735 19.2287 108.256 19.2287ZM162.762 18.4024H155.787C155.49 18.4024 155.225 18.6668 155.225 18.9643V32.4832H144.285V18.9643C144.285 18.6668 144.02 18.4024 143.723 18.4024H136.682C136.385 18.4024 136.12 18.6668 136.12 18.9643V55.6869C136.12 55.9843 136.418 56.2488 136.682 56.2488H143.723C144.02 56.2488 144.285 55.9843 144.285 55.6869V39.9864H155.225L155.159 55.6869C155.159 55.9843 155.424 56.2488 155.721 56.2488H162.762C163.059 56.2488 163.324 55.9843 163.324 55.6869V18.9643C163.324 18.6668 163.059 18.4024 162.762 18.4024ZM100.39 34.6648V53.6375C100.39 53.7697 100.356 54.0011 100.191 54.0672C100.191 54.0672 96.0595 57.009 89.2504 57.009C81.0201 57.009 71.2693 54.4308 71.2693 37.4413C71.2693 20.4517 79.7971 16.948 88.1266 16.9811C95.3323 16.9811 98.241 18.6007 98.7038 18.8982C98.836 19.0635 98.9021 19.1957 98.9021 19.3609L97.5138 25.2445C97.5138 25.542 97.2164 25.9055 96.8528 25.8064C95.6628 25.4428 93.8779 24.7156 89.6801 24.7156C84.8212 24.7156 79.5988 26.1039 79.5988 37.0446C79.5988 47.9854 84.5568 49.2745 88.1266 49.2745C91.1675 49.2745 92.2583 48.9109 92.2583 48.9109V41.3085H87.3994C87.0358 41.3085 86.7714 41.0441 86.7714 40.7466V34.6648C86.7714 34.3673 87.0358 34.1028 87.3994 34.1028H99.7615C100.125 34.1028 100.39 34.3673 100.39 34.6648Z" fill="white"></path>
</g>
<defs>
<clipPath id="clip0_27_43">
<rect width="219.436" height="78.0218" fill="white" transform="translate(0.440063)"></rect>
</clipPath>
</defs>
</svg>
