<svg width="220" height="79" fill="none" xmlns="http://www.w3.org/2000/svg"><g clip-path="url('#clip0_27_43')" fill="#fff"><path fill-rule="evenodd" clip-rule="evenodd" d="M28.772 8.127C13.119 8.127.44 20.806.44 36.46c0 12.537 8.11 23.126 19.372 26.88 1.416.247 1.948-.602 1.948-1.346 0-.673-.036-2.904-.036-5.277-7.118 1.31-8.96-1.735-9.526-3.329-.319-.815-1.7-3.329-2.904-4.002-.992-.531-2.408-1.841-.036-1.877 2.231-.035 3.825 2.054 4.356 2.904 2.55 4.285 6.623 3.081 8.252 2.338.248-1.842.992-3.081 1.806-3.79-6.304-.708-12.89-3.152-12.89-13.989 0-3.08 1.097-5.63 2.903-7.614-.283-.708-1.275-3.612.283-7.508 0 0 2.373-.743 7.792 2.904a26.292 26.292 0 0 1 7.083-.956c2.408 0 4.816.319 7.082.956 5.419-3.683 7.792-2.904 7.792-2.904 1.558 3.896.566 6.8.283 7.508 1.806 1.983 2.904 4.498 2.904 7.614 0 10.873-6.623 13.28-12.926 13.99 1.027.885 1.912 2.584 1.912 5.24 0 3.79-.035 6.836-.035 7.792 0 .743.53 1.629 1.948 1.346a28.378 28.378 0 0 0 19.3-26.88c0-15.653-12.678-28.332-28.331-28.332Z"/><path d="M132.518 50.134h-.066c.029 0 .049.033.079.036h.02l-.033-.033v-.003Zm.013.036c-.308.003-1.081.166-1.897.166-2.579 0-3.471-1.19-3.471-2.744v-10.35h5.255c.298 0 .529-.264.529-.627v-5.62c0-.297-.264-.561-.529-.561h-5.255V23.46c0-.265-.165-.43-.463-.43h-7.139c-.298 0-.463.165-.463.43v7.172s-3.603.893-3.834.926a.566.566 0 0 0-.43.562v4.495c0 .363.264.628.562.628h3.669v10.841c0 8.066 5.619 8.892 9.453 8.892 1.752 0 3.867-.562 4.198-.727.198-.066.297-.298.297-.53v-4.957a.58.58 0 0 0-.482-.595v.003Zm78.324-7.275c0-5.983-2.413-6.776-4.958-6.512-1.984.133-3.57 1.124-3.57 1.124v11.635s1.62 1.124 4.032 1.19c3.405.1 4.496-1.124 4.496-7.437Zm8.032-.529c0 11.338-3.669 14.577-10.082 14.577-5.42 0-8.329-2.744-8.329-2.744s-.132 1.52-.298 1.72c-.099.198-.264.264-.462.264h-4.892c-.331 0-.628-.265-.628-.562l.066-36.723c0-.297.264-.562.562-.562h7.04c.298 0 .562.265.562.562V31.36s2.71-1.751 6.677-1.751l-.033-.067c3.966 0 9.817 1.488 9.817 12.825Zm-28.823-11.932h-6.941c-.364 0-.562.264-.562.628v17.981s-1.818 1.29-4.297 1.29c-2.479 0-3.206-1.125-3.206-3.604v-15.7a.58.58 0 0 0-.562-.562h-7.074a.58.58 0 0 0-.562.562v16.89c0 7.272 4.066 9.09 9.652 9.09 4.594 0 8.33-2.545 8.33-2.545s.165 1.289.264 1.487c.066.166.297.298.529.298h4.429c.364 0 .562-.265.562-.562l.066-24.691c0-.298-.264-.562-.628-.562Zm-78.337-.033h-7.041c-.297 0-.561.297-.561.66v24.262c0 .661.429.893.991.893h6.346c.662 0 .827-.298.827-.893v-24.36a.58.58 0 0 0-.562-.562Zm-3.471-11.172a4.528 4.528 0 0 0-4.561 4.561 4.528 4.528 0 0 0 4.561 4.562c2.479 0 4.496-2.017 4.496-4.562 0-2.545-2.017-4.561-4.496-4.561Zm54.506-.827h-6.975a.58.58 0 0 0-.562.562v13.52h-10.94v-13.52a.58.58 0 0 0-.562-.562h-7.041a.58.58 0 0 0-.562.562v36.723c0 .297.298.562.562.562h7.041a.58.58 0 0 0 .562-.562v-15.7h10.94l-.066 15.7a.58.58 0 0 0 .562.562h7.041a.58.58 0 0 0 .562-.562V18.964a.58.58 0 0 0-.562-.562ZM100.39 34.665v18.973c0 .132-.034.363-.199.43 0 0-4.132 2.941-10.94 2.941-8.23 0-17.982-2.578-17.982-19.568 0-16.99 8.528-20.493 16.858-20.46 7.205 0 10.114 1.62 10.577 1.917.132.166.198.298.198.463l-1.388 5.883c0 .298-.298.662-.661.562-1.19-.363-2.975-1.09-7.173-1.09-4.859 0-10.081 1.388-10.081 12.329 0 10.94 4.958 12.23 8.528 12.23 3.04 0 4.131-.364 4.131-.364v-7.602H87.4c-.363 0-.628-.265-.628-.562v-6.082c0-.298.265-.562.628-.562h12.362c.364 0 .629.264.629.562Z"/></g><defs><clipPath id="clip0_27_43"><path fill="#fff" transform="translate(.44)" d="M0 0h219.436v78.022H0z"/></clipPath></defs></svg>