<svg width="226" height="159" viewBox="0 0 226 159" fill="none" xmlns="http://www.w3.org/2000/svg">
<path d="M46.638 92.6387C37.7546 92.6387 29.7595 90.7087 22.6527 86.8487C15.6941 82.8403 10.1419 77.3473 5.99632 70.3697C1.99877 63.3922 0 55.3753 0 46.3193C0 37.2633 1.99877 29.2465 5.99632 22.2689C10.1419 15.2913 15.6941 9.87255 22.6527 6.01261C29.7595 2.0042 37.7546 0 46.638 0C55.5214 0 63.4425 2.0042 70.4012 6.01261C77.5079 9.87255 83.0601 15.2913 87.0576 22.2689C91.2032 29.2465 93.276 37.2633 93.276 46.3193C93.276 55.3753 91.2032 63.3922 87.0576 70.3697C83.0601 77.3473 77.5079 82.8403 70.4012 86.8487C63.4425 90.7087 55.5214 92.6387 46.638 92.6387ZM46.638 83.2857C57.7423 83.2857 66.6257 79.9454 73.2883 73.2647C80.0989 66.4356 83.5042 57.4538 83.5042 46.3193C83.5042 35.1849 80.0989 26.2773 73.2883 19.5966C66.6257 12.7675 57.7423 9.35294 46.638 9.35294C35.5337 9.35294 26.5763 12.7675 19.7656 19.5966C13.1031 26.2773 9.77177 35.1849 9.77177 46.3193C9.77177 57.4538 13.1031 66.4356 19.7656 73.2647C26.5763 79.9454 35.5337 83.2857 46.638 83.2857ZM30.6478 70.5924V21.1555H49.5251C55.0032 21.1555 59.1488 22.4916 61.9619 25.1639C64.775 27.8361 66.1816 30.9538 66.1816 34.5168C66.1816 37.3375 65.4413 39.8613 63.9607 42.0882C62.6282 44.1667 60.4073 45.7997 57.2981 46.9874V49.2143C59.8151 49.3627 61.5918 50.1793 62.6282 51.6639C63.8126 53.1485 64.4049 55.1527 64.4049 57.6765V70.5924H55.0773V57.2311C55.0773 54.1134 53.5227 52.5546 50.4135 52.5546H39.9754V70.5924H30.6478ZM39.9754 44.0924H49.5251C52.0421 44.0924 53.8928 43.3501 55.0773 41.8655C56.2617 40.381 56.854 38.6737 56.854 36.7437C56.854 34.6653 56.2617 32.958 55.0773 31.6219C53.8928 30.2857 52.0421 29.6176 49.5251 29.6176H39.9754V44.0924Z" fill="white"></path>
<path d="M119.399 159V3.11765H147.382V89.2983H151.379L187.801 48.5462H224.223L173.366 101.992L226 159H190.022L151.379 115.13H147.382V159H119.399Z" fill="white"></path>
</svg>
