<svg width="226" height="159" fill="none" xmlns="http://www.w3.org/2000/svg"><path d="M46.638 92.639c-8.883 0-16.878-1.93-23.985-5.79-6.959-4.009-12.511-9.502-16.657-16.48C2 63.393 0 55.376 0 46.32c0-9.056 1.999-17.073 5.996-24.05 4.146-6.978 9.698-12.396 16.657-16.256C29.76 2.004 37.755 0 46.638 0s16.805 2.004 23.763 6.013c7.107 3.86 12.66 9.278 16.657 16.256 4.145 6.978 6.218 14.994 6.218 24.05 0 9.056-2.073 17.073-6.218 24.05-3.998 6.978-9.55 12.471-16.657 16.48-6.958 3.86-14.88 5.79-23.763 5.79Zm0-9.353c11.104 0 19.988-3.34 26.65-10.021 6.81-6.83 10.216-15.811 10.216-26.946 0-11.134-3.405-20.042-10.216-26.722-6.662-6.83-15.546-10.244-26.65-10.244s-20.062 3.415-26.872 10.244c-6.663 6.68-9.994 15.588-9.994 26.722 0 11.135 3.331 20.117 9.994 26.946 6.81 6.68 15.768 10.02 26.872 10.02Zm-15.99-12.694V21.156h18.877c5.478 0 9.624 1.336 12.437 4.008 2.813 2.672 4.22 5.79 4.22 9.353 0 2.82-.74 5.344-2.221 7.571-1.333 2.079-3.554 3.712-6.663 4.9v2.226c2.517.149 4.294.965 5.33 2.45 1.185 1.484 1.777 3.489 1.777 6.012v12.916h-9.328v-13.36c0-3.119-1.554-4.677-4.663-4.677H39.974v18.037h-9.327Zm9.327-26.5h9.55c2.517 0 4.368-.742 5.552-2.227 1.185-1.484 1.777-3.191 1.777-5.121 0-2.079-.592-3.786-1.777-5.122-1.184-1.336-3.035-2.004-5.552-2.004h-9.55v14.474ZM119.399 159V3.118h27.983v86.18h3.997l36.422-40.752h36.422l-50.857 53.446L226 159h-35.978l-38.643-43.87h-3.997V159h-27.983Z" fill="#fff"/></svg>