<svg width="233" height="79" viewBox="0 0 233 79" fill="none" xmlns="http://www.w3.org/2000/svg">
<path d="M86.4947 20.7598H73.6939C72.8179 20.7598 72.0729 21.3962 71.9363 22.2609L66.7591 55.0855C66.6561 55.7332 67.1578 56.3171 67.8147 56.3171H73.9259C74.8019 56.3171 75.5469 55.6807 75.6835 54.8141L77.0798 45.9608C77.2146 45.0942 77.9614 44.4578 78.8355 44.4578H82.8878C91.32 44.4578 96.1865 40.3774 97.4574 32.2915C98.0302 28.754 97.4817 25.9744 95.8253 24.0278C94.0059 21.8903 90.7791 20.7598 86.4947 20.7598ZM87.9715 32.7482C87.2714 37.3415 83.7619 37.3415 80.3685 37.3415H78.4368L79.792 28.7633C79.8725 28.2448 80.3217 27.863 80.8458 27.863H81.7311C84.0427 27.863 86.2233 27.863 87.35 29.1807C88.022 29.9668 88.2279 31.1348 87.9715 32.7482Z" fill="white"></path>
<path d="M124.759 32.6004H118.629C118.107 32.6004 117.656 32.9822 117.575 33.5007L117.304 35.2152L116.875 34.5938C115.548 32.6677 112.589 32.0239 109.635 32.0239C102.861 32.0239 97.0759 37.1543 95.9491 44.3511C95.3633 47.9411 96.1962 51.3739 98.2326 53.7678C100.101 55.969 102.773 56.8861 105.954 56.8861C111.412 56.8861 114.438 53.3766 114.438 53.3766L114.165 55.0799C114.062 55.7313 114.564 56.3152 115.217 56.3152H120.738C121.616 56.3152 122.357 55.6789 122.496 54.8122L125.809 33.832C125.914 33.1862 125.414 32.6004 124.759 32.6004ZM116.214 44.5308C115.623 48.0328 112.843 50.3837 109.298 50.3837C107.518 50.3837 106.096 49.8128 105.182 48.731C104.276 47.6566 103.932 46.1274 104.22 44.4241C104.772 40.952 107.599 38.5244 111.09 38.5244C112.83 38.5244 114.245 39.1028 115.177 40.194C116.111 41.2964 116.482 42.835 116.214 44.5308Z" fill="white"></path>
<path d="M157.406 32.6003H151.246C150.658 32.6003 150.106 32.8923 149.773 33.3808L141.277 45.8952L137.676 33.8693C137.449 33.1169 136.755 32.6003 135.969 32.6003H129.915C129.18 32.6003 128.669 33.319 128.903 34.0116L135.688 53.9231L129.309 62.928C128.807 63.6374 129.313 64.6126 130.179 64.6126H136.332C136.916 64.6126 137.462 64.3281 137.794 63.8489L158.282 34.2755C158.772 33.568 158.268 32.6003 157.406 32.6003Z" fill="white"></path>
<path d="M177.8 20.7596H164.997C164.123 20.7596 163.378 21.3959 163.242 22.2607L158.064 55.0853C157.961 55.7329 158.463 56.3169 159.116 56.3169H165.686C166.296 56.3169 166.818 55.8714 166.914 55.265L168.383 45.9606C168.518 45.094 169.265 44.4576 170.139 44.4576H174.189C182.623 44.4576 187.488 40.3772 188.761 32.2913C189.335 28.7537 188.783 25.9742 187.127 24.0276C185.309 21.8901 182.084 20.7596 177.8 20.7596ZM179.277 32.748C178.579 37.3413 175.069 37.3413 171.674 37.3413H169.744L171.101 28.7631C171.181 28.2446 171.627 27.8628 172.153 27.8628H173.038C175.348 27.8628 177.53 27.8628 178.657 29.1805C179.329 29.9666 179.533 31.1346 179.277 32.748Z" fill="white"></path>
<path d="M216.062 32.6001H209.936C209.41 32.6001 208.963 32.982 208.884 33.5004L208.613 35.215L208.182 34.5935C206.855 32.6675 203.898 32.0236 200.944 32.0236C194.17 32.0236 188.387 37.1541 187.26 44.3509C186.676 47.9409 187.505 51.3736 189.541 53.7676C191.413 55.9688 194.082 56.8859 197.262 56.8859C202.72 56.8859 205.747 53.3764 205.747 53.3764L205.474 55.0797C205.371 55.731 205.872 56.315 206.529 56.315H212.049C212.923 56.315 213.668 55.6786 213.805 54.812L217.12 33.8317C217.221 33.186 216.719 32.6001 216.062 32.6001ZM207.518 44.5306C206.93 48.0326 204.147 50.3835 200.602 50.3835C198.825 50.3835 197.399 49.8126 196.486 48.7308C195.58 47.6564 195.239 46.1272 195.524 44.4239C196.079 40.9518 198.902 38.5242 202.393 38.5242C204.133 38.5242 205.549 39.1025 206.481 40.1938C207.418 41.2962 207.789 42.8348 207.518 44.5306Z" fill="white"></path>
<path d="M223.289 21.6597L218.035 55.0852C217.932 55.7328 218.433 56.3168 219.087 56.3168H224.369C225.247 56.3168 225.991 55.6804 226.126 54.8138L231.307 21.991C231.41 21.3434 230.909 20.7576 230.255 20.7576H224.341C223.818 20.7594 223.369 21.1413 223.289 21.6597Z" fill="white"></path>
<path d="M13.5999 62.6959L14.5788 56.478L12.3982 56.4274H1.98578L9.22191 10.5456C9.24437 10.4071 9.31737 10.2779 9.42406 10.1862C9.53075 10.0945 9.66738 10.0439 9.80964 10.0439H27.3665C33.1951 10.0439 37.2175 11.2568 39.3176 13.6508C40.3021 14.7738 40.9291 15.9474 41.2323 17.2389C41.5505 18.594 41.5561 20.2131 41.2454 22.1878L41.223 22.3319V23.5972L42.2075 24.155C43.0367 24.5948 43.6955 25.0983 44.2009 25.6748C45.0432 26.635 45.5879 27.8554 45.8181 29.3022C46.0558 30.7903 45.9772 32.5609 45.5879 34.5656C45.1387 36.8715 44.4124 38.8799 43.4316 40.5233C42.5295 42.0375 41.3802 43.2935 40.0157 44.2668C38.713 45.1914 37.1651 45.8933 35.415 46.3425C33.7192 46.7842 31.7857 47.007 29.665 47.007H28.2986C27.3216 47.007 26.3726 47.3589 25.6277 47.9896C24.8809 48.6335 24.3867 49.5132 24.2351 50.4753L24.1322 51.035L22.4027 61.994L22.3241 62.3964C22.3035 62.5237 22.2679 62.5873 22.2155 62.6304C22.1687 62.6697 22.1013 62.6959 22.0358 62.6959H13.5999Z" fill="white"></path>
<path d="M43.1398 22.4778C43.0874 22.8128 43.0275 23.1554 42.9601 23.5072C40.6448 35.3946 32.7236 39.5012 22.6068 39.5012H17.4558C16.2186 39.5012 15.1761 40.3997 14.9833 41.62L12.346 58.3459L11.5992 63.087C11.4738 63.8881 12.0914 64.6106 12.9 64.6106H22.036C23.1178 64.6106 24.0369 63.8244 24.2072 62.7575L24.297 62.2934L26.0171 51.3774L26.1276 50.7784C26.296 49.7078 27.2169 48.9217 28.2988 48.9217H29.6652C38.5166 48.9217 45.4458 45.3279 47.471 34.9286C48.317 30.5843 47.879 26.9568 45.6404 24.4057C44.9629 23.6364 44.1225 22.9981 43.1398 22.4778Z" fill="white"></path>
<path d="M40.7176 21.5122C40.3638 21.4093 39.9988 21.3157 39.6245 21.2314C39.2482 21.1491 38.8627 21.0761 38.4659 21.0124C37.077 20.7878 35.5553 20.6812 33.925 20.6812H20.164C19.8252 20.6812 19.5033 20.7579 19.2151 20.8964C18.5805 21.2015 18.1089 21.8023 17.9947 22.5379L15.0673 41.0793L14.9831 41.6203C15.1759 40.3999 16.2184 39.5015 17.4556 39.5015H22.6066C32.7234 39.5015 40.6446 35.393 42.9599 23.5075C43.0291 23.1556 43.0872 22.8131 43.1396 22.478C42.5537 22.1673 41.9192 21.9015 41.236 21.675C41.0676 21.6189 40.8935 21.5646 40.7176 21.5122Z" fill="#ADADAD"></path>
<path d="M17.9948 22.5377C18.109 21.8021 18.5807 21.2013 19.2152 20.8981C19.5053 20.7595 19.8254 20.6828 20.1642 20.6828H33.9252C35.5555 20.6828 37.0772 20.7895 38.466 21.0141C38.8628 21.0777 39.2484 21.1507 39.6246 21.2331C39.999 21.3173 40.364 21.4109 40.7177 21.5139C40.8937 21.5663 41.0677 21.6205 41.2381 21.6748C41.9212 21.9013 42.5558 22.169 43.1416 22.4778C43.8304 18.0848 43.136 15.0938 40.7608 12.3854C38.1422 9.40372 33.4161 8.1272 27.3685 8.1272H9.81162C8.57627 8.1272 7.52249 9.02563 7.33157 10.2479L0.0186964 56.6014C-0.125427 57.5186 0.582089 58.3459 1.50673 58.3459H12.3459L15.0675 41.0791L17.9948 22.5377Z" fill="white"></path>
</svg>
