<svg width="233" height="79" fill="none" xmlns="http://www.w3.org/2000/svg"><path d="M86.495 20.76H73.694c-.876 0-1.621.636-1.758 1.5L66.76 55.087a1.066 1.066 0 0 0 1.056 1.231h6.11c.877 0 1.622-.636 1.758-1.503l1.397-8.853a1.777 1.777 0 0 1 1.755-1.503h4.053c8.432 0 13.298-4.08 14.57-12.166.572-3.538.024-6.318-1.633-8.264-1.82-2.138-5.046-3.268-9.33-3.268Zm1.477 11.988c-.7 4.594-4.21 4.594-7.603 4.594h-1.932l1.355-8.579c.08-.518.53-.9 1.054-.9h.885c2.312 0 4.492 0 5.619 1.318.672.786.878 1.954.622 3.567ZM124.759 32.6h-6.13c-.522 0-.973.382-1.054.9l-.271 1.715-.429-.621c-1.327-1.926-4.286-2.57-7.24-2.57-6.774 0-12.56 5.13-13.686 12.327-.586 3.59.247 7.023 2.284 9.417 1.868 2.201 4.54 3.118 7.721 3.118 5.458 0 8.484-3.51 8.484-3.51l-.273 1.704a1.066 1.066 0 0 0 1.052 1.235h5.521a1.78 1.78 0 0 0 1.758-1.503l3.313-20.98a1.062 1.062 0 0 0-1.05-1.232Zm-8.545 11.93c-.591 3.503-3.371 5.854-6.916 5.854-1.78 0-3.202-.571-4.116-1.653-.906-1.074-1.25-2.604-.962-4.307.552-3.472 3.379-5.9 6.87-5.9 1.74 0 3.155.579 4.087 1.67.934 1.102 1.305 2.641 1.037 4.337ZM157.406 32.6h-6.16c-.588 0-1.14.292-1.473.78l-8.496 12.515-3.601-12.026a1.785 1.785 0 0 0-1.707-1.269h-6.054c-.735 0-1.246.719-1.012 1.412l6.785 19.911-6.379 9.005c-.502.71.004 1.685.87 1.685h6.153c.584 0 1.13-.285 1.462-.764l20.488-29.573a1.067 1.067 0 0 0-.876-1.676ZM177.8 20.76h-12.803c-.874 0-1.619.636-1.755 1.5l-5.178 32.825a1.065 1.065 0 0 0 1.052 1.232h6.57c.61 0 1.132-.446 1.228-1.052l1.469-9.304a1.777 1.777 0 0 1 1.756-1.503h4.05c8.434 0 13.299-4.08 14.572-12.167.574-3.537.022-6.317-1.634-8.263-1.818-2.138-5.043-3.268-9.327-3.268Zm1.477 11.988c-.698 4.593-4.208 4.593-7.603 4.593h-1.93l1.357-8.578c.08-.518.526-.9 1.052-.9h.885c2.31 0 4.492 0 5.619 1.317.672.787.876 1.955.62 3.568ZM216.062 32.6h-6.126c-.526 0-.973.382-1.052.9l-.271 1.715-.431-.622c-1.327-1.926-4.284-2.57-7.238-2.57-6.774 0-12.557 5.131-13.684 12.328-.584 3.59.245 7.023 2.281 9.417 1.872 2.2 4.541 3.118 7.721 3.118 5.458 0 8.485-3.51 8.485-3.51l-.273 1.704a1.067 1.067 0 0 0 1.055 1.235h5.52c.874 0 1.619-.636 1.756-1.503l3.315-20.98a1.07 1.07 0 0 0-1.058-1.232Zm-8.544 11.93c-.588 3.503-3.371 5.853-6.916 5.853-1.777 0-3.203-.57-4.116-1.652-.906-1.075-1.247-2.604-.962-4.307.555-3.472 3.378-5.9 6.869-5.9 1.74 0 3.156.578 4.088 1.67.937 1.102 1.308 2.64 1.037 4.337ZM223.289 21.66l-5.254 33.425a1.065 1.065 0 0 0 1.052 1.232h5.282c.878 0 1.622-.637 1.757-1.503l5.181-32.823a1.066 1.066 0 0 0-1.052-1.233h-5.914a1.068 1.068 0 0 0-1.052.902ZM13.6 62.696l.979-6.218-2.18-.05H1.985l7.236-45.882a.606.606 0 0 1 .202-.36.591.591 0 0 1 .386-.142h17.556c5.83 0 9.852 1.213 11.952 3.607.984 1.123 1.611 2.296 1.914 3.588.319 1.355.324 2.974.013 4.949l-.022.144v1.265l.985.558c.829.44 1.488.943 1.993 1.52.842.96 1.387 2.18 1.617 3.627.238 1.488.16 3.259-.23 5.264-.45 2.305-1.176 4.314-2.156 5.957-.903 1.514-2.052 2.77-3.416 3.744-1.303.924-2.85 1.626-4.601 2.075-1.696.442-3.63.665-5.75.665h-1.366c-.977 0-1.926.352-2.671.983a4.137 4.137 0 0 0-1.393 2.485l-.103.56-1.73 10.959-.078.402c-.02.128-.056.191-.109.234a.29.29 0 0 1-.18.066H13.6Z" fill="#fff"/><path d="M43.14 22.478c-.053.335-.112.677-.18 1.03C40.645 35.394 32.724 39.5 22.607 39.5h-5.151c-1.237 0-2.28.899-2.473 2.119l-2.637 16.726-.747 4.741a1.318 1.318 0 0 0 1.301 1.524h9.136c1.082 0 2-.787 2.171-1.854l.09-.464 1.72-10.916.11-.599a2.197 2.197 0 0 1 2.172-1.856h1.366c8.852 0 15.78-3.594 17.806-13.993.846-4.345.408-7.972-1.83-10.523-.678-.77-1.518-1.408-2.501-1.928Z" fill="#fff"/><path d="M40.718 21.512a18.37 18.37 0 0 0-1.094-.28 20.987 20.987 0 0 0-1.158-.22c-1.389-.224-2.91-.33-4.541-.33H20.164a2.194 2.194 0 0 0-2.17 1.857l-2.927 18.54-.084.541a2.501 2.501 0 0 1 2.473-2.118h5.15c10.117 0 18.039-4.109 20.354-15.995.07-.351.127-.694.18-1.029-.586-.31-1.22-.577-1.904-.803-.168-.056-.342-.11-.518-.163Z" fill="#ADADAD"/><path d="M17.995 22.538a2.188 2.188 0 0 1 2.17-1.855h13.76c1.63 0 3.152.107 4.541.331a18.178 18.178 0 0 1 2.772.66c.683.227 1.318.495 1.904.804.688-4.393-.006-7.384-2.381-10.093-2.619-2.981-7.345-4.258-13.393-4.258H9.813a2.51 2.51 0 0 0-2.48 2.12L.019 56.602a1.508 1.508 0 0 0 1.488 1.745h10.839l2.722-17.267 2.927-18.541Z" fill="#fff"/></svg>