<svg width="127" height="79" viewBox="0 0 127 79" fill="none" xmlns="http://www.w3.org/2000/svg">
<g clip-path="url('#clip0_27_45')">
<path d="M66.9378 34.5108C67.1837 34.2499 67.4788 34.0402 67.8061 33.8938C68.1334 33.7474 68.4865 33.6672 68.8449 33.6579C69.2033 33.6486 69.5601 33.7103 69.8946 33.8394C70.2291 33.9686 70.5347 34.1626 70.7939 34.4104C71.053 34.6582 71.2606 34.9548 71.4046 35.2832C71.5486 35.6116 71.6262 35.9652 71.633 36.3237C71.6397 36.6822 71.5755 37.0385 71.4439 37.372C71.3124 37.7056 71.1161 38.0098 70.8664 38.2672C70.3669 38.7821 69.6841 39.0786 68.9668 39.0921C68.2495 39.1056 67.556 38.835 67.0375 38.3392C66.5189 37.8434 66.2174 37.1627 66.1988 36.4455C66.1801 35.7284 66.4457 35.0329 66.9378 34.5108V34.5108ZM82.5096 58.4231C82.4374 56.3284 81.8172 54.1159 80.2351 52.6546C78.4689 51.0239 75.9132 50.2756 73.5371 50.2756H62.9457C61.8999 50.2756 60.9748 49.4949 60.9748 48.5315C60.9748 47.736 61.5139 47.0437 62.2829 46.8448C62.2799 46.8434 62.464 46.7977 62.6585 46.7343C64.5913 47.6252 66.6981 48.0751 68.8262 48.0513C72.092 48.0513 75.3637 47.0967 77.7604 44.8694C80.0952 42.6996 81.1853 39.6666 81.1853 36.5613C81.1853 33.4561 80.0952 30.426 77.7604 28.2577C77.0795 27.6259 76.3206 27.0839 75.5022 26.6446C77.7516 27.1632 80.0731 26.5209 81.6699 23.781L77.1697 20.5653L73.4178 25.7623C71.9321 25.2965 70.3832 25.0639 68.8262 25.0729C65.5619 25.0729 62.2873 26.0274 59.8906 28.2547C57.5573 30.4245 56.4687 33.4576 56.4687 36.5599C56.4687 39.6621 57.5573 42.6981 59.8906 44.868C60.0954 45.055 60.3031 45.2333 60.5196 45.4042L60.0806 45.6354C58.9808 46.2653 57.9825 47.058 57.1198 47.9865C55.6408 49.5523 54.1618 51.8975 54.1618 55.0189C54.1618 55.0189 53.9556 61.6772 61.645 61.6772H67.2147C68.4963 61.6772 69.8043 62.4873 69.8043 63.7615C69.8043 64.2079 69.6747 64.6439 69.4317 65.0166H80.0849C81.6901 63.1993 82.5554 60.846 82.5096 58.4217V58.4231ZM93.97 34.5079C94.3529 34.1408 94.8351 33.8944 95.3568 33.7991C95.8786 33.7039 96.4168 33.7641 96.9046 33.9722C97.3924 34.1803 97.8083 34.5271 98.1007 34.9696C98.393 35.4122 98.5488 35.9308 98.5488 36.4612C98.5488 36.9915 98.393 37.5102 98.1007 37.9527C97.8083 38.3952 97.3924 38.7421 96.9046 38.9502C96.4168 39.1583 95.8786 39.2184 95.3568 39.1232C94.8351 39.028 94.3529 38.7815 93.97 38.4145C93.4868 37.8786 93.2194 37.1827 93.2194 36.4612C93.2194 35.7396 93.4868 35.0437 93.97 34.5079V34.5079ZM112.84 58.4217C112.769 56.327 112.148 54.1144 110.567 52.6531C108.799 51.0225 106.244 50.2741 103.871 50.2741L91.5763 50.1857C90.8 50.1857 90.2093 49.7026 90.2093 48.9867C90.2093 48.3974 90.5024 47.5195 91.2463 47.3737C92.7165 47.8303 94.247 48.0572 95.7863 48.0498C99.0536 48.0498 102.327 47.0952 104.722 44.868C107.055 42.6981 108.145 39.6651 108.145 36.5599C108.145 33.4546 107.055 30.4245 104.722 28.2562C104.04 27.6249 103.281 27.0833 102.462 26.6446C104.712 27.1632 107.033 26.5209 108.63 23.781L104.133 20.5653L100.378 25.7623C98.8922 25.2965 97.3433 25.0639 95.7863 25.0729C92.522 25.0729 89.2474 26.0274 86.8507 28.2547C84.5203 30.4245 83.4288 33.4576 83.4288 36.5599C83.4288 39.6621 84.5188 42.6981 86.8507 44.868C87.5357 45.5014 88.3002 46.0435 89.1236 46.4825C88.5256 46.9362 87.9673 47.4399 87.4532 47.985C85.9713 49.5523 84.4923 51.8975 84.4923 55.0189C84.4923 55.0189 84.2876 61.6772 91.977 61.6772H97.5466C98.8297 61.6772 100.133 62.4873 100.133 63.7615C100.133 64.2079 100.007 64.6424 99.7636 65.0166H110.415C112.022 63.1999 112.887 60.8462 112.84 58.4217V58.4217ZM125.732 55.0042V45.0668C123.436 45.357 122.639 43.7455 122.639 42.1487V17.8799H111.258V43.9635C111.258 47.2013 111.744 49.9029 112.918 51.6043C114.721 54.191 117.165 55.8836 122.022 55.9057C122.917 55.8644 124.414 55.6891 125.732 55.0071V55.0042ZM41.9663 42.9191C41.3774 43.5694 40.5796 43.9933 39.711 44.1171C38.8425 44.2409 37.958 44.0569 37.2108 43.597C36.4637 43.1371 35.9011 42.4302 35.6204 41.599C35.3397 40.7678 35.3588 39.8645 35.6742 39.0458C35.9896 38.2272 36.5816 37.5447 37.3474 37.1166C38.1132 36.6886 39.0047 36.542 39.8673 36.7023C40.7298 36.8626 41.5091 37.3197 42.0701 37.9942C42.631 38.6688 42.9383 39.5184 42.9385 40.3957C42.9612 41.3324 42.6115 42.2398 41.9663 42.9191V42.9191ZM50.4468 29.4111C47.508 26.4281 43.4953 25.1524 39.493 25.1524C35.4892 25.1524 31.4736 26.4281 28.5363 29.4111C25.6742 32.3145 24.3381 36.3743 24.3381 40.5268C24.3381 44.6809 25.6742 48.7421 28.5363 51.6456C31.4722 54.6271 35.4863 55.9042 39.493 55.9042C43.4983 55.9042 47.508 54.627 50.4468 51.647C53.3075 48.7421 54.645 44.6824 54.645 40.5268C54.645 36.3728 53.3075 32.3145 50.4468 29.4111V29.4111ZM20.0957 45.1081C18.2028 45.1081 17.4294 44.5306 16.7297 43.6468C16.2745 43.0694 16.0491 42.2209 16.0491 41.1205V35.9751H22.4025V26.7536H16.0491V17.8799H7.93252V21.1987C7.93252 24.8725 5.11602 27.8511 1.64547 27.8511C1.38841 27.8505 1.13162 27.8342 0.876526 27.8025L0.876526 35.9751H5.13959V44.1904C5.13959 47.4252 5.72587 49.9147 6.89843 51.6132C8.7103 54.2087 10.7166 55.9042 15.6205 55.9042C18.4635 55.9042 20.841 55.256 22.4025 54.3899V44.7266C21.6625 44.9904 20.8812 45.1196 20.0957 45.1081" fill="white"></path>
</g>
<defs>
<clipPath id="clip0_27_45">
<rect width="125.16" height="78.0218" fill="white" transform="translate(0.876526)"></rect>
</clipPath>
</defs>
</svg>
