<svg width="127" height="79" fill="none" xmlns="http://www.w3.org/2000/svg"><g clip-path="url('#clip0_27_45')"><path d="M66.938 34.51a2.719 2.719 0 1 1 3.956 3.73 2.719 2.719 0 0 1-3.956-3.73ZM82.51 58.424c-.073-2.095-.693-4.307-2.275-5.768-1.766-1.631-4.322-2.38-6.698-2.38H62.946c-1.046 0-1.971-.78-1.971-1.743 0-.796.539-1.488 1.308-1.687-.003-.002.181-.047.375-.11a14.35 14.35 0 0 0 6.168 1.316c3.266 0 6.538-.954 8.934-3.182 2.335-2.17 3.425-5.202 3.425-8.308 0-3.105-1.09-6.135-3.425-8.303a10.896 10.896 0 0 0-2.258-1.613c2.25.518 4.571-.124 6.168-2.864l-4.5-3.216-3.752 5.197a15.057 15.057 0 0 0-4.592-.69c-3.264 0-6.539.955-8.935 3.183-2.334 2.17-3.422 5.203-3.422 8.305 0 3.102 1.088 6.138 3.422 8.308.204.187.412.365.629.536l-.44.231c-1.1.63-2.097 1.423-2.96 2.352-1.48 1.565-2.958 3.91-2.958 7.032 0 0-.206 6.658 7.483 6.658h5.57c1.281 0 2.59.81 2.59 2.084 0 .447-.13.883-.373 1.256h10.653a9.686 9.686 0 0 0 2.425-6.595v.001Zm11.46-23.915a2.707 2.707 0 1 1 0 3.906 2.917 2.917 0 0 1 0-3.906Zm18.87 23.914c-.071-2.095-.692-4.308-2.273-5.769-1.768-1.63-4.323-2.379-6.696-2.379l-12.295-.088c-.776 0-1.367-.483-1.367-1.2 0-.589.293-1.466 1.037-1.612 1.47.456 3.001.683 4.54.676 3.268 0 6.541-.955 8.936-3.182 2.333-2.17 3.423-5.203 3.423-8.308 0-3.105-1.09-6.136-3.423-8.304a10.91 10.91 0 0 0-2.26-1.611c2.25.518 4.571-.124 6.168-2.864l-4.497-3.216-3.755 5.197a15.058 15.058 0 0 0-4.592-.69c-3.264 0-6.539.955-8.935 3.183-2.33 2.17-3.422 5.203-3.422 8.305 0 3.102 1.09 6.138 3.422 8.308.685.633 1.45 1.175 2.273 1.614-.598.454-1.157.958-1.67 1.503-1.483 1.567-2.962 3.913-2.962 7.034 0 0-.204 6.658 7.485 6.658h5.57c1.283 0 2.586.81 2.586 2.084 0 .447-.126.881-.37 1.256h10.652a9.67 9.67 0 0 0 2.425-6.595Zm12.892-3.418v-9.937c-2.296.29-3.093-1.322-3.093-2.918v-24.27h-11.381v26.085c0 3.237.486 5.939 1.66 7.64 1.803 2.587 4.247 4.28 9.104 4.302.895-.042 2.392-.217 3.71-.899v-.003ZM41.966 42.92a3.758 3.758 0 1 1 .972-2.523 3.54 3.54 0 0 1-.972 2.523Zm8.48-13.508c-2.938-2.983-6.95-4.259-10.953-4.259-4.004 0-8.02 1.276-10.957 4.26-2.862 2.903-4.198 6.962-4.198 11.115 0 4.154 1.336 8.215 4.198 11.119 2.936 2.981 6.95 4.258 10.957 4.258 4.005 0 8.015-1.277 10.954-4.257 2.86-2.905 4.198-6.965 4.198-11.12 0-4.154-1.338-8.212-4.198-11.116Zm-30.35 15.697c-1.893 0-2.667-.577-3.366-1.461-.456-.578-.68-1.426-.68-2.526v-5.146h6.352v-9.221H16.05V17.88H7.933v3.319c0 3.673-2.817 6.652-6.288 6.652-.257 0-.513-.017-.768-.049v8.173H5.14v8.215c0 3.235.586 5.725 1.758 7.423 1.812 2.596 3.819 4.291 8.723 4.291 2.842 0 5.22-.648 6.781-1.514v-9.663a6.583 6.583 0 0 1-2.306.381" fill="#fff"/></g><defs><clipPath id="clip0_27_45"><path fill="#fff" transform="translate(.877)" d="M0 0h125.16v78.022H0z"/></clipPath></defs></svg>